<svg fill="none" xmlns="http://www.w3.org/2000/svg" viewBox="0 0 1600 1600"><rect x="5" y="5" width="90" height="190" rx="10" fill="#333"/><rect x="105" y="5" width="90" height="190" rx="10" fill="#333"/><rect x="5" y="205" width="90" height="190" rx="10" fill="#333"/><rect x="105" y="205" width="90" height="190" rx="10" fill="#333"/><rect x="5" y="405" width="90" height="190" rx="10" fill="#333"/><rect x="105" y="405" width="90" height="190" rx="10" fill="#333"/><rect x="5" y="605" width="90" height="190" rx="10" fill="#333"/><rect x="105" y="605" width="90" height="190" rx="10" fill="#333"/><rect x="5" y="805" width="90" height="190" rx="10" fill="#333"/><rect x="105" y="805" width="90" height="190" rx="10" fill="#333"/><rect x="5" y="1005" width="90" height="190" rx="10" fill="#333"/><rect x="105" y="1005" width="90" height="190" rx="10" fill="#333"/><rect x="5" y="1205" width="90" height="190" rx="10" fill="#333"/><rect x="105" y="1205" width="90" height="190" rx="10" fill="#333"/><rect x="5" y="1405" width="90" height="190" rx="10" fill="#333"/><rect x="105" y="1405" width="90" height="190" rx="10" fill="#333"/><rect x="205" y="5" width="90" height="190" rx="10" fill="#333"/><rect x="305" y="5" width="90" height="190" rx="10" fill="#333"/><rect x="205" y="205" width="90" height="190" rx="10" fill="#333"/><rect x="305" y="205" width="90" height="190" rx="10" fill="#333"/><rect x="205" y="405" width="90" height="190" rx="10" fill="#333"/><rect x="305" y="405" width="90" height="190" rx="10" fill="#333"/><rect x="205" y="605" width="90" height="190" rx="10" fill="#333"/><rect x="305" y="605" width="90" height="190" rx="10" fill="#333"/><rect x="205" y="805" width="90" height="190" rx="10" fill="#333"/><rect x="305" y="805" width="90" height="190" rx="10" fill="#333"/><rect x="205" y="1005" width="90" height="190" rx="10" fill="#333"/><rect x="305" y="1005" width="90" height="190" rx="10" fill="#333"/><rect x="205" y="1205" width="90" height="190" rx="10" fill="#333"/><rect x="305" y="1205" width="90" height="190" rx="10" fill="#333"/><rect x="205" y="1405" width="90" height="190" rx="10" fill="#333"/><rect x="305" y="1405" width="90" height="190" rx="10" fill="#333"/><rect x="405" y="5" width="90" height="190" rx="10" fill="#333"/><rect x="505" y="5" width="90" height="190" rx="10" fill="#333"/><rect x="405" y="205" width="90" height="190" rx="10" fill="#333"/><rect x="505" y="205" width="90" height="190" rx="10" fill="#333"/><rect x="405" y="405" width="90" height="190" rx="10" fill="#333"/><rect x="505" y="405" width="90" height="190" rx="10" fill="#333"/><rect x="405" y="605" width="90" height="190" rx="10" fill="#333"/><rect x="505" y="605" width="90" height="190" rx="10" fill="#333"/><rect x="405" y="805" width="90" height="190" rx="10" fill="#333"/><rect x="505" y="805" width="90" height="190" rx="10" fill="#333"/><rect x="405" y="1005" width="90" height="190" rx="10" fill="#333"/><rect x="505" y="1005" width="90" height="190" rx="10" fill="#333"/><rect x="405" y="1205" width="90" height="190" rx="10" fill="#333"/><rect x="505" y="1205" width="90" height="190" rx="10" fill="#333"/><rect x="405" y="1405" width="90" height="190" rx="10" fill="#333"/><rect x="505" y="1405" width="90" height="190" rx="10" fill="#333"/><rect x="605" y="5" width="90" height="190" rx="10" fill="#333"/><rect x="705" y="5" width="90" height="190" rx="10" fill="#333"/><rect x="605" y="205" width="90" height="190" rx="10" fill="#333"/><rect x="705" y="205" width="90" height="190" rx="10" fill="#333"/><rect x="605" y="405" width="90" height="190" rx="10" fill="#333"/><rect x="705" y="405" width="90" height="190" rx="10" fill="#333"/><rect x="605" y="605" width="90" height="190" rx="10" fill="#333"/><rect x="705" y="605" width="90" height="190" rx="10" fill="#333"/><rect x="605" y="805" width="90" height="190" rx="10" fill="#333"/><rect x="705" y="805" width="90" height="190" rx="10" fill="#333"/><rect x="605" y="1005" width="90" height="190" rx="10" fill="#333"/><rect x="705" y="1005" width="90" height="190" rx="10" fill="#333"/><rect x="605" y="1205" width="90" height="190" rx="10" fill="#333"/><rect x="705" y="1205" width="90" height="190" rx="10" fill="#333"/><rect x="605" y="1405" width="90" height="190" rx="10" fill="#333"/><rect x="705" y="1405" width="90" height="190" rx="10" fill="#333"/><rect x="805" y="5" width="90" height="190" rx="10" fill="#333"/><rect x="905" y="5" width="90" height="190" rx="10" fill="#333"/><rect x="805" y="205" width="90" height="190" rx="10" fill="#333"/><rect x="905" y="205" width="90" height="190" rx="10" fill="#333"/><rect x="805" y="405" width="90" height="190" rx="10" fill="#333"/><rect x="905" y="405" width="90" height="190" rx="10" fill="#333"/><rect x="805" y="605" width="90" height="190" rx="10" fill="#333"/><rect x="905" y="605" width="90" height="190" rx="10" fill="#333"/><rect x="805" y="805" width="90" height="190" rx="10" fill="#333"/><rect x="905" y="805" width="90" height="190" rx="10" fill="#333"/><rect x="805" y="1005" width="90" height="190" rx="10" fill="#333"/><rect x="905" y="1005" width="90" height="190" rx="10" fill="#333"/><rect x="805" y="1205" width="90" height="190" rx="10" fill="#333"/><rect x="905" y="1205" width="90" height="190" rx="10" fill="#333"/><rect x="805" y="1405" width="90" height="190" rx="10" fill="#333"/><rect x="905" y="1405" width="90" height="190" rx="10" fill="#333"/><rect x="1005" y="5" width="90" height="190" rx="10" fill="#333"/><rect x="1105" y="5" width="90" height="190" rx="10" fill="#333"/><rect x="1005" y="205" width="90" height="190" rx="10" fill="#333"/><rect x="1105" y="205" width="90" height="190" rx="10" fill="#333"/><rect x="1005" y="405" width="90" height="190" rx="10" fill="#333"/><rect x="1105" y="405" width="90" height="190" rx="10" fill="#333"/><rect x="1005" y="605" width="90" height="190" rx="10" fill="#333"/><rect x="1105" y="605" width="90" height="190" rx="10" fill="#333"/><rect x="1005" y="805" width="90" height="190" rx="10" fill="#333"/><rect x="1105" y="805" width="90" height="190" rx="10" fill="#333"/><rect x="1005" y="1005" width="90" height="190" rx="10" fill="#333"/><rect x="1105" y="1005" width="90" height="190" rx="10" fill="#333"/><rect x="1005" y="1205" width="90" height="190" rx="10" fill="#333"/><rect x="1105" y="1205" width="90" height="190" rx="10" fill="#333"/><rect x="1005" y="1405" width="90" height="190" rx="10" fill="#333"/><rect x="1105" y="1405" width="90" height="190" rx="10" fill="#333"/><rect x="1205" y="5" width="90" height="190" rx="10" fill="#333"/><rect x="1305" y="5" width="90" height="190" rx="10" fill="#333"/><rect x="1205" y="205" width="90" height="190" rx="10" fill="#333"/><rect x="1305" y="205" width="90" height="190" rx="10" fill="#333"/><rect x="1205" y="405" width="90" height="190" rx="10" fill="#333"/><rect x="1305" y="405" width="90" height="190" rx="10" fill="#333"/><rect x="1205" y="605" width="90" height="190" rx="10" fill="#333"/><rect x="1305" y="605" width="90" height="190" rx="10" fill="#333"/><rect x="1205" y="805" width="90" height="190" rx="10" fill="#333"/><rect x="1305" y="805" width="90" height="190" rx="10" fill="#333"/><rect x="1205" y="1005" width="90" height="190" rx="10" fill="#333"/><rect x="1305" y="1005" width="90" height="190" rx="10" fill="#333"/><rect x="1205" y="1205" width="90" height="190" rx="10" fill="#333"/><rect x="1305" y="1205" width="90" height="190" rx="10" fill="#333"/><rect x="1205" y="1405" width="90" height="190" rx="10" fill="#333"/><rect x="1305" y="1405" width="90" height="190" rx="10" fill="#333"/><rect x="1405" y="5" width="90" height="190" rx="10" fill="#333"/><rect x="1505" y="5" width="90" height="190" rx="10" fill="#333"/><rect x="1405" y="205" width="90" height="190" rx="10" fill="#333"/><rect x="1505" y="205" width="90" height="190" rx="10" fill="#333"/><rect x="1405" y="405" width="90" height="190" rx="10" fill="#333"/><rect x="1505" y="405" width="90" height="190" rx="10" fill="#333"/><rect x="1405" y="605" width="90" height="190" rx="10" fill="#333"/><rect x="1505" y="605" width="90" height="190" rx="10" fill="#333"/><rect x="1405" y="805" width="90" height="190" rx="10" fill="#333"/><rect x="1505" y="805" width="90" height="190" rx="10" fill="#333"/><rect x="1405" y="1005" width="90" height="190" rx="10" fill="#333"/><rect x="1505" y="1005" width="90" height="190" rx="10" fill="#333"/><rect x="1405" y="1205" width="90" height="190" rx="10" fill="#333"/><rect x="1505" y="1205" width="90" height="190" rx="10" fill="#333"/><rect x="1405" y="1405" width="90" height="190" rx="10" fill="#333"/><rect x="1505" y="1405" width="90" height="190" rx="10" fill="#333"/></svg>