<svg fill="none" viewBox="0 0 1602 1602"><path d="M1 1V.5H.5V1H1zm200 0h.5V.5h-.5V1zm0 200v.5h.5v-.5h-.5zM1 201H.5v.5H1v-.5zM1 1.5h200v-1H1v1zM200.5 1v200h1V1h-1zm.5 199.5H1v1h200v-1zM1.5 201V1h-1v200h1z" fill="#000"/><path d="M1 201v-.5H.5v.5H1zm200 0h.5v-.5h-.5v.5zm0 200v.5h.5v-.5h-.5zM1 401H.5v.5H1v-.5zm0-199.5h200v-1H1v1zm199.5-.5v200h1V201h-1zm.5 199.5H1v1h200v-1zM1.5 401V201h-1v200h1z" fill="#000"/><path d="M1 401v-.5H.5v.5H1zm200 0h.5v-.5h-.5v.5zm0 200v.5h.5v-.5h-.5zM1 601H.5v.5H1v-.5zm0-199.5h200v-1H1v1zm199.5-.5v200h1V401h-1zm.5 199.5H1v1h200v-1zM1.5 601V401h-1v200h1z" fill="#000"/><path d="M1 601v-.5H.5v.5H1zm200 0h.5v-.5h-.5v.5zm0 200v.5h.5v-.5h-.5zM1 801H.5v.5H1v-.5zm0-199.5h200v-1H1v1zm199.5-.5v200h1V601h-1zm.5 199.5H1v1h200v-1zM1.5 801V601h-1v200h1z" fill="#000"/><path d="M1 801v-.5H.5v.5H1zm200 0h.5v-.5h-.5v.5zm0 200v.5h.5v-.5h-.5zm-200 0H.5v.5H1v-.5zm0-199.5h200v-1H1v1zm199.5-.5v200h1V801h-1zm.5 199.5H1v1h200v-1zm-199.5.5V801h-1v200h1z" fill="#000"/><path d="M1 1001v-.5H.5v.5H1zm200 0h.5v-.5h-.5v.5zm0 200v.5h.5v-.5h-.5zm-200 0H.5v.5H1v-.5zm0-199.5h200v-1H1v1zm199.5-.5v200h1v-200h-1zm.5 199.5H1v1h200v-1zm-199.5.5v-200h-1v200h1z" fill="#000"/><path d="M1 1201v-.5H.5v.5H1zm200 0h.5v-.5h-.5v.5zm0 200v.5h.5v-.5h-.5zm-200 0H.5v.5H1v-.5zm0-199.5h200v-1H1v1zm199.5-.5v200h1v-200h-1zm.5 199.5H1v1h200v-1zm-199.5.5v-200h-1v200h1z" fill="#000"/><path d="M1 1401v-.5H.5v.5H1zm200 0h.5v-.5h-.5v.5zm0 200v.5h.5v-.5h-.5zm-200 0H.5v.5H1v-.5zm0-199.5h200v-1H1v1zm199.5-.5v200h1v-200h-1zm.5 199.5H1v1h200v-1zm-199.5.5v-200h-1v200h1z" fill="#000"/><path d="M201 1V.5h-.5V1h.5zm200 0h.5V.5h-.5V1zm0 200v.5h.5v-.5h-.5zm-200 0h-.5v.5h.5v-.5zm0-199.5h200v-1H201v1zM400.5 1v200h1V1h-1zm.5 199.5H201v1h200v-1zm-199.5.5V1h-1v200h1z" fill="#000"/><path d="M201 201v-.5h-.5v.5h.5zm200 0h.5v-.5h-.5v.5zm0 200v.5h.5v-.5h-.5zm-200 0h-.5v.5h.5v-.5zm0-199.5h200v-1H201v1zm199.5-.5v200h1V201h-1zm.5 199.5H201v1h200v-1zm-199.5.5V201h-1v200h1z" fill="#000"/><path d="M201 401v-.5h-.5v.5h.5zm200 0h.5v-.5h-.5v.5zm0 200v.5h.5v-.5h-.5zm-200 0h-.5v.5h.5v-.5zm0-199.5h200v-1H201v1zm199.5-.5v200h1V401h-1zm.5 199.5H201v1h200v-1zm-199.5.5V401h-1v200h1z" fill="#000"/><path d="M201 601v-.5h-.5v.5h.5zm200 0h.5v-.5h-.5v.5zm0 200v.5h.5v-.5h-.5zm-200 0h-.5v.5h.5v-.5zm0-199.5h200v-1H201v1zm199.5-.5v200h1V601h-1zm.5 199.5H201v1h200v-1zm-199.5.5V601h-1v200h1z" fill="#000"/><path d="M201 801v-.5h-.5v.5h.5zm200 0h.5v-.5h-.5v.5zm0 200v.5h.5v-.5h-.5zm-200 0h-.5v.5h.5v-.5zm0-199.5h200v-1H201v1zm199.5-.5v200h1V801h-1zm.5 199.5H201v1h200v-1zm-199.5.5V801h-1v200h1z" fill="#000"/><path d="M201 1001v-.5h-.5v.5h.5zm200 0h.5v-.5h-.5v.5zm0 200v.5h.5v-.5h-.5zm-200 0h-.5v.5h.5v-.5zm0-199.5h200v-1H201v1zm199.5-.5v200h1v-200h-1zm.5 199.5H201v1h200v-1zm-199.5.5v-200h-1v200h1z" fill="#000"/><path d="M201 1201v-.5h-.5v.5h.5zm200 0h.5v-.5h-.5v.5zm0 200v.5h.5v-.5h-.5zm-200 0h-.5v.5h.5v-.5zm0-199.5h200v-1H201v1zm199.5-.5v200h1v-200h-1zm.5 199.5H201v1h200v-1zm-199.5.5v-200h-1v200h1z" fill="#000"/><path d="M201 1401v-.5h-.5v.5h.5zm200 0h.5v-.5h-.5v.5zm0 200v.5h.5v-.5h-.5zm-200 0h-.5v.5h.5v-.5zm0-199.5h200v-1H201v1zm199.5-.5v200h1v-200h-1zm.5 199.5H201v1h200v-1zm-199.5.5v-200h-1v200h1z" fill="#000"/><path d="M401 1V.5h-.5V1h.5zm200 0h.5V.5h-.5V1zm0 200v.5h.5v-.5h-.5zm-200 0h-.5v.5h.5v-.5zm0-199.5h200v-1H401v1zM600.5 1v200h1V1h-1zm.5 199.5H401v1h200v-1zm-199.5.5V1h-1v200h1z" fill="#000"/><path d="M401 201v-.5h-.5v.5h.5zm200 0h.5v-.5h-.5v.5zm0 200v.5h.5v-.5h-.5zm-200 0h-.5v.5h.5v-.5zm0-199.5h200v-1H401v1zm199.5-.5v200h1V201h-1zm.5 199.5H401v1h200v-1zm-199.5.5V201h-1v200h1z" fill="#000"/><path d="M401 401v-.5h-.5v.5h.5zm200 0h.5v-.5h-.5v.5zm0 200v.5h.5v-.5h-.5zm-200 0h-.5v.5h.5v-.5zm0-199.5h200v-1H401v1zm199.5-.5v200h1V401h-1zm.5 199.5H401v1h200v-1zm-199.5.5V401h-1v200h1z" fill="#000"/><path d="M401 601v-.5h-.5v.5h.5zm200 0h.5v-.5h-.5v.5zm0 200v.5h.5v-.5h-.5zm-200 0h-.5v.5h.5v-.5zm0-199.5h200v-1H401v1zm199.5-.5v200h1V601h-1zm.5 199.5H401v1h200v-1zm-199.5.5V601h-1v200h1z" fill="#000"/><path d="M401 801v-.5h-.5v.5h.5zm200 0h.5v-.5h-.5v.5zm0 200v.5h.5v-.5h-.5zm-200 0h-.5v.5h.5v-.5zm0-199.5h200v-1H401v1zm199.5-.5v200h1V801h-1zm.5 199.5H401v1h200v-1zm-199.5.5V801h-1v200h1z" fill="#000"/><path d="M401 1001v-.5h-.5v.5h.5zm200 0h.5v-.5h-.5v.5zm0 200v.5h.5v-.5h-.5zm-200 0h-.5v.5h.5v-.5zm0-199.5h200v-1H401v1zm199.5-.5v200h1v-200h-1zm.5 199.5H401v1h200v-1zm-199.5.5v-200h-1v200h1z" fill="#000"/><path d="M401 1201v-.5h-.5v.5h.5zm200 0h.5v-.5h-.5v.5zm0 200v.5h.5v-.5h-.5zm-200 0h-.5v.5h.5v-.5zm0-199.5h200v-1H401v1zm199.5-.5v200h1v-200h-1zm.5 199.5H401v1h200v-1zm-199.5.5v-200h-1v200h1z" fill="#000"/><path d="M401 1401v-.5h-.5v.5h.5zm200 0h.5v-.5h-.5v.5zm0 200v.5h.5v-.5h-.5zm-200 0h-.5v.5h.5v-.5zm0-199.5h200v-1H401v1zm199.5-.5v200h1v-200h-1zm.5 199.5H401v1h200v-1zm-199.5.5v-200h-1v200h1z" fill="#000"/><path d="M601 1V.5h-.5V1h.5zm200 0h.5V.5h-.5V1zm0 200v.5h.5v-.5h-.5zm-200 0h-.5v.5h.5v-.5zm0-199.5h200v-1H601v1zM800.5 1v200h1V1h-1zm.5 199.5H601v1h200v-1zm-199.5.5V1h-1v200h1z" fill="#000"/><path d="M601 201v-.5h-.5v.5h.5zm200 0h.5v-.5h-.5v.5zm0 200v.5h.5v-.5h-.5zm-200 0h-.5v.5h.5v-.5zm0-199.5h200v-1H601v1zm199.5-.5v200h1V201h-1zm.5 199.5H601v1h200v-1zm-199.5.5V201h-1v200h1z" fill="#000"/><path d="M601 401v-.5h-.5v.5h.5zm200 0h.5v-.5h-.5v.5zm0 200v.5h.5v-.5h-.5zm-200 0h-.5v.5h.5v-.5zm0-199.5h200v-1H601v1zm199.5-.5v200h1V401h-1zm.5 199.5H601v1h200v-1zm-199.5.5V401h-1v200h1z" fill="#000"/><path d="M601 601v-.5h-.5v.5h.5zm200 0h.5v-.5h-.5v.5zm0 200v.5h.5v-.5h-.5zm-200 0h-.5v.5h.5v-.5zm0-199.5h200v-1H601v1zm199.5-.5v200h1V601h-1zm.5 199.5H601v1h200v-1zm-199.5.5V601h-1v200h1z" fill="#000"/><path d="M601 801v-.5h-.5v.5h.5zm200 0h.5v-.5h-.5v.5zm0 200v.5h.5v-.5h-.5zm-200 0h-.5v.5h.5v-.5zm0-199.5h200v-1H601v1zm199.5-.5v200h1V801h-1zm.5 199.5H601v1h200v-1zm-199.5.5V801h-1v200h1z" fill="#000"/><path d="M601 1001v-.5h-.5v.5h.5zm200 0h.5v-.5h-.5v.5zm0 200v.5h.5v-.5h-.5zm-200 0h-.5v.5h.5v-.5zm0-199.5h200v-1H601v1zm199.5-.5v200h1v-200h-1zm.5 199.5H601v1h200v-1zm-199.5.5v-200h-1v200h1z" fill="#000"/><path d="M601 1201v-.5h-.5v.5h.5zm200 0h.5v-.5h-.5v.5zm0 200v.5h.5v-.5h-.5zm-200 0h-.5v.5h.5v-.5zm0-199.5h200v-1H601v1zm199.5-.5v200h1v-200h-1zm.5 199.5H601v1h200v-1zm-199.5.5v-200h-1v200h1z" fill="#000"/><path d="M601 1401v-.5h-.5v.5h.5zm200 0h.5v-.5h-.5v.5zm0 200v.5h.5v-.5h-.5zm-200 0h-.5v.5h.5v-.5zm0-199.5h200v-1H601v1zm199.5-.5v200h1v-200h-1zm.5 199.5H601v1h200v-1zm-199.5.5v-200h-1v200h1z" fill="#000"/><path d="M801 1V.5h-.5V1h.5zm200 0h.5V.5h-.5V1zm0 200v.5h.5v-.5h-.5zm-200 0h-.5v.5h.5v-.5zm0-199.5h200v-1H801v1zm199.5-.5v200h1V1h-1zm.5 199.5H801v1h200v-1zm-199.5.5V1h-1v200h1z" fill="#000"/><path d="M801 201v-.5h-.5v.5h.5zm200 0h.5v-.5h-.5v.5zm0 200v.5h.5v-.5h-.5zm-200 0h-.5v.5h.5v-.5zm0-199.5h200v-1H801v1zm199.5-.5v200h1V201h-1zm.5 199.5H801v1h200v-1zm-199.5.5V201h-1v200h1z" fill="#000"/><path d="M801 401v-.5h-.5v.5h.5zm200 0h.5v-.5h-.5v.5zm0 200v.5h.5v-.5h-.5zm-200 0h-.5v.5h.5v-.5zm0-199.5h200v-1H801v1zm199.5-.5v200h1V401h-1zm.5 199.5H801v1h200v-1zm-199.5.5V401h-1v200h1z" fill="#000"/><path d="M801 601v-.5h-.5v.5h.5zm200 0h.5v-.5h-.5v.5zm0 200v.5h.5v-.5h-.5zm-200 0h-.5v.5h.5v-.5zm0-199.5h200v-1H801v1zm199.5-.5v200h1V601h-1zm.5 199.5H801v1h200v-1zm-199.5.5V601h-1v200h1z" fill="#000"/><path d="M801 801v-.5h-.5v.5h.5zm200 0h.5v-.5h-.5v.5zm0 200v.5h.5v-.5h-.5zm-200 0h-.5v.5h.5v-.5zm0-199.5h200v-1H801v1zm199.5-.5v200h1V801h-1zm.5 199.5H801v1h200v-1zm-199.5.5V801h-1v200h1z" fill="#000"/><path d="M801 1001v-.5h-.5v.5h.5zm200 0h.5v-.5h-.5v.5zm0 200v.5h.5v-.5h-.5zm-200 0h-.5v.5h.5v-.5zm0-199.5h200v-1H801v1zm199.5-.5v200h1v-200h-1zm.5 199.5H801v1h200v-1zm-199.5.5v-200h-1v200h1z" fill="#000"/><path d="M801 1201v-.5h-.5v.5h.5zm200 0h.5v-.5h-.5v.5zm0 200v.5h.5v-.5h-.5zm-200 0h-.5v.5h.5v-.5zm0-199.5h200v-1H801v1zm199.5-.5v200h1v-200h-1zm.5 199.5H801v1h200v-1zm-199.5.5v-200h-1v200h1z" fill="#000"/><path d="M801 1401v-.5h-.5v.5h.5zm200 0h.5v-.5h-.5v.5zm0 200v.5h.5v-.5h-.5zm-200 0h-.5v.5h.5v-.5zm0-199.5h200v-1H801v1zm199.5-.5v200h1v-200h-1zm.5 199.5H801v1h200v-1zm-199.5.5v-200h-1v200h1z" fill="#000"/><path d="M1001 1V.5h-.5V1h.5zm200 0h.5V.5h-.5V1zm0 200v.5h.5v-.5h-.5zm-200 0h-.5v.5h.5v-.5zm0-199.5h200v-1h-200v1zm199.5-.5v200h1V1h-1zm.5 199.5h-200v1h200v-1zm-199.5.5V1h-1v200h1z" fill="#000"/><path d="M1001 201v-.5h-.5v.5h.5zm200 0h.5v-.5h-.5v.5zm0 200v.5h.5v-.5h-.5zm-200 0h-.5v.5h.5v-.5zm0-199.5h200v-1h-200v1zm199.5-.5v200h1V201h-1zm.5 199.5h-200v1h200v-1zm-199.5.5V201h-1v200h1z" fill="#000"/><path d="M1001 401v-.5h-.5v.5h.5zm200 0h.5v-.5h-.5v.5zm0 200v.5h.5v-.5h-.5zm-200 0h-.5v.5h.5v-.5zm0-199.5h200v-1h-200v1zm199.5-.5v200h1V401h-1zm.5 199.5h-200v1h200v-1zm-199.5.5V401h-1v200h1z" fill="#000"/><path d="M1001 601v-.5h-.5v.5h.5zm200 0h.5v-.5h-.5v.5zm0 200v.5h.5v-.5h-.5zm-200 0h-.5v.5h.5v-.5zm0-199.5h200v-1h-200v1zm199.5-.5v200h1V601h-1zm.5 199.5h-200v1h200v-1zm-199.5.5V601h-1v200h1z" fill="#000"/><path d="M1001 801v-.5h-.5v.5h.5zm200 0h.5v-.5h-.5v.5zm0 200v.5h.5v-.5h-.5zm-200 0h-.5v.5h.5v-.5zm0-199.5h200v-1h-200v1zm199.5-.5v200h1V801h-1zm.5 199.5h-200v1h200v-1zm-199.5.5V801h-1v200h1z" fill="#000"/><path d="M1001 1001v-.5h-.5v.5h.5zm200 0h.5v-.5h-.5v.5zm0 200v.5h.5v-.5h-.5zm-200 0h-.5v.5h.5v-.5zm0-199.5h200v-1h-200v1zm199.5-.5v200h1v-200h-1zm.5 199.5h-200v1h200v-1zm-199.5.5v-200h-1v200h1z" fill="#000"/><path d="M1001 1201v-.5h-.5v.5h.5zm200 0h.5v-.5h-.5v.5zm0 200v.5h.5v-.5h-.5zm-200 0h-.5v.5h.5v-.5zm0-199.5h200v-1h-200v1zm199.5-.5v200h1v-200h-1zm.5 199.5h-200v1h200v-1zm-199.5.5v-200h-1v200h1z" fill="#000"/><path d="M1001 1401v-.5h-.5v.5h.5zm200 0h.5v-.5h-.5v.5zm0 200v.5h.5v-.5h-.5zm-200 0h-.5v.5h.5v-.5zm0-199.5h200v-1h-200v1zm199.5-.5v200h1v-200h-1zm.5 199.5h-200v1h200v-1zm-199.5.5v-200h-1v200h1z" fill="#000"/><path d="M1201 1V.5h-.5V1h.5zm200 0h.5V.5h-.5V1zm0 200v.5h.5v-.5h-.5zm-200 0h-.5v.5h.5v-.5zm0-199.5h200v-1h-200v1zm199.5-.5v200h1V1h-1zm.5 199.5h-200v1h200v-1zm-199.5.5V1h-1v200h1z" fill="#000"/><path d="M1201 201v-.5h-.5v.5h.5zm200 0h.5v-.5h-.5v.5zm0 200v.5h.5v-.5h-.5zm-200 0h-.5v.5h.5v-.5zm0-199.5h200v-1h-200v1zm199.5-.5v200h1V201h-1zm.5 199.5h-200v1h200v-1zm-199.5.5V201h-1v200h1z" fill="#000"/><path d="M1201 401v-.5h-.5v.5h.5zm200 0h.5v-.5h-.5v.5zm0 200v.5h.5v-.5h-.5zm-200 0h-.5v.5h.5v-.5zm0-199.5h200v-1h-200v1zm199.5-.5v200h1V401h-1zm.5 199.5h-200v1h200v-1zm-199.5.5V401h-1v200h1z" fill="#000"/><path d="M1201 601v-.5h-.5v.5h.5zm200 0h.5v-.5h-.5v.5zm0 200v.5h.5v-.5h-.5zm-200 0h-.5v.5h.5v-.5zm0-199.5h200v-1h-200v1zm199.5-.5v200h1V601h-1zm.5 199.5h-200v1h200v-1zm-199.5.5V601h-1v200h1z" fill="#000"/><path d="M1201 801v-.5h-.5v.5h.5zm200 0h.5v-.5h-.5v.5zm0 200v.5h.5v-.5h-.5zm-200 0h-.5v.5h.5v-.5zm0-199.5h200v-1h-200v1zm199.5-.5v200h1V801h-1zm.5 199.5h-200v1h200v-1zm-199.5.5V801h-1v200h1z" fill="#000"/><path d="M1201 1001v-.5h-.5v.5h.5zm200 0h.5v-.5h-.5v.5zm0 200v.5h.5v-.5h-.5zm-200 0h-.5v.5h.5v-.5zm0-199.5h200v-1h-200v1zm199.5-.5v200h1v-200h-1zm.5 199.5h-200v1h200v-1zm-199.5.5v-200h-1v200h1z" fill="#000"/><path d="M1201 1201v-.5h-.5v.5h.5zm200 0h.5v-.5h-.5v.5zm0 200v.5h.5v-.5h-.5zm-200 0h-.5v.5h.5v-.5zm0-199.5h200v-1h-200v1zm199.5-.5v200h1v-200h-1zm.5 199.5h-200v1h200v-1zm-199.5.5v-200h-1v200h1z" fill="#000"/><path d="M1201 1401v-.5h-.5v.5h.5zm200 0h.5v-.5h-.5v.5zm0 200v.5h.5v-.5h-.5zm-200 0h-.5v.5h.5v-.5zm0-199.5h200v-1h-200v1zm199.5-.5v200h1v-200h-1zm.5 199.5h-200v1h200v-1zm-199.5.5v-200h-1v200h1z" fill="#000"/><path d="M1401 1V.5h-.5V1h.5zm200 0h.5V.5h-.5V1zm0 200v.5h.5v-.5h-.5zm-200 0h-.5v.5h.5v-.5zm0-199.5h200v-1h-200v1zm199.5-.5v200h1V1h-1zm.5 199.5h-200v1h200v-1zm-199.5.5V1h-1v200h1z" fill="#000"/><path d="M1401 201v-.5h-.5v.5h.5zm200 0h.5v-.5h-.5v.5zm0 200v.5h.5v-.5h-.5zm-200 0h-.5v.5h.5v-.5zm0-199.5h200v-1h-200v1zm199.5-.5v200h1V201h-1zm.5 199.5h-200v1h200v-1zm-199.5.5V201h-1v200h1z" fill="#000"/><path d="M1401 401v-.5h-.5v.5h.5zm200 0h.5v-.5h-.5v.5zm0 200v.5h.5v-.5h-.5zm-200 0h-.5v.5h.5v-.5zm0-199.5h200v-1h-200v1zm199.5-.5v200h1V401h-1zm.5 199.5h-200v1h200v-1zm-199.5.5V401h-1v200h1z" fill="#000"/><path d="M1401 601v-.5h-.5v.5h.5zm200 0h.5v-.5h-.5v.5zm0 200v.5h.5v-.5h-.5zm-200 0h-.5v.5h.5v-.5zm0-199.5h200v-1h-200v1zm199.5-.5v200h1V601h-1zm.5 199.5h-200v1h200v-1zm-199.5.5V601h-1v200h1z" fill="#000"/><path d="M1401 801v-.5h-.5v.5h.5zm200 0h.5v-.5h-.5v.5zm0 200v.5h.5v-.5h-.5zm-200 0h-.5v.5h.5v-.5zm0-199.5h200v-1h-200v1zm199.5-.5v200h1V801h-1zm.5 199.5h-200v1h200v-1zm-199.5.5V801h-1v200h1z" fill="#000"/><path d="M1401 1001v-.5h-.5v.5h.5zm200 0h.5v-.5h-.5v.5zm0 200v.5h.5v-.5h-.5zm-200 0h-.5v.5h.5v-.5zm0-199.5h200v-1h-200v1zm199.5-.5v200h1v-200h-1zm.5 199.5h-200v1h200v-1zm-199.5.5v-200h-1v200h1z" fill="#000"/><path d="M1401 1201v-.5h-.5v.5h.5zm200 0h.5v-.5h-.5v.5zm0 200v.5h.5v-.5h-.5zm-200 0h-.5v.5h.5v-.5zm0-199.5h200v-1h-200v1zm199.5-.5v200h1v-200h-1zm.5 199.5h-200v1h200v-1zm-199.5.5v-200h-1v200h1z" fill="#000"/><path d="M1401 1401v-.5h-.5v.5h.5zm200 0h.5v-.5h-.5v.5zm0 200v.5h.5v-.5h-.5zm-200 0h-.5v.5h.5v-.5zm0-199.5h200v-1h-200v1zm199.5-.5v200h1v-200h-1zm.5 199.5h-200v1h200v-1zm-199.5.5v-200h-1v200h1z" fill="#000"/></svg>