<svg fill="none" xmlns="http://www.w3.org/2000/svg" viewBox="0 0 1600 1600"><path d="M195 185V29.142c0-8.909-10.771-13.37-17.071-7.07L22.071 177.928c-6.3 6.3-1.838 17.071 7.071 17.071H185c5.523 0 10-4.477 10-10zM195 385V229.142c0-8.909-10.771-13.371-17.071-7.071L22.071 377.929c-6.3 6.3-1.838 17.071 7.071 17.071H185c5.523 0 10-4.477 10-10zM195 585V429.142c0-8.909-10.771-13.371-17.071-7.071L22.071 577.929c-6.3 6.3-1.838 17.071 7.071 17.071H185c5.523 0 10-4.477 10-10zM195 785V629.142c0-8.909-10.771-13.371-17.071-7.071L22.071 777.929c-6.3 6.3-1.838 17.071 7.071 17.071H185c5.523 0 10-4.477 10-10zM195 985V829.142c0-8.909-10.771-13.371-17.071-7.071L22.071 977.929c-6.3 6.3-1.838 17.071 7.071 17.071H185c5.523 0 10-4.477 10-10zM195 1185v-155.86c0-8.91-10.771-13.37-17.071-7.07L22.071 1177.93c-6.3 6.3-1.838 17.07 7.071 17.07H185c5.523 0 10-4.48 10-10zM195 1385v-155.86c0-8.91-10.771-13.37-17.071-7.07L22.071 1377.93c-6.3 6.3-1.838 17.07 7.071 17.07H185c5.523 0 10-4.48 10-10zM195 1585v-155.86c0-8.91-10.771-13.37-17.071-7.07L22.071 1577.93c-6.3 6.3-1.838 17.07 7.071 17.07H185c5.523 0 10-4.48 10-10zM395 185V29.142c0-8.909-10.771-13.37-17.071-7.07L222.071 177.928c-6.3 6.3-1.838 17.071 7.071 17.071H385c5.523 0 10-4.477 10-10zM395 385V229.142c0-8.909-10.771-13.371-17.071-7.071L222.071 377.929c-6.3 6.3-1.838 17.071 7.071 17.071H385c5.523 0 10-4.477 10-10zM395 585V429.142c0-8.909-10.771-13.371-17.071-7.071L222.071 577.929c-6.3 6.3-1.838 17.071 7.071 17.071H385c5.523 0 10-4.477 10-10zM395 785V629.142c0-8.909-10.771-13.371-17.071-7.071L222.071 777.929c-6.3 6.3-1.838 17.071 7.071 17.071H385c5.523 0 10-4.477 10-10zM395 985V829.142c0-8.909-10.771-13.371-17.071-7.071L222.071 977.929c-6.3 6.3-1.838 17.071 7.071 17.071H385c5.523 0 10-4.477 10-10zM395 1185v-155.86c0-8.91-10.771-13.37-17.071-7.07l-155.858 155.86c-6.3 6.3-1.838 17.07 7.071 17.07H385c5.523 0 10-4.48 10-10zM395 1385v-155.86c0-8.91-10.771-13.37-17.071-7.07l-155.858 155.86c-6.3 6.3-1.838 17.07 7.071 17.07H385c5.523 0 10-4.48 10-10zM395 1585v-155.86c0-8.91-10.771-13.37-17.071-7.07l-155.858 155.86c-6.3 6.3-1.838 17.07 7.071 17.07H385c5.523 0 10-4.48 10-10zM595 185V29.142c0-8.909-10.771-13.37-17.071-7.07L422.071 177.928c-6.3 6.3-1.838 17.071 7.071 17.071H585c5.523 0 10-4.477 10-10zM595 385V229.142c0-8.909-10.771-13.371-17.071-7.071L422.071 377.929c-6.3 6.3-1.838 17.071 7.071 17.071H585c5.523 0 10-4.477 10-10zM595 585V429.142c0-8.909-10.771-13.371-17.071-7.071L422.071 577.929c-6.3 6.3-1.838 17.071 7.071 17.071H585c5.523 0 10-4.477 10-10zM595 785V629.142c0-8.909-10.771-13.371-17.071-7.071L422.071 777.929c-6.3 6.3-1.838 17.071 7.071 17.071H585c5.523 0 10-4.477 10-10zM595 985V829.142c0-8.909-10.771-13.371-17.071-7.071L422.071 977.929c-6.3 6.3-1.838 17.071 7.071 17.071H585c5.523 0 10-4.477 10-10zM595 1185v-155.86c0-8.91-10.771-13.37-17.071-7.07l-155.858 155.86c-6.3 6.3-1.838 17.07 7.071 17.07H585c5.523 0 10-4.48 10-10zM595 1385v-155.86c0-8.91-10.771-13.37-17.071-7.07l-155.858 155.86c-6.3 6.3-1.838 17.07 7.071 17.07H585c5.523 0 10-4.48 10-10zM595 1585v-155.86c0-8.91-10.771-13.37-17.071-7.07l-155.858 155.86c-6.3 6.3-1.838 17.07 7.071 17.07H585c5.523 0 10-4.48 10-10zM795 185V29.142c0-8.909-10.771-13.37-17.071-7.07L622.071 177.928c-6.3 6.3-1.838 17.071 7.071 17.071H785c5.523 0 10-4.477 10-10zM795 385V229.142c0-8.909-10.771-13.371-17.071-7.071L622.071 377.929c-6.3 6.3-1.838 17.071 7.071 17.071H785c5.523 0 10-4.477 10-10zM795 585V429.142c0-8.909-10.771-13.371-17.071-7.071L622.071 577.929c-6.3 6.3-1.838 17.071 7.071 17.071H785c5.523 0 10-4.477 10-10zM795 785V629.142c0-8.909-10.771-13.371-17.071-7.071L622.071 777.929c-6.3 6.3-1.838 17.071 7.071 17.071H785c5.523 0 10-4.477 10-10zM795 985V829.142c0-8.909-10.771-13.371-17.071-7.071L622.071 977.929c-6.3 6.3-1.838 17.071 7.071 17.071H785c5.523 0 10-4.477 10-10zM795 1185v-155.86c0-8.91-10.771-13.37-17.071-7.07l-155.858 155.86c-6.3 6.3-1.838 17.07 7.071 17.07H785c5.523 0 10-4.48 10-10zM795 1385v-155.86c0-8.91-10.771-13.37-17.071-7.07l-155.858 155.86c-6.3 6.3-1.838 17.07 7.071 17.07H785c5.523 0 10-4.48 10-10zM795 1585v-155.86c0-8.91-10.771-13.37-17.071-7.07l-155.858 155.86c-6.3 6.3-1.838 17.07 7.071 17.07H785c5.523 0 10-4.48 10-10zM995 185V29.142c0-8.909-10.771-13.37-17.071-7.07L822.071 177.928c-6.3 6.3-1.838 17.071 7.071 17.071H985c5.523 0 10-4.477 10-10zM995 385V229.142c0-8.909-10.771-13.371-17.071-7.071L822.071 377.929c-6.3 6.3-1.838 17.071 7.071 17.071H985c5.523 0 10-4.477 10-10zM995 585V429.142c0-8.909-10.771-13.371-17.071-7.071L822.071 577.929c-6.3 6.3-1.838 17.071 7.071 17.071H985c5.523 0 10-4.477 10-10zM995 785V629.142c0-8.909-10.771-13.371-17.071-7.071L822.071 777.929c-6.3 6.3-1.838 17.071 7.071 17.071H985c5.523 0 10-4.477 10-10zM995 985V829.142c0-8.909-10.771-13.371-17.071-7.071L822.071 977.929c-6.3 6.3-1.838 17.071 7.071 17.071H985c5.523 0 10-4.477 10-10zM995 1185v-155.86c0-8.91-10.771-13.37-17.071-7.07l-155.858 155.86c-6.3 6.3-1.838 17.07 7.071 17.07H985c5.523 0 10-4.48 10-10zM995 1385v-155.86c0-8.91-10.771-13.37-17.071-7.07l-155.858 155.86c-6.3 6.3-1.838 17.07 7.071 17.07H985c5.523 0 10-4.48 10-10zM995 1585v-155.86c0-8.91-10.771-13.37-17.071-7.07l-155.858 155.86c-6.3 6.3-1.838 17.07 7.071 17.07H985c5.523 0 10-4.48 10-10zM1195 185V29.142c0-8.909-10.77-13.37-17.07-7.07l-155.86 155.857c-6.3 6.3-1.84 17.071 7.07 17.071H1185c5.52 0 10-4.477 10-10zM1195 385V229.142c0-8.909-10.77-13.371-17.07-7.071l-155.86 155.858c-6.3 6.3-1.84 17.071 7.07 17.071H1185c5.52 0 10-4.477 10-10zM1195 585V429.142c0-8.909-10.77-13.371-17.07-7.071l-155.86 155.858c-6.3 6.3-1.84 17.071 7.07 17.071H1185c5.52 0 10-4.477 10-10zM1195 785V629.142c0-8.909-10.77-13.371-17.07-7.071l-155.86 155.858c-6.3 6.3-1.84 17.071 7.07 17.071H1185c5.52 0 10-4.477 10-10zM1195 985V829.142c0-8.909-10.77-13.371-17.07-7.071l-155.86 155.858c-6.3 6.3-1.84 17.071 7.07 17.071H1185c5.52 0 10-4.477 10-10zM1195 1185v-155.86c0-8.91-10.77-13.37-17.07-7.07l-155.86 155.86c-6.3 6.3-1.84 17.07 7.07 17.07H1185c5.52 0 10-4.48 10-10zM1195 1385v-155.86c0-8.91-10.77-13.37-17.07-7.07l-155.86 155.86c-6.3 6.3-1.84 17.07 7.07 17.07H1185c5.52 0 10-4.48 10-10zM1195 1585v-155.86c0-8.91-10.77-13.37-17.07-7.07l-155.86 155.86c-6.3 6.3-1.84 17.07 7.07 17.07H1185c5.52 0 10-4.48 10-10zM1395 185V29.142c0-8.909-10.77-13.37-17.07-7.07l-155.86 155.857c-6.3 6.3-1.84 17.071 7.07 17.071H1385c5.52 0 10-4.477 10-10zM1395 385V229.142c0-8.909-10.77-13.371-17.07-7.071l-155.86 155.858c-6.3 6.3-1.84 17.071 7.07 17.071H1385c5.52 0 10-4.477 10-10zM1395 585V429.142c0-8.909-10.77-13.371-17.07-7.071l-155.86 155.858c-6.3 6.3-1.84 17.071 7.07 17.071H1385c5.52 0 10-4.477 10-10zM1395 785V629.142c0-8.909-10.77-13.371-17.07-7.071l-155.86 155.858c-6.3 6.3-1.84 17.071 7.07 17.071H1385c5.52 0 10-4.477 10-10zM1395 985V829.142c0-8.909-10.77-13.371-17.07-7.071l-155.86 155.858c-6.3 6.3-1.84 17.071 7.07 17.071H1385c5.52 0 10-4.477 10-10zM1395 1185v-155.86c0-8.91-10.77-13.37-17.07-7.07l-155.86 155.86c-6.3 6.3-1.84 17.07 7.07 17.07H1385c5.52 0 10-4.48 10-10zM1395 1385v-155.86c0-8.91-10.77-13.37-17.07-7.07l-155.86 155.86c-6.3 6.3-1.84 17.07 7.07 17.07H1385c5.52 0 10-4.48 10-10zM1395 1585v-155.86c0-8.91-10.77-13.37-17.07-7.07l-155.86 155.86c-6.3 6.3-1.84 17.07 7.07 17.07H1385c5.52 0 10-4.48 10-10zM1595 185V29.142c0-8.909-10.77-13.37-17.07-7.07l-155.86 155.857c-6.3 6.3-1.84 17.071 7.07 17.071H1585c5.52 0 10-4.477 10-10zM1595 385V229.142c0-8.909-10.77-13.371-17.07-7.071l-155.86 155.858c-6.3 6.3-1.84 17.071 7.07 17.071H1585c5.52 0 10-4.477 10-10zM1595 585V429.142c0-8.909-10.77-13.371-17.07-7.071l-155.86 155.858c-6.3 6.3-1.84 17.071 7.07 17.071H1585c5.52 0 10-4.477 10-10zM1595 785V629.142c0-8.909-10.77-13.371-17.07-7.071l-155.86 155.858c-6.3 6.3-1.84 17.071 7.07 17.071H1585c5.52 0 10-4.477 10-10zM1595 985V829.142c0-8.909-10.77-13.371-17.07-7.071l-155.86 155.858c-6.3 6.3-1.84 17.071 7.07 17.071H1585c5.52 0 10-4.477 10-10zM1595 1185v-155.86c0-8.91-10.77-13.37-17.07-7.07l-155.86 155.86c-6.3 6.3-1.84 17.07 7.07 17.07H1585c5.52 0 10-4.48 10-10zM1595 1385v-155.86c0-8.91-10.77-13.37-17.07-7.07l-155.86 155.86c-6.3 6.3-1.84 17.07 7.07 17.07H1585c5.52 0 10-4.48 10-10zM1595 1585v-155.86c0-8.91-10.77-13.37-17.07-7.07l-155.86 155.86c-6.3 6.3-1.84 17.07 7.07 17.07H1585c5.52 0 10-4.48 10-10z" fill="#333"/></svg>