<svg fill="none" xmlns="http://www.w3.org/2000/svg" viewBox="0 0 1600 1600"><path fill-rule="evenodd" clip-rule="evenodd" d="M15 5C9.477 5 5 9.477 5 15v170c0 5.523 4.477 10 10 10h170c5.523 0 10-4.477 10-10V15c0-5.523-4.477-10-10-10H15zm85 170c41.421 0 75-33.579 75-75s-33.579-75-75-75-75 33.579-75 75 33.579 75 75 75zM15 205c-5.523 0-10 4.477-10 10v170c0 5.523 4.477 10 10 10h170c5.523 0 10-4.477 10-10V215c0-5.523-4.477-10-10-10H15zm85 170c41.421 0 75-33.579 75-75s-33.579-75-75-75-75 33.579-75 75 33.579 75 75 75zM15 405c-5.523 0-10 4.477-10 10v170c0 5.523 4.477 10 10 10h170c5.523 0 10-4.477 10-10V415c0-5.523-4.477-10-10-10H15zm85 170c41.421 0 75-33.579 75-75s-33.579-75-75-75-75 33.579-75 75 33.579 75 75 75zM15 605c-5.523 0-10 4.477-10 10v170c0 5.523 4.477 10 10 10h170c5.523 0 10-4.477 10-10V615c0-5.523-4.477-10-10-10H15zm85 170c41.421 0 75-33.579 75-75s-33.579-75-75-75-75 33.579-75 75 33.579 75 75 75zM15 805c-5.523 0-10 4.477-10 10v170c0 5.523 4.477 10 10 10h170c5.523 0 10-4.477 10-10V815c0-5.523-4.477-10-10-10H15zm85 170c41.421 0 75-33.579 75-75s-33.579-75-75-75-75 33.579-75 75 33.579 75 75 75zM15 1005c-5.523 0-10 4.48-10 10v170c0 5.52 4.477 10 10 10h170c5.523 0 10-4.48 10-10v-170c0-5.52-4.477-10-10-10H15zm85 170c41.421 0 75-33.58 75-75s-33.579-75-75-75-75 33.58-75 75 33.579 75 75 75zM15 1205c-5.523 0-10 4.48-10 10v170c0 5.52 4.477 10 10 10h170c5.523 0 10-4.48 10-10v-170c0-5.52-4.477-10-10-10H15zm85 170c41.421 0 75-33.58 75-75s-33.579-75-75-75-75 33.58-75 75 33.579 75 75 75zM15 1405c-5.523 0-10 4.48-10 10v170c0 5.52 4.477 10 10 10h170c5.523 0 10-4.48 10-10v-170c0-5.52-4.477-10-10-10H15zm85 170c41.421 0 75-33.58 75-75s-33.579-75-75-75-75 33.58-75 75 33.579 75 75 75zM215 5c-5.523 0-10 4.477-10 10v170c0 5.523 4.477 10 10 10h170c5.523 0 10-4.477 10-10V15c0-5.523-4.477-10-10-10H215zm85 170c41.421 0 75-33.579 75-75s-33.579-75-75-75-75 33.579-75 75 33.579 75 75 75zM215 205c-5.523 0-10 4.477-10 10v170c0 5.523 4.477 10 10 10h170c5.523 0 10-4.477 10-10V215c0-5.523-4.477-10-10-10H215zm85 170c41.421 0 75-33.579 75-75s-33.579-75-75-75-75 33.579-75 75 33.579 75 75 75zM215 405c-5.523 0-10 4.477-10 10v170c0 5.523 4.477 10 10 10h170c5.523 0 10-4.477 10-10V415c0-5.523-4.477-10-10-10H215zm85 170c41.421 0 75-33.579 75-75s-33.579-75-75-75-75 33.579-75 75 33.579 75 75 75zM215 605c-5.523 0-10 4.477-10 10v170c0 5.523 4.477 10 10 10h170c5.523 0 10-4.477 10-10V615c0-5.523-4.477-10-10-10H215zm85 170c41.421 0 75-33.579 75-75s-33.579-75-75-75-75 33.579-75 75 33.579 75 75 75zM215 805c-5.523 0-10 4.477-10 10v170c0 5.523 4.477 10 10 10h170c5.523 0 10-4.477 10-10V815c0-5.523-4.477-10-10-10H215zm85 170c41.421 0 75-33.579 75-75s-33.579-75-75-75-75 33.579-75 75 33.579 75 75 75zM215 1005c-5.523 0-10 4.48-10 10v170c0 5.52 4.477 10 10 10h170c5.523 0 10-4.48 10-10v-170c0-5.52-4.477-10-10-10H215zm85 170c41.421 0 75-33.58 75-75s-33.579-75-75-75-75 33.58-75 75 33.579 75 75 75zM215 1205c-5.523 0-10 4.48-10 10v170c0 5.52 4.477 10 10 10h170c5.523 0 10-4.48 10-10v-170c0-5.52-4.477-10-10-10H215zm85 170c41.421 0 75-33.58 75-75s-33.579-75-75-75-75 33.58-75 75 33.579 75 75 75zM215 1405c-5.523 0-10 4.48-10 10v170c0 5.52 4.477 10 10 10h170c5.523 0 10-4.48 10-10v-170c0-5.52-4.477-10-10-10H215zm85 170c41.421 0 75-33.58 75-75s-33.579-75-75-75-75 33.58-75 75 33.579 75 75 75zM415 5c-5.523 0-10 4.477-10 10v170c0 5.523 4.477 10 10 10h170c5.523 0 10-4.477 10-10V15c0-5.523-4.477-10-10-10H415zm85 170c41.421 0 75-33.579 75-75s-33.579-75-75-75-75 33.579-75 75 33.579 75 75 75zM415 205c-5.523 0-10 4.477-10 10v170c0 5.523 4.477 10 10 10h170c5.523 0 10-4.477 10-10V215c0-5.523-4.477-10-10-10H415zm85 170c41.421 0 75-33.579 75-75s-33.579-75-75-75-75 33.579-75 75 33.579 75 75 75zM415 405c-5.523 0-10 4.477-10 10v170c0 5.523 4.477 10 10 10h170c5.523 0 10-4.477 10-10V415c0-5.523-4.477-10-10-10H415zm85 170c41.421 0 75-33.579 75-75s-33.579-75-75-75-75 33.579-75 75 33.579 75 75 75zM415 605c-5.523 0-10 4.477-10 10v170c0 5.523 4.477 10 10 10h170c5.523 0 10-4.477 10-10V615c0-5.523-4.477-10-10-10H415zm85 170c41.421 0 75-33.579 75-75s-33.579-75-75-75-75 33.579-75 75 33.579 75 75 75zM415 805c-5.523 0-10 4.477-10 10v170c0 5.523 4.477 10 10 10h170c5.523 0 10-4.477 10-10V815c0-5.523-4.477-10-10-10H415zm85 170c41.421 0 75-33.579 75-75s-33.579-75-75-75-75 33.579-75 75 33.579 75 75 75zM415 1005c-5.523 0-10 4.48-10 10v170c0 5.52 4.477 10 10 10h170c5.523 0 10-4.48 10-10v-170c0-5.52-4.477-10-10-10H415zm85 170c41.421 0 75-33.58 75-75s-33.579-75-75-75-75 33.58-75 75 33.579 75 75 75zM415 1205c-5.523 0-10 4.48-10 10v170c0 5.52 4.477 10 10 10h170c5.523 0 10-4.48 10-10v-170c0-5.52-4.477-10-10-10H415zm85 170c41.421 0 75-33.58 75-75s-33.579-75-75-75-75 33.58-75 75 33.579 75 75 75zM415 1405c-5.523 0-10 4.48-10 10v170c0 5.52 4.477 10 10 10h170c5.523 0 10-4.48 10-10v-170c0-5.52-4.477-10-10-10H415zm85 170c41.421 0 75-33.58 75-75s-33.579-75-75-75-75 33.58-75 75 33.579 75 75 75zM615 5c-5.523 0-10 4.477-10 10v170c0 5.523 4.477 10 10 10h170c5.523 0 10-4.477 10-10V15c0-5.523-4.477-10-10-10H615zm85 170c41.421 0 75-33.579 75-75s-33.579-75-75-75-75 33.579-75 75 33.579 75 75 75zM615 205c-5.523 0-10 4.477-10 10v170c0 5.523 4.477 10 10 10h170c5.523 0 10-4.477 10-10V215c0-5.523-4.477-10-10-10H615zm85 170c41.421 0 75-33.579 75-75s-33.579-75-75-75-75 33.579-75 75 33.579 75 75 75zM615 405c-5.523 0-10 4.477-10 10v170c0 5.523 4.477 10 10 10h170c5.523 0 10-4.477 10-10V415c0-5.523-4.477-10-10-10H615zm85 170c41.421 0 75-33.579 75-75s-33.579-75-75-75-75 33.579-75 75 33.579 75 75 75zM615 605c-5.523 0-10 4.477-10 10v170c0 5.523 4.477 10 10 10h170c5.523 0 10-4.477 10-10V615c0-5.523-4.477-10-10-10H615zm85 170c41.421 0 75-33.579 75-75s-33.579-75-75-75-75 33.579-75 75 33.579 75 75 75zM615 805c-5.523 0-10 4.477-10 10v170c0 5.523 4.477 10 10 10h170c5.523 0 10-4.477 10-10V815c0-5.523-4.477-10-10-10H615zm85 170c41.421 0 75-33.579 75-75s-33.579-75-75-75-75 33.579-75 75 33.579 75 75 75zM615 1005c-5.523 0-10 4.48-10 10v170c0 5.52 4.477 10 10 10h170c5.523 0 10-4.48 10-10v-170c0-5.52-4.477-10-10-10H615zm85 170c41.421 0 75-33.58 75-75s-33.579-75-75-75-75 33.58-75 75 33.579 75 75 75zM615 1205c-5.523 0-10 4.48-10 10v170c0 5.52 4.477 10 10 10h170c5.523 0 10-4.48 10-10v-170c0-5.52-4.477-10-10-10H615zm85 170c41.421 0 75-33.58 75-75s-33.579-75-75-75-75 33.58-75 75 33.579 75 75 75zM615 1405c-5.523 0-10 4.48-10 10v170c0 5.52 4.477 10 10 10h170c5.523 0 10-4.48 10-10v-170c0-5.52-4.477-10-10-10H615zm85 170c41.421 0 75-33.58 75-75s-33.579-75-75-75-75 33.58-75 75 33.579 75 75 75zM815 5c-5.523 0-10 4.477-10 10v170c0 5.523 4.477 10 10 10h170c5.523 0 10-4.477 10-10V15c0-5.523-4.477-10-10-10H815zm85 170c41.421 0 75-33.579 75-75s-33.579-75-75-75-75 33.579-75 75 33.579 75 75 75zM815 205c-5.523 0-10 4.477-10 10v170c0 5.523 4.477 10 10 10h170c5.523 0 10-4.477 10-10V215c0-5.523-4.477-10-10-10H815zm85 170c41.421 0 75-33.579 75-75s-33.579-75-75-75-75 33.579-75 75 33.579 75 75 75zM815 405c-5.523 0-10 4.477-10 10v170c0 5.523 4.477 10 10 10h170c5.523 0 10-4.477 10-10V415c0-5.523-4.477-10-10-10H815zm85 170c41.421 0 75-33.579 75-75s-33.579-75-75-75-75 33.579-75 75 33.579 75 75 75zM815 605c-5.523 0-10 4.477-10 10v170c0 5.523 4.477 10 10 10h170c5.523 0 10-4.477 10-10V615c0-5.523-4.477-10-10-10H815zm85 170c41.421 0 75-33.579 75-75s-33.579-75-75-75-75 33.579-75 75 33.579 75 75 75zM815 805c-5.523 0-10 4.477-10 10v170c0 5.523 4.477 10 10 10h170c5.523 0 10-4.477 10-10V815c0-5.523-4.477-10-10-10H815zm85 170c41.421 0 75-33.579 75-75s-33.579-75-75-75-75 33.579-75 75 33.579 75 75 75zM815 1005c-5.523 0-10 4.48-10 10v170c0 5.52 4.477 10 10 10h170c5.523 0 10-4.48 10-10v-170c0-5.52-4.477-10-10-10H815zm85 170c41.421 0 75-33.58 75-75s-33.579-75-75-75-75 33.58-75 75 33.579 75 75 75zM815 1205c-5.523 0-10 4.48-10 10v170c0 5.52 4.477 10 10 10h170c5.523 0 10-4.48 10-10v-170c0-5.52-4.477-10-10-10H815zm85 170c41.421 0 75-33.58 75-75s-33.579-75-75-75-75 33.58-75 75 33.579 75 75 75zM815 1405c-5.523 0-10 4.48-10 10v170c0 5.52 4.477 10 10 10h170c5.523 0 10-4.48 10-10v-170c0-5.52-4.477-10-10-10H815zm85 170c41.421 0 75-33.58 75-75s-33.579-75-75-75-75 33.58-75 75 33.579 75 75 75zM1015 5c-5.52 0-10 4.477-10 10v170c0 5.523 4.48 10 10 10h170c5.52 0 10-4.477 10-10V15c0-5.523-4.48-10-10-10h-170zm85 170c41.42 0 75-33.579 75-75s-33.58-75-75-75-75 33.579-75 75 33.58 75 75 75zM1015 205c-5.52 0-10 4.477-10 10v170c0 5.523 4.48 10 10 10h170c5.52 0 10-4.477 10-10V215c0-5.523-4.48-10-10-10h-170zm85 170c41.42 0 75-33.579 75-75s-33.58-75-75-75-75 33.579-75 75 33.58 75 75 75zM1015 405c-5.52 0-10 4.477-10 10v170c0 5.523 4.48 10 10 10h170c5.52 0 10-4.477 10-10V415c0-5.523-4.48-10-10-10h-170zm85 170c41.42 0 75-33.579 75-75s-33.58-75-75-75-75 33.579-75 75 33.58 75 75 75zM1015 605c-5.52 0-10 4.477-10 10v170c0 5.523 4.48 10 10 10h170c5.52 0 10-4.477 10-10V615c0-5.523-4.48-10-10-10h-170zm85 170c41.42 0 75-33.579 75-75s-33.58-75-75-75-75 33.579-75 75 33.58 75 75 75zM1015 805c-5.52 0-10 4.477-10 10v170c0 5.523 4.48 10 10 10h170c5.52 0 10-4.477 10-10V815c0-5.523-4.48-10-10-10h-170zm85 170c41.42 0 75-33.579 75-75s-33.58-75-75-75-75 33.579-75 75 33.58 75 75 75zM1015 1005c-5.52 0-10 4.48-10 10v170c0 5.52 4.48 10 10 10h170c5.52 0 10-4.48 10-10v-170c0-5.52-4.48-10-10-10h-170zm85 170c41.42 0 75-33.58 75-75s-33.58-75-75-75-75 33.58-75 75 33.58 75 75 75zM1015 1205c-5.52 0-10 4.48-10 10v170c0 5.52 4.48 10 10 10h170c5.52 0 10-4.48 10-10v-170c0-5.52-4.48-10-10-10h-170zm85 170c41.42 0 75-33.58 75-75s-33.58-75-75-75-75 33.58-75 75 33.58 75 75 75zM1015 1405c-5.52 0-10 4.48-10 10v170c0 5.52 4.48 10 10 10h170c5.52 0 10-4.48 10-10v-170c0-5.52-4.48-10-10-10h-170zm85 170c41.42 0 75-33.58 75-75s-33.58-75-75-75-75 33.58-75 75 33.58 75 75 75zM1215 5c-5.52 0-10 4.477-10 10v170c0 5.523 4.48 10 10 10h170c5.52 0 10-4.477 10-10V15c0-5.523-4.48-10-10-10h-170zm85 170c41.42 0 75-33.579 75-75s-33.58-75-75-75-75 33.579-75 75 33.58 75 75 75zM1215 205c-5.52 0-10 4.477-10 10v170c0 5.523 4.48 10 10 10h170c5.52 0 10-4.477 10-10V215c0-5.523-4.48-10-10-10h-170zm85 170c41.42 0 75-33.579 75-75s-33.58-75-75-75-75 33.579-75 75 33.58 75 75 75zM1215 405c-5.52 0-10 4.477-10 10v170c0 5.523 4.48 10 10 10h170c5.52 0 10-4.477 10-10V415c0-5.523-4.48-10-10-10h-170zm85 170c41.42 0 75-33.579 75-75s-33.58-75-75-75-75 33.579-75 75 33.58 75 75 75zM1215 605c-5.52 0-10 4.477-10 10v170c0 5.523 4.48 10 10 10h170c5.52 0 10-4.477 10-10V615c0-5.523-4.48-10-10-10h-170zm85 170c41.42 0 75-33.579 75-75s-33.58-75-75-75-75 33.579-75 75 33.58 75 75 75zM1215 805c-5.52 0-10 4.477-10 10v170c0 5.523 4.48 10 10 10h170c5.52 0 10-4.477 10-10V815c0-5.523-4.48-10-10-10h-170zm85 170c41.42 0 75-33.579 75-75s-33.58-75-75-75-75 33.579-75 75 33.58 75 75 75zM1215 1005c-5.52 0-10 4.48-10 10v170c0 5.52 4.48 10 10 10h170c5.52 0 10-4.48 10-10v-170c0-5.52-4.48-10-10-10h-170zm85 170c41.42 0 75-33.58 75-75s-33.58-75-75-75-75 33.58-75 75 33.58 75 75 75zM1215 1205c-5.52 0-10 4.48-10 10v170c0 5.52 4.48 10 10 10h170c5.52 0 10-4.48 10-10v-170c0-5.52-4.48-10-10-10h-170zm85 170c41.42 0 75-33.58 75-75s-33.58-75-75-75-75 33.58-75 75 33.58 75 75 75zM1215 1405c-5.52 0-10 4.48-10 10v170c0 5.52 4.48 10 10 10h170c5.52 0 10-4.48 10-10v-170c0-5.52-4.48-10-10-10h-170zm85 170c41.42 0 75-33.58 75-75s-33.58-75-75-75-75 33.58-75 75 33.58 75 75 75zM1415 5c-5.52 0-10 4.477-10 10v170c0 5.523 4.48 10 10 10h170c5.52 0 10-4.477 10-10V15c0-5.523-4.48-10-10-10h-170zm85 170c41.42 0 75-33.579 75-75s-33.58-75-75-75-75 33.579-75 75 33.58 75 75 75zM1415 205c-5.52 0-10 4.477-10 10v170c0 5.523 4.48 10 10 10h170c5.52 0 10-4.477 10-10V215c0-5.523-4.48-10-10-10h-170zm85 170c41.42 0 75-33.579 75-75s-33.58-75-75-75-75 33.579-75 75 33.58 75 75 75zM1415 405c-5.52 0-10 4.477-10 10v170c0 5.523 4.48 10 10 10h170c5.52 0 10-4.477 10-10V415c0-5.523-4.48-10-10-10h-170zm85 170c41.42 0 75-33.579 75-75s-33.58-75-75-75-75 33.579-75 75 33.58 75 75 75zM1415 605c-5.52 0-10 4.477-10 10v170c0 5.523 4.48 10 10 10h170c5.52 0 10-4.477 10-10V615c0-5.523-4.48-10-10-10h-170zm85 170c41.42 0 75-33.579 75-75s-33.58-75-75-75-75 33.579-75 75 33.58 75 75 75zM1415 805c-5.52 0-10 4.477-10 10v170c0 5.523 4.48 10 10 10h170c5.52 0 10-4.477 10-10V815c0-5.523-4.48-10-10-10h-170zm85 170c41.42 0 75-33.579 75-75s-33.58-75-75-75-75 33.579-75 75 33.58 75 75 75zM1415 1005c-5.52 0-10 4.48-10 10v170c0 5.52 4.48 10 10 10h170c5.52 0 10-4.48 10-10v-170c0-5.52-4.48-10-10-10h-170zm85 170c41.42 0 75-33.58 75-75s-33.58-75-75-75-75 33.58-75 75 33.58 75 75 75zM1415 1205c-5.52 0-10 4.48-10 10v170c0 5.52 4.48 10 10 10h170c5.52 0 10-4.48 10-10v-170c0-5.52-4.48-10-10-10h-170zm85 170c41.42 0 75-33.58 75-75s-33.58-75-75-75-75 33.58-75 75 33.58 75 75 75zM1415 1405c-5.52 0-10 4.48-10 10v170c0 5.52 4.48 10 10 10h170c5.52 0 10-4.48 10-10v-170c0-5.52-4.48-10-10-10h-170zm85 170c41.42 0 75-33.58 75-75s-33.58-75-75-75-75 33.58-75 75 33.58 75 75 75z" fill="#333"/></svg>