<svg fill="none" viewBox="0 0 1600 1600"><circle cx="52.5" cy="52.5" r="47.5" fill="#333"/><circle cx="147.5" cy="52.5" r="47.5" fill="#333"/><circle cx="52.5" cy="147.5" r="47.5" fill="#333"/><circle cx="147.5" cy="147.5" r="47.5" fill="#333"/><circle cx="52.5" cy="252.5" r="47.5" fill="#333"/><circle cx="147.5" cy="252.5" r="47.5" fill="#333"/><circle cx="52.5" cy="347.5" r="47.5" fill="#333"/><circle cx="147.5" cy="347.5" r="47.5" fill="#333"/><circle cx="52.5" cy="452.5" r="47.5" fill="#333"/><circle cx="147.5" cy="452.5" r="47.5" fill="#333"/><circle cx="52.5" cy="547.5" r="47.5" fill="#333"/><circle cx="147.5" cy="547.5" r="47.5" fill="#333"/><circle cx="52.5" cy="652.5" r="47.5" fill="#333"/><circle cx="147.5" cy="652.5" r="47.5" fill="#333"/><circle cx="52.5" cy="747.5" r="47.5" fill="#333"/><circle cx="147.5" cy="747.5" r="47.5" fill="#333"/><circle cx="52.5" cy="852.5" r="47.5" fill="#333"/><circle cx="147.5" cy="852.5" r="47.5" fill="#333"/><circle cx="52.5" cy="947.5" r="47.5" fill="#333"/><circle cx="147.5" cy="947.5" r="47.5" fill="#333"/><circle cx="52.5" cy="1052.5" r="47.5" fill="#333"/><circle cx="147.5" cy="1052.5" r="47.5" fill="#333"/><circle cx="52.5" cy="1147.5" r="47.5" fill="#333"/><circle cx="147.5" cy="1147.5" r="47.5" fill="#333"/><circle cx="52.5" cy="1252.5" r="47.5" fill="#333"/><circle cx="147.5" cy="1252.5" r="47.5" fill="#333"/><circle cx="52.5" cy="1347.5" r="47.5" fill="#333"/><circle cx="147.5" cy="1347.5" r="47.5" fill="#333"/><circle cx="52.5" cy="1452.5" r="47.5" fill="#333"/><circle cx="147.5" cy="1452.5" r="47.5" fill="#333"/><circle cx="52.5" cy="1547.5" r="47.5" fill="#333"/><circle cx="147.5" cy="1547.5" r="47.5" fill="#333"/><circle cx="252.5" cy="52.5" r="47.5" fill="#333"/><circle cx="347.5" cy="52.5" r="47.5" fill="#333"/><circle cx="252.5" cy="147.5" r="47.5" fill="#333"/><circle cx="347.5" cy="147.5" r="47.5" fill="#333"/><circle cx="252.5" cy="252.5" r="47.5" fill="#333"/><circle cx="347.5" cy="252.5" r="47.5" fill="#333"/><circle cx="252.5" cy="347.5" r="47.5" fill="#333"/><circle cx="347.5" cy="347.5" r="47.5" fill="#333"/><circle cx="252.5" cy="452.5" r="47.5" fill="#333"/><circle cx="347.5" cy="452.5" r="47.5" fill="#333"/><circle cx="252.5" cy="547.5" r="47.5" fill="#333"/><circle cx="347.5" cy="547.5" r="47.5" fill="#333"/><circle cx="252.5" cy="652.5" r="47.5" fill="#333"/><circle cx="347.5" cy="652.5" r="47.5" fill="#333"/><circle cx="252.5" cy="747.5" r="47.5" fill="#333"/><circle cx="347.5" cy="747.5" r="47.5" fill="#333"/><circle cx="252.5" cy="852.5" r="47.5" fill="#333"/><circle cx="347.5" cy="852.5" r="47.5" fill="#333"/><circle cx="252.5" cy="947.5" r="47.5" fill="#333"/><circle cx="347.5" cy="947.5" r="47.5" fill="#333"/><circle cx="252.5" cy="1052.5" r="47.5" fill="#333"/><circle cx="347.5" cy="1052.5" r="47.5" fill="#333"/><circle cx="252.5" cy="1147.5" r="47.5" fill="#333"/><circle cx="347.5" cy="1147.5" r="47.5" fill="#333"/><circle cx="252.5" cy="1252.5" r="47.5" fill="#333"/><circle cx="347.5" cy="1252.5" r="47.5" fill="#333"/><circle cx="252.5" cy="1347.5" r="47.5" fill="#333"/><circle cx="347.5" cy="1347.5" r="47.5" fill="#333"/><circle cx="252.5" cy="1452.5" r="47.5" fill="#333"/><circle cx="347.5" cy="1452.5" r="47.5" fill="#333"/><circle cx="252.5" cy="1547.5" r="47.5" fill="#333"/><circle cx="347.5" cy="1547.5" r="47.5" fill="#333"/><circle cx="452.5" cy="52.5" r="47.5" fill="#333"/><circle cx="547.5" cy="52.5" r="47.5" fill="#333"/><circle cx="452.5" cy="147.5" r="47.5" fill="#333"/><circle cx="547.5" cy="147.5" r="47.5" fill="#333"/><circle cx="452.5" cy="252.5" r="47.5" fill="#333"/><circle cx="547.5" cy="252.5" r="47.5" fill="#333"/><circle cx="452.5" cy="347.5" r="47.5" fill="#333"/><circle cx="547.5" cy="347.5" r="47.5" fill="#333"/><circle cx="452.5" cy="452.5" r="47.5" fill="#333"/><circle cx="547.5" cy="452.5" r="47.5" fill="#333"/><circle cx="452.5" cy="547.5" r="47.5" fill="#333"/><circle cx="547.5" cy="547.5" r="47.5" fill="#333"/><circle cx="452.5" cy="652.5" r="47.5" fill="#333"/><circle cx="547.5" cy="652.5" r="47.5" fill="#333"/><circle cx="452.5" cy="747.5" r="47.5" fill="#333"/><circle cx="547.5" cy="747.5" r="47.5" fill="#333"/><circle cx="452.5" cy="852.5" r="47.5" fill="#333"/><circle cx="547.5" cy="852.5" r="47.5" fill="#333"/><circle cx="452.5" cy="947.5" r="47.5" fill="#333"/><circle cx="547.5" cy="947.5" r="47.5" fill="#333"/><circle cx="452.5" cy="1052.5" r="47.5" fill="#333"/><circle cx="547.5" cy="1052.5" r="47.5" fill="#333"/><circle cx="452.5" cy="1147.5" r="47.5" fill="#333"/><circle cx="547.5" cy="1147.5" r="47.5" fill="#333"/><circle cx="452.5" cy="1252.5" r="47.5" fill="#333"/><circle cx="547.5" cy="1252.5" r="47.5" fill="#333"/><circle cx="452.5" cy="1347.5" r="47.5" fill="#333"/><circle cx="547.5" cy="1347.5" r="47.5" fill="#333"/><circle cx="452.5" cy="1452.5" r="47.5" fill="#333"/><circle cx="547.5" cy="1452.5" r="47.5" fill="#333"/><circle cx="452.5" cy="1547.5" r="47.5" fill="#333"/><circle cx="547.5" cy="1547.5" r="47.5" fill="#333"/><circle cx="652.5" cy="52.5" r="47.5" fill="#333"/><circle cx="747.5" cy="52.5" r="47.5" fill="#333"/><circle cx="652.5" cy="147.5" r="47.5" fill="#333"/><circle cx="747.5" cy="147.5" r="47.5" fill="#333"/><circle cx="652.5" cy="252.5" r="47.5" fill="#333"/><circle cx="747.5" cy="252.5" r="47.5" fill="#333"/><circle cx="652.5" cy="347.5" r="47.5" fill="#333"/><circle cx="747.5" cy="347.5" r="47.5" fill="#333"/><circle cx="652.5" cy="452.5" r="47.5" fill="#333"/><circle cx="747.5" cy="452.5" r="47.5" fill="#333"/><circle cx="652.5" cy="547.5" r="47.5" fill="#333"/><circle cx="747.5" cy="547.5" r="47.5" fill="#333"/><circle cx="652.5" cy="652.5" r="47.5" fill="#333"/><circle cx="747.5" cy="652.5" r="47.5" fill="#333"/><circle cx="652.5" cy="747.5" r="47.5" fill="#333"/><circle cx="747.5" cy="747.5" r="47.5" fill="#333"/><circle cx="652.5" cy="852.5" r="47.5" fill="#333"/><circle cx="747.5" cy="852.5" r="47.5" fill="#333"/><circle cx="652.5" cy="947.5" r="47.5" fill="#333"/><circle cx="747.5" cy="947.5" r="47.5" fill="#333"/><circle cx="652.5" cy="1052.5" r="47.5" fill="#333"/><circle cx="747.5" cy="1052.5" r="47.5" fill="#333"/><circle cx="652.5" cy="1147.5" r="47.5" fill="#333"/><circle cx="747.5" cy="1147.5" r="47.5" fill="#333"/><circle cx="652.5" cy="1252.5" r="47.5" fill="#333"/><circle cx="747.5" cy="1252.5" r="47.5" fill="#333"/><circle cx="652.5" cy="1347.5" r="47.5" fill="#333"/><circle cx="747.5" cy="1347.5" r="47.5" fill="#333"/><circle cx="652.5" cy="1452.5" r="47.5" fill="#333"/><circle cx="747.5" cy="1452.5" r="47.5" fill="#333"/><circle cx="652.5" cy="1547.5" r="47.5" fill="#333"/><circle cx="747.5" cy="1547.5" r="47.5" fill="#333"/><circle cx="852.5" cy="52.5" r="47.5" fill="#333"/><circle cx="947.5" cy="52.5" r="47.5" fill="#333"/><circle cx="852.5" cy="147.5" r="47.5" fill="#333"/><circle cx="947.5" cy="147.5" r="47.5" fill="#333"/><circle cx="852.5" cy="252.5" r="47.5" fill="#333"/><circle cx="947.5" cy="252.5" r="47.5" fill="#333"/><circle cx="852.5" cy="347.5" r="47.5" fill="#333"/><circle cx="947.5" cy="347.5" r="47.5" fill="#333"/><circle cx="852.5" cy="452.5" r="47.5" fill="#333"/><circle cx="947.5" cy="452.5" r="47.5" fill="#333"/><circle cx="852.5" cy="547.5" r="47.5" fill="#333"/><circle cx="947.5" cy="547.5" r="47.5" fill="#333"/><circle cx="852.5" cy="652.5" r="47.5" fill="#333"/><circle cx="947.5" cy="652.5" r="47.5" fill="#333"/><circle cx="852.5" cy="747.5" r="47.5" fill="#333"/><circle cx="947.5" cy="747.5" r="47.5" fill="#333"/><circle cx="852.5" cy="852.5" r="47.5" fill="#333"/><circle cx="947.5" cy="852.5" r="47.5" fill="#333"/><circle cx="852.5" cy="947.5" r="47.5" fill="#333"/><circle cx="947.5" cy="947.5" r="47.5" fill="#333"/><circle cx="852.5" cy="1052.5" r="47.5" fill="#333"/><circle cx="947.5" cy="1052.5" r="47.5" fill="#333"/><circle cx="852.5" cy="1147.5" r="47.5" fill="#333"/><circle cx="947.5" cy="1147.5" r="47.5" fill="#333"/><circle cx="852.5" cy="1252.5" r="47.5" fill="#333"/><circle cx="947.5" cy="1252.5" r="47.5" fill="#333"/><circle cx="852.5" cy="1347.5" r="47.5" fill="#333"/><circle cx="947.5" cy="1347.5" r="47.5" fill="#333"/><circle cx="852.5" cy="1452.5" r="47.5" fill="#333"/><circle cx="947.5" cy="1452.5" r="47.5" fill="#333"/><circle cx="852.5" cy="1547.5" r="47.5" fill="#333"/><circle cx="947.5" cy="1547.5" r="47.5" fill="#333"/><circle cx="1052.5" cy="52.5" r="47.5" fill="#333"/><circle cx="1147.5" cy="52.5" r="47.5" fill="#333"/><circle cx="1052.5" cy="147.5" r="47.5" fill="#333"/><circle cx="1147.5" cy="147.5" r="47.5" fill="#333"/><circle cx="1052.5" cy="252.5" r="47.5" fill="#333"/><circle cx="1147.5" cy="252.5" r="47.5" fill="#333"/><circle cx="1052.5" cy="347.5" r="47.5" fill="#333"/><circle cx="1147.5" cy="347.5" r="47.5" fill="#333"/><circle cx="1052.5" cy="452.5" r="47.5" fill="#333"/><circle cx="1147.5" cy="452.5" r="47.5" fill="#333"/><circle cx="1052.5" cy="547.5" r="47.5" fill="#333"/><circle cx="1147.5" cy="547.5" r="47.5" fill="#333"/><circle cx="1052.5" cy="652.5" r="47.5" fill="#333"/><circle cx="1147.5" cy="652.5" r="47.5" fill="#333"/><circle cx="1052.5" cy="747.5" r="47.5" fill="#333"/><circle cx="1147.5" cy="747.5" r="47.5" fill="#333"/><circle cx="1052.5" cy="852.5" r="47.5" fill="#333"/><circle cx="1147.5" cy="852.5" r="47.5" fill="#333"/><circle cx="1052.5" cy="947.5" r="47.5" fill="#333"/><circle cx="1147.5" cy="947.5" r="47.5" fill="#333"/><circle cx="1052.5" cy="1052.5" r="47.5" fill="#333"/><circle cx="1147.5" cy="1052.5" r="47.5" fill="#333"/><circle cx="1052.5" cy="1147.5" r="47.5" fill="#333"/><circle cx="1147.5" cy="1147.5" r="47.5" fill="#333"/><circle cx="1052.5" cy="1252.5" r="47.5" fill="#333"/><circle cx="1147.5" cy="1252.5" r="47.5" fill="#333"/><circle cx="1052.5" cy="1347.5" r="47.5" fill="#333"/><circle cx="1147.5" cy="1347.5" r="47.5" fill="#333"/><circle cx="1052.5" cy="1452.5" r="47.5" fill="#333"/><circle cx="1147.5" cy="1452.5" r="47.5" fill="#333"/><circle cx="1052.5" cy="1547.5" r="47.5" fill="#333"/><circle cx="1147.5" cy="1547.5" r="47.5" fill="#333"/><circle cx="1252.5" cy="52.5" r="47.5" fill="#333"/><circle cx="1347.5" cy="52.5" r="47.5" fill="#333"/><circle cx="1252.5" cy="147.5" r="47.5" fill="#333"/><circle cx="1347.5" cy="147.5" r="47.5" fill="#333"/><circle cx="1252.5" cy="252.5" r="47.5" fill="#333"/><circle cx="1347.5" cy="252.5" r="47.5" fill="#333"/><circle cx="1252.5" cy="347.5" r="47.5" fill="#333"/><circle cx="1347.5" cy="347.5" r="47.5" fill="#333"/><circle cx="1252.5" cy="452.5" r="47.5" fill="#333"/><circle cx="1347.5" cy="452.5" r="47.5" fill="#333"/><circle cx="1252.5" cy="547.5" r="47.5" fill="#333"/><circle cx="1347.5" cy="547.5" r="47.5" fill="#333"/><circle cx="1252.5" cy="652.5" r="47.5" fill="#333"/><circle cx="1347.5" cy="652.5" r="47.5" fill="#333"/><circle cx="1252.5" cy="747.5" r="47.5" fill="#333"/><circle cx="1347.5" cy="747.5" r="47.5" fill="#333"/><circle cx="1252.5" cy="852.5" r="47.5" fill="#333"/><circle cx="1347.5" cy="852.5" r="47.5" fill="#333"/><circle cx="1252.5" cy="947.5" r="47.5" fill="#333"/><circle cx="1347.5" cy="947.5" r="47.5" fill="#333"/><circle cx="1252.5" cy="1052.5" r="47.5" fill="#333"/><circle cx="1347.5" cy="1052.5" r="47.5" fill="#333"/><circle cx="1252.5" cy="1147.5" r="47.5" fill="#333"/><circle cx="1347.5" cy="1147.5" r="47.5" fill="#333"/><circle cx="1252.5" cy="1252.5" r="47.5" fill="#333"/><circle cx="1347.5" cy="1252.5" r="47.5" fill="#333"/><circle cx="1252.5" cy="1347.5" r="47.5" fill="#333"/><circle cx="1347.5" cy="1347.5" r="47.5" fill="#333"/><circle cx="1252.5" cy="1452.5" r="47.5" fill="#333"/><circle cx="1347.5" cy="1452.5" r="47.5" fill="#333"/><circle cx="1252.5" cy="1547.5" r="47.5" fill="#333"/><circle cx="1347.5" cy="1547.5" r="47.5" fill="#333"/><circle cx="1452.5" cy="52.5" r="47.5" fill="#333"/><circle cx="1547.5" cy="52.5" r="47.5" fill="#333"/><circle cx="1452.5" cy="147.5" r="47.5" fill="#333"/><circle cx="1547.5" cy="147.5" r="47.5" fill="#333"/><circle cx="1452.5" cy="252.5" r="47.5" fill="#333"/><circle cx="1547.5" cy="252.5" r="47.5" fill="#333"/><circle cx="1452.5" cy="347.5" r="47.5" fill="#333"/><circle cx="1547.5" cy="347.5" r="47.5" fill="#333"/><circle cx="1452.5" cy="452.5" r="47.5" fill="#333"/><circle cx="1547.5" cy="452.5" r="47.5" fill="#333"/><circle cx="1452.5" cy="547.5" r="47.5" fill="#333"/><circle cx="1547.5" cy="547.5" r="47.5" fill="#333"/><circle cx="1452.5" cy="652.5" r="47.5" fill="#333"/><circle cx="1547.5" cy="652.5" r="47.5" fill="#333"/><circle cx="1452.5" cy="747.5" r="47.5" fill="#333"/><circle cx="1547.5" cy="747.5" r="47.5" fill="#333"/><circle cx="1452.5" cy="852.5" r="47.5" fill="#333"/><circle cx="1547.5" cy="852.5" r="47.5" fill="#333"/><circle cx="1452.5" cy="947.5" r="47.5" fill="#333"/><circle cx="1547.5" cy="947.5" r="47.5" fill="#333"/><circle cx="1452.5" cy="1052.5" r="47.5" fill="#333"/><circle cx="1547.5" cy="1052.5" r="47.5" fill="#333"/><circle cx="1452.5" cy="1147.5" r="47.5" fill="#333"/><circle cx="1547.5" cy="1147.5" r="47.5" fill="#333"/><circle cx="1452.5" cy="1252.5" r="47.5" fill="#333"/><circle cx="1547.5" cy="1252.5" r="47.5" fill="#333"/><circle cx="1452.5" cy="1347.5" r="47.5" fill="#333"/><circle cx="1547.5" cy="1347.5" r="47.5" fill="#333"/><circle cx="1452.5" cy="1452.5" r="47.5" fill="#333"/><circle cx="1547.5" cy="1452.5" r="47.5" fill="#333"/><circle cx="1452.5" cy="1547.5" r="47.5" fill="#333"/><circle cx="1547.5" cy="1547.5" r="47.5" fill="#333"/></svg>