<svg fill="none" viewBox="0 0 1600 1600"><path d="M195 185V29.142c0-8.909-10.771-13.37-17.071-7.07L22.071 177.928c-6.3 6.3-1.838 17.071 7.071 17.071H185c5.523 0 10-4.477 10-10z" fill="#333"/><path d="M195 385V229.142c0-8.909-10.771-13.371-17.071-7.071L22.071 377.929c-6.3 6.3-1.838 17.071 7.071 17.071H185c5.523 0 10-4.477 10-10z" fill="#333"/><path d="M195 585V429.142c0-8.909-10.771-13.371-17.071-7.071L22.071 577.929c-6.3 6.3-1.838 17.071 7.071 17.071H185c5.523 0 10-4.477 10-10z" fill="#333"/><path d="M195 785V629.142c0-8.909-10.771-13.371-17.071-7.071L22.071 777.929c-6.3 6.3-1.838 17.071 7.071 17.071H185c5.523 0 10-4.477 10-10z" fill="#333"/><path d="M195 985V829.142c0-8.909-10.771-13.371-17.071-7.071L22.071 977.929c-6.3 6.3-1.838 17.071 7.071 17.071H185c5.523 0 10-4.477 10-10z" fill="#333"/><path d="M195 1185v-155.86c0-8.91-10.771-13.37-17.071-7.07L22.071 1177.93c-6.3 6.3-1.838 17.07 7.071 17.07H185c5.523 0 10-4.48 10-10z" fill="#333"/><path d="M195 1385v-155.86c0-8.91-10.771-13.37-17.071-7.07L22.071 1377.93c-6.3 6.3-1.838 17.07 7.071 17.07H185c5.523 0 10-4.48 10-10z" fill="#333"/><path d="M195 1585v-155.86c0-8.91-10.771-13.37-17.071-7.07L22.071 1577.93c-6.3 6.3-1.838 17.07 7.071 17.07H185c5.523 0 10-4.48 10-10z" fill="#333"/><path d="M395 185V29.142c0-8.909-10.771-13.37-17.071-7.07L222.071 177.928c-6.3 6.3-1.838 17.071 7.071 17.071H385c5.523 0 10-4.477 10-10z" fill="#333"/><path d="M395 385V229.142c0-8.909-10.771-13.371-17.071-7.071L222.071 377.929c-6.3 6.3-1.838 17.071 7.071 17.071H385c5.523 0 10-4.477 10-10z" fill="#333"/><path d="M395 585V429.142c0-8.909-10.771-13.371-17.071-7.071L222.071 577.929c-6.3 6.3-1.838 17.071 7.071 17.071H385c5.523 0 10-4.477 10-10z" fill="#333"/><path d="M395 785V629.142c0-8.909-10.771-13.371-17.071-7.071L222.071 777.929c-6.3 6.3-1.838 17.071 7.071 17.071H385c5.523 0 10-4.477 10-10z" fill="#333"/><path d="M395 985V829.142c0-8.909-10.771-13.371-17.071-7.071L222.071 977.929c-6.3 6.3-1.838 17.071 7.071 17.071H385c5.523 0 10-4.477 10-10z" fill="#333"/><path d="M395 1185v-155.86c0-8.91-10.771-13.37-17.071-7.07l-155.858 155.86c-6.3 6.3-1.838 17.07 7.071 17.07H385c5.523 0 10-4.48 10-10z" fill="#333"/><path d="M395 1385v-155.86c0-8.91-10.771-13.37-17.071-7.07l-155.858 155.86c-6.3 6.3-1.838 17.07 7.071 17.07H385c5.523 0 10-4.48 10-10z" fill="#333"/><path d="M395 1585v-155.86c0-8.91-10.771-13.37-17.071-7.07l-155.858 155.86c-6.3 6.3-1.838 17.07 7.071 17.07H385c5.523 0 10-4.48 10-10z" fill="#333"/><path d="M595 185V29.142c0-8.909-10.771-13.37-17.071-7.07L422.071 177.928c-6.3 6.3-1.838 17.071 7.071 17.071H585c5.523 0 10-4.477 10-10z" fill="#333"/><path d="M595 385V229.142c0-8.909-10.771-13.371-17.071-7.071L422.071 377.929c-6.3 6.3-1.838 17.071 7.071 17.071H585c5.523 0 10-4.477 10-10z" fill="#333"/><path d="M595 585V429.142c0-8.909-10.771-13.371-17.071-7.071L422.071 577.929c-6.3 6.3-1.838 17.071 7.071 17.071H585c5.523 0 10-4.477 10-10z" fill="#333"/><path d="M595 785V629.142c0-8.909-10.771-13.371-17.071-7.071L422.071 777.929c-6.3 6.3-1.838 17.071 7.071 17.071H585c5.523 0 10-4.477 10-10z" fill="#333"/><path d="M595 985V829.142c0-8.909-10.771-13.371-17.071-7.071L422.071 977.929c-6.3 6.3-1.838 17.071 7.071 17.071H585c5.523 0 10-4.477 10-10z" fill="#333"/><path d="M595 1185v-155.86c0-8.91-10.771-13.37-17.071-7.07l-155.858 155.86c-6.3 6.3-1.838 17.07 7.071 17.07H585c5.523 0 10-4.48 10-10z" fill="#333"/><path d="M595 1385v-155.86c0-8.91-10.771-13.37-17.071-7.07l-155.858 155.86c-6.3 6.3-1.838 17.07 7.071 17.07H585c5.523 0 10-4.48 10-10z" fill="#333"/><path d="M595 1585v-155.86c0-8.91-10.771-13.37-17.071-7.07l-155.858 155.86c-6.3 6.3-1.838 17.07 7.071 17.07H585c5.523 0 10-4.48 10-10z" fill="#333"/><path d="M795 185V29.142c0-8.909-10.771-13.37-17.071-7.07L622.071 177.928c-6.3 6.3-1.838 17.071 7.071 17.071H785c5.523 0 10-4.477 10-10z" fill="#333"/><path d="M795 385V229.142c0-8.909-10.771-13.371-17.071-7.071L622.071 377.929c-6.3 6.3-1.838 17.071 7.071 17.071H785c5.523 0 10-4.477 10-10z" fill="#333"/><path d="M795 585V429.142c0-8.909-10.771-13.371-17.071-7.071L622.071 577.929c-6.3 6.3-1.838 17.071 7.071 17.071H785c5.523 0 10-4.477 10-10z" fill="#333"/><path d="M795 785V629.142c0-8.909-10.771-13.371-17.071-7.071L622.071 777.929c-6.3 6.3-1.838 17.071 7.071 17.071H785c5.523 0 10-4.477 10-10z" fill="#333"/><path d="M795 985V829.142c0-8.909-10.771-13.371-17.071-7.071L622.071 977.929c-6.3 6.3-1.838 17.071 7.071 17.071H785c5.523 0 10-4.477 10-10z" fill="#333"/><path d="M795 1185v-155.86c0-8.91-10.771-13.37-17.071-7.07l-155.858 155.86c-6.3 6.3-1.838 17.07 7.071 17.07H785c5.523 0 10-4.48 10-10z" fill="#333"/><path d="M795 1385v-155.86c0-8.91-10.771-13.37-17.071-7.07l-155.858 155.86c-6.3 6.3-1.838 17.07 7.071 17.07H785c5.523 0 10-4.48 10-10z" fill="#333"/><path d="M795 1585v-155.86c0-8.91-10.771-13.37-17.071-7.07l-155.858 155.86c-6.3 6.3-1.838 17.07 7.071 17.07H785c5.523 0 10-4.48 10-10z" fill="#333"/><path d="M995 185V29.142c0-8.909-10.771-13.37-17.071-7.07L822.071 177.928c-6.3 6.3-1.838 17.071 7.071 17.071H985c5.523 0 10-4.477 10-10z" fill="#333"/><path d="M995 385V229.142c0-8.909-10.771-13.371-17.071-7.071L822.071 377.929c-6.3 6.3-1.838 17.071 7.071 17.071H985c5.523 0 10-4.477 10-10z" fill="#333"/><path d="M995 585V429.142c0-8.909-10.771-13.371-17.071-7.071L822.071 577.929c-6.3 6.3-1.838 17.071 7.071 17.071H985c5.523 0 10-4.477 10-10z" fill="#333"/><path d="M995 785V629.142c0-8.909-10.771-13.371-17.071-7.071L822.071 777.929c-6.3 6.3-1.838 17.071 7.071 17.071H985c5.523 0 10-4.477 10-10z" fill="#333"/><path d="M995 985V829.142c0-8.909-10.771-13.371-17.071-7.071L822.071 977.929c-6.3 6.3-1.838 17.071 7.071 17.071H985c5.523 0 10-4.477 10-10z" fill="#333"/><path d="M995 1185v-155.86c0-8.91-10.771-13.37-17.071-7.07l-155.858 155.86c-6.3 6.3-1.838 17.07 7.071 17.07H985c5.523 0 10-4.48 10-10z" fill="#333"/><path d="M995 1385v-155.86c0-8.91-10.771-13.37-17.071-7.07l-155.858 155.86c-6.3 6.3-1.838 17.07 7.071 17.07H985c5.523 0 10-4.48 10-10z" fill="#333"/><path d="M995 1585v-155.86c0-8.91-10.771-13.37-17.071-7.07l-155.858 155.86c-6.3 6.3-1.838 17.07 7.071 17.07H985c5.523 0 10-4.48 10-10z" fill="#333"/><path d="M1195 185V29.142c0-8.909-10.77-13.37-17.07-7.07l-155.86 155.857c-6.3 6.3-1.84 17.071 7.07 17.071H1185c5.52 0 10-4.477 10-10z" fill="#333"/><path d="M1195 385V229.142c0-8.909-10.77-13.371-17.07-7.071l-155.86 155.858c-6.3 6.3-1.84 17.071 7.07 17.071H1185c5.52 0 10-4.477 10-10z" fill="#333"/><path d="M1195 585V429.142c0-8.909-10.77-13.371-17.07-7.071l-155.86 155.858c-6.3 6.3-1.84 17.071 7.07 17.071H1185c5.52 0 10-4.477 10-10z" fill="#333"/><path d="M1195 785V629.142c0-8.909-10.77-13.371-17.07-7.071l-155.86 155.858c-6.3 6.3-1.84 17.071 7.07 17.071H1185c5.52 0 10-4.477 10-10z" fill="#333"/><path d="M1195 985V829.142c0-8.909-10.77-13.371-17.07-7.071l-155.86 155.858c-6.3 6.3-1.84 17.071 7.07 17.071H1185c5.52 0 10-4.477 10-10z" fill="#333"/><path d="M1195 1185v-155.86c0-8.91-10.77-13.37-17.07-7.07l-155.86 155.86c-6.3 6.3-1.84 17.07 7.07 17.07H1185c5.52 0 10-4.48 10-10z" fill="#333"/><path d="M1195 1385v-155.86c0-8.91-10.77-13.37-17.07-7.07l-155.86 155.86c-6.3 6.3-1.84 17.07 7.07 17.07H1185c5.52 0 10-4.48 10-10z" fill="#333"/><path d="M1195 1585v-155.86c0-8.91-10.77-13.37-17.07-7.07l-155.86 155.86c-6.3 6.3-1.84 17.07 7.07 17.07H1185c5.52 0 10-4.48 10-10z" fill="#333"/><path d="M1395 185V29.142c0-8.909-10.77-13.37-17.07-7.07l-155.86 155.857c-6.3 6.3-1.84 17.071 7.07 17.071H1385c5.52 0 10-4.477 10-10z" fill="#333"/><path d="M1395 385V229.142c0-8.909-10.77-13.371-17.07-7.071l-155.86 155.858c-6.3 6.3-1.84 17.071 7.07 17.071H1385c5.52 0 10-4.477 10-10z" fill="#333"/><path d="M1395 585V429.142c0-8.909-10.77-13.371-17.07-7.071l-155.86 155.858c-6.3 6.3-1.84 17.071 7.07 17.071H1385c5.52 0 10-4.477 10-10z" fill="#333"/><path d="M1395 785V629.142c0-8.909-10.77-13.371-17.07-7.071l-155.86 155.858c-6.3 6.3-1.84 17.071 7.07 17.071H1385c5.52 0 10-4.477 10-10z" fill="#333"/><path d="M1395 985V829.142c0-8.909-10.77-13.371-17.07-7.071l-155.86 155.858c-6.3 6.3-1.84 17.071 7.07 17.071H1385c5.52 0 10-4.477 10-10z" fill="#333"/><path d="M1395 1185v-155.86c0-8.91-10.77-13.37-17.07-7.07l-155.86 155.86c-6.3 6.3-1.84 17.07 7.07 17.07H1385c5.52 0 10-4.48 10-10z" fill="#333"/><path d="M1395 1385v-155.86c0-8.91-10.77-13.37-17.07-7.07l-155.86 155.86c-6.3 6.3-1.84 17.07 7.07 17.07H1385c5.52 0 10-4.48 10-10z" fill="#333"/><path d="M1395 1585v-155.86c0-8.91-10.77-13.37-17.07-7.07l-155.86 155.86c-6.3 6.3-1.84 17.07 7.07 17.07H1385c5.52 0 10-4.48 10-10z" fill="#333"/><path d="M1595 185V29.142c0-8.909-10.77-13.37-17.07-7.07l-155.86 155.857c-6.3 6.3-1.84 17.071 7.07 17.071H1585c5.52 0 10-4.477 10-10z" fill="#333"/><path d="M1595 385V229.142c0-8.909-10.77-13.371-17.07-7.071l-155.86 155.858c-6.3 6.3-1.84 17.071 7.07 17.071H1585c5.52 0 10-4.477 10-10z" fill="#333"/><path d="M1595 585V429.142c0-8.909-10.77-13.371-17.07-7.071l-155.86 155.858c-6.3 6.3-1.84 17.071 7.07 17.071H1585c5.52 0 10-4.477 10-10z" fill="#333"/><path d="M1595 785V629.142c0-8.909-10.77-13.371-17.07-7.071l-155.86 155.858c-6.3 6.3-1.84 17.071 7.07 17.071H1585c5.52 0 10-4.477 10-10z" fill="#333"/><path d="M1595 985V829.142c0-8.909-10.77-13.371-17.07-7.071l-155.86 155.858c-6.3 6.3-1.84 17.071 7.07 17.071H1585c5.52 0 10-4.477 10-10z" fill="#333"/><path d="M1595 1185v-155.86c0-8.91-10.77-13.37-17.07-7.07l-155.86 155.86c-6.3 6.3-1.84 17.07 7.07 17.07H1585c5.52 0 10-4.48 10-10z" fill="#333"/><path d="M1595 1385v-155.86c0-8.91-10.77-13.37-17.07-7.07l-155.86 155.86c-6.3 6.3-1.84 17.07 7.07 17.07H1585c5.52 0 10-4.48 10-10z" fill="#333"/><path d="M1595 1585v-155.86c0-8.91-10.77-13.37-17.07-7.07l-155.86 155.86c-6.3 6.3-1.84 17.07 7.07 17.07H1585c5.52 0 10-4.48 10-10z" fill="#333"/></svg>