<svg fill="none" viewBox="0 0 1600 1600"><circle cx="100" cy="100" r="95" fill="#333"/><circle cx="100" cy="300" r="95" fill="#333"/><circle cx="100" cy="500" r="95" fill="#333"/><circle cx="100" cy="700" r="95" fill="#333"/><circle cx="100" cy="900" r="95" fill="#333"/><circle cx="100" cy="1100" r="95" fill="#333"/><circle cx="100" cy="1300" r="95" fill="#333"/><circle cx="100" cy="1500" r="95" fill="#333"/><circle cx="300" cy="100" r="95" fill="#333"/><circle cx="300" cy="300" r="95" fill="#333"/><circle cx="300" cy="500" r="95" fill="#333"/><circle cx="300" cy="700" r="95" fill="#333"/><circle cx="300" cy="900" r="95" fill="#333"/><circle cx="300" cy="1100" r="95" fill="#333"/><circle cx="300" cy="1300" r="95" fill="#333"/><circle cx="300" cy="1500" r="95" fill="#333"/><circle cx="500" cy="100" r="95" fill="#333"/><circle cx="500" cy="300" r="95" fill="#333"/><circle cx="500" cy="500" r="95" fill="#333"/><circle cx="500" cy="700" r="95" fill="#333"/><circle cx="500" cy="900" r="95" fill="#333"/><circle cx="500" cy="1100" r="95" fill="#333"/><circle cx="500" cy="1300" r="95" fill="#333"/><circle cx="500" cy="1500" r="95" fill="#333"/><circle cx="700" cy="100" r="95" fill="#333"/><circle cx="700" cy="300" r="95" fill="#333"/><circle cx="700" cy="500" r="95" fill="#333"/><circle cx="700" cy="700" r="95" fill="#333"/><circle cx="700" cy="900" r="95" fill="#333"/><circle cx="700" cy="1100" r="95" fill="#333"/><circle cx="700" cy="1300" r="95" fill="#333"/><circle cx="700" cy="1500" r="95" fill="#333"/><circle cx="900" cy="100" r="95" fill="#333"/><circle cx="900" cy="300" r="95" fill="#333"/><circle cx="900" cy="500" r="95" fill="#333"/><circle cx="900" cy="700" r="95" fill="#333"/><circle cx="900" cy="900" r="95" fill="#333"/><circle cx="900" cy="1100" r="95" fill="#333"/><circle cx="900" cy="1300" r="95" fill="#333"/><circle cx="900" cy="1500" r="95" fill="#333"/><circle cx="1100" cy="100" r="95" fill="#333"/><circle cx="1100" cy="300" r="95" fill="#333"/><circle cx="1100" cy="500" r="95" fill="#333"/><circle cx="1100" cy="700" r="95" fill="#333"/><circle cx="1100" cy="900" r="95" fill="#333"/><circle cx="1100" cy="1100" r="95" fill="#333"/><circle cx="1100" cy="1300" r="95" fill="#333"/><circle cx="1100" cy="1500" r="95" fill="#333"/><circle cx="1300" cy="100" r="95" fill="#333"/><circle cx="1300" cy="300" r="95" fill="#333"/><circle cx="1300" cy="500" r="95" fill="#333"/><circle cx="1300" cy="700" r="95" fill="#333"/><circle cx="1300" cy="900" r="95" fill="#333"/><circle cx="1300" cy="1100" r="95" fill="#333"/><circle cx="1300" cy="1300" r="95" fill="#333"/><circle cx="1300" cy="1500" r="95" fill="#333"/><circle cx="1500" cy="100" r="95" fill="#333"/><circle cx="1500" cy="300" r="95" fill="#333"/><circle cx="1500" cy="500" r="95" fill="#333"/><circle cx="1500" cy="700" r="95" fill="#333"/><circle cx="1500" cy="900" r="95" fill="#333"/><circle cx="1500" cy="1100" r="95" fill="#333"/><circle cx="1500" cy="1300" r="95" fill="#333"/><circle cx="1500" cy="1500" r="95" fill="#333"/></svg>