<svg xmlns="http://www.w3.org/2000/svg" xmlns:xlink="http://www.w3.org/1999/xlink" data-ember-extension="1" viewBox="0 0 242 239"><defs><path id="a" d="M14.885 29.116a3.002 3.002 0 0 1 .002-4.243l9.932-9.933a3.002 3.002 0 0 1 4.243-.002l12.772 12.773a3.002 3.002 0 0 1-.002 4.242L31.9 41.886a3.002 3.002 0 0 1-4.243.002L14.885 29.116z"/><mask id="b" width="28.703" height="28.704" x="0" y="0" fill="#fff"><use xlink:href="#a"/></mask></defs><g fill="none" fill-rule="evenodd" transform="translate(2 2)"><use stroke="#FFF" stroke-width="8" mask="url(#b)" xlink:href="#a"/><path stroke="#FFF" stroke-width="4" stroke-linecap="round" stroke-linejoin="round" d="m41.681 11.005 43.02 13.94-14.54 14.541zM11.221 42.465l13.94 43.021 14.54-14.541z"/><path stroke="#FFF" stroke-width="4" d="M45.594 14.876C24.15-4.797 4.162 1.164 4.162 1.164c-1.079.233-2.19 1.295-2.432 2.365 0 0-6.79 20.884 12.883 42.328l29.342 29.342 31.19-31.19-29.551-29.133z" stroke-linecap="round" stroke-linejoin="round"/><path stroke="#FFF" stroke-width="4" d="m54.898 66.104 3.114 11.62-3.114-11.62zM52 68l6.012 9.724L52 68zm14.949-12.53 11.62 3.114-11.62-3.113zM68 53l10.569 5.584L68 53z" stroke-linecap="round"/><g fill="#FFF" stroke="#FFF"><path d="M216.078 217.76c-2.985 2.985-2.972 7.99.112 11.075 2.725 2.725 6.314 2.288 9.782-1.18 3.469-3.469 3.906-7.057 1.18-9.782-3.084-3.085-8.089-3.097-11.074-.112zm8.46 8.461c-2.706 2.707-5.098 3.09-6.96 1.227-2.293-2.293-2.357-5.963-.066-8.254 2.29-2.29 5.956-2.23 8.253.066 1.863 1.863 1.48 4.255-1.226 6.961z"/><path d="m162.48 182.472.209-.209 16.487 16.487c-.842.126-1.753.602-2.378 1.228l-.35.35c-1.804 1.803-1.686 4.696.106 6.488l14.982 14.981c2.867 2.868 6.636 4.692 10.521 5.109l8.314 8.314c1.576 1.576 4.117 1.618 5.642.092l1.178-1.177c4.335 1.834 9.397 1.072 12.865-2.396 3.4-3.4 4.23-8.53 2.396-12.866l.763-.762 3.225 3.226c.43.43.996.438 1.41.023.416-.415.408-.98-.022-1.41l-3.367-3.368c.75-1.467.51-3.378-.782-4.67l-8.385-8.385-.142-.141c-.554-3.747-2.237-7.367-5.104-10.234l-14.979-14.98c-1.863-1.862-4.752-1.84-6.486-.106l-.347.347c-.694.694-1.102 1.536-1.228 2.378l-16.424-16.424.347-.346c2.565-2.565 2.496-6.797-.084-9.377-1.146-1.146-2.912-1.106-4.022.004l-10.542 10.543c-.415.415-.406.981.023 1.41l16.558 16.558a.897.897 0 0 1 .02 1.271.897.897 0 0 1-1.27-.02l-16.63-16.63c-.428-.428-.993-.438-1.41-.022L153.032 178.3c-1.11 1.11-1.08 2.947-.004 4.022 2.65 2.65 6.882 2.72 9.452.15zm15.466 22.96c-1.076-1.075-1.034-2.694-.061-3.666l.346-.347c1.041-1.04 2.662-.944 3.667.06l.5.5-4.025 4.025-.5-.5.073-.072zm17.553 16.996 2.15-2.15 1.433 1.434-1.734 1.735c-.64-.22-1.281-.587-1.85-1.019zm19.08 11.45c-.762.764-2.032.743-2.82-.046l-6.81-6.81c1.83-.111 3.588-.435 5.34-1.04.53 2.055 1.546 4.048 3.123 5.624a10.117 10.117 0 0 0 1.93 1.51l-.762.763zm14.044-3.573c-3.747 3.747-9.885 3.716-13.752-.151-3.872-3.872-3.899-10.006-.152-13.752 3.747-3.747 9.885-3.716 13.753.152 3.87 3.87 3.898 10.004.15 13.751zm3.715-14.184-.904.903a10.387 10.387 0 0 0-1.51-1.93c-1.576-1.576-3.57-2.6-5.624-3.122.677-1.825.998-3.722 1.109-5.692l6.95 6.951c.725.86.74 2.128-.021 2.89zm-32.605-36.21.346-.348c1.041-1.04 2.662-.943 3.667.061l.5.5-4.025 4.025-.5-.5c-.997-1.005-1.029-2.698.012-3.739zm-45.268-.177 9.85-9.849 3.942 3.943-1.524 1.524c-.416.415-.406.981.023 1.41.429.43.995.439 1.41.024l1.456-1.456 10.536 10.535c1.146 1.147 2.983 1.176 4.092.067 1.109-1.109 1.08-2.945-.067-4.092l-10.536-10.536 1.456-1.455c.416-.416.406-.982-.023-1.41-.429-.43-.995-.44-1.41-.024l-1.388 1.387-3.942-3.942 9.848-9.849c.347-.347.913-.338 1.201-.05 1.863 1.863 1.84 4.752.038 6.555-1.25 1.25-2.929 1.927-4.765 1.898-.28-.005-.564.13-.701.267-.21.21-.276.418-.268.702.01.565.44.994 1.005 1.004 1.481.094 2.888-.306 4.14-.99l33.404 33.403c.43.429.995.438 1.41.023.416-.415.407-.982-.023-1.41l-11.898-11.9 4.024-4.024 13.045 13.045c4.518 4.518 5.896 11.307 3.524 17.122-3.247-.196-6.475.882-8.903 3.31-2.428 2.428-3.503 5.653-3.31 8.902-3.432 1.424-7.167 1.433-10.569.393l1.803-1.803c.415-.415.406-.981-.023-1.41l-2.868-2.867c-.429-.43-.995-.439-1.41-.024l-3.053 3.054c-.288-.288-.644-.507-.927-.79l-13.046-13.046 4.026-4.025 11.894 11.895c.43.43.995.44 1.411.023.415-.415.407-.98-.023-1.41l-33.403-33.404c.752-1.328 1.085-2.802 1.055-4.355a1.002 1.002 0 0 0-1.004-1.005c-.28-.005-.495.06-.7.267-.21.21-.276.419-.268.7.03 1.837-.579 3.447-1.898 4.766-1.802 1.803-4.763 1.754-6.555-.038-.425-.142-.434-.708-.088-1.055z"/></g><path fill="#FFF" stroke="#FFF" d="M238.055 135.923c.359-1.688.586-3.092.572-4.348-.013-1.256-.292-2.407-.987-3.349-1.39-1.884-3.886-2.63-7.839-3.47l-38.858-8.26c-.335-1.425-1.321-1.515-2.156-1.711-.626-.133-1.318.32-1.45.945l-7.147 33.618c-.133.63.316 1.32.942 1.454.875.203 1.82.29 2.647-.691l23.382 4.97c-.09.518-.195 1.04-.353 1.475-.156.579-.406.685-.752.78-2.768-1.19-4.675-1.914-6.354-2.271-3.405-.649-8.725.043-9.66 3.908-.5 2.306.31 4.36 2.945 5.627 8.67 2.944 12.88 2.83 19.692 2.754 2.43.024 5.024-1.147 7.253-2.32a47.182 47.182 0 0 0 4.324-2.611c.481-.223.756-.689.945-1.134.06-.602-.393-1.214-.988-1.327-.413-.077-.696.07-1.026.235-1.413.946-3.032 1.947-4.397 2.673-.737.386-1.521.75-2.297 1.06.465-2.293-1.015-4.567-3.302-5.053-2.298-.489-4.59 1.007-5.08 3.311a4.265 4.265 0 0 0 .333 2.758c-7.298.141-9.468-.447-14.399-2.57-1.243-.752-1.86-1.788-1.612-2.892 1.438-2.324 4.297-2.521 6.758-2.014 2.227.655 4.432 1.511 6.313 2.282 1.836.199 3.02-.774 3.606-2.352.226-.619.365-1.26.462-1.803l13.083 2.78c3.953.84 6.536 1.175 8.572.019 1.018-.578 1.741-1.515 2.264-2.658.523-1.142.887-2.517 1.246-4.205l3.318-15.61zm-5.71 15.098c-.343 1.614-.668 2.837-1.055 3.677-.387.842-.776 1.277-1.268 1.553-.98.557-3.027.533-6.855-.28-12.97-2.768-25.9-5.506-38.877-8.264-.46-.098-.9-.01-1.272.1l6.273-29.51c.3.256.673.496 1.143.595l38.858 8.26c3.829.814 5.708 1.623 6.378 2.53.336.453.515 1.009.526 1.936.011.927-.189 2.174-.532 3.787l-3.319 15.616zm.41-19.48c.069-.601-.373-1.22-.966-1.342l-13.158-2.797c-.626-.133-1.318.32-1.451.945l-4.594 21.613c-.134.63.315 1.32.941 1.454l13.158 2.797c.627.133 1.318-.32 1.452-.945l4.617-21.725zm-2.673.806L226 151.557l-10.766-2.288 4.084-19.21 10.765 2.288zm-15.989 31.11a1.824 1.824 0 0 1-1.813 1.457c-1.152-.173-1.936-1.342-1.776-2.22a1.818 1.818 0 0 1 2.177-1.419 1.818 1.818 0 0 1 1.412 2.182z"/><g fill="#FFF"><path stroke="#FFF" d="m177.82 203.042-4.31 10.153c-.1.236-.368.54-.704.676l-1.683.678c-.169.068-.219.186-.15.355l.68 1.682a1.239 1.239 0 0 1-.702 1.653l-2.979 1.104a1.242 1.242 0 0 1-1.654-.703l-.681-1.682c-.068-.168-.186-.218-.355-.15l-1.682.679c-.219.186-.624.153-.86.053l-14.89-6.32c-.591-.252-.932-1.093-.681-1.683l7.016-16.528c.3-.709 1.092-.93 1.683-.68l21.272 9.03c.709.301.981.974.68 1.683zm-19.234-4.96a1.242 1.242 0 0 0-1.654-.703c-.337.136-1.11.644-.702 1.653l.477 1.178-2.606 6.139-1.178.475c-.892.458-.838 1.317-.702 1.653.273.673.982.974 1.655.702l1.178-.475 6.145 2.609.477 1.177c.272.673.981.974 1.654.702.673-.271.974-.98.702-1.652l-.477-1.178 2.606-6.139 1.178-.475c.673-.272.974-.98.702-1.653a1.242 1.242 0 0 0-1.655-.702l-1.178.475-6.027-2.558-.595-1.228zm12.073 5.403-2.506 5.903c-.4.944.076 2.122 1.021 2.523.946.401 2.124-.074 2.524-1.018l2.506-5.903c.401-.945-.075-2.122-1.02-2.524-.946-.4-2.124.074-2.525 1.019z"/><path d="m163.196 204.636-1.403 3.306c-.15.354-.655.558-1.01.407l-3.309-1.404c-.354-.15-.558-.655-.408-1.01l1.403-3.305c.15-.354.655-.558 1.01-.408l3.309 1.405c.354.15.559.655.408 1.01z"/></g><g fill="#FFF"><path d="M115.5 189.318c-39.603 0-71.818-32.223-71.818-71.818S75.897 45.682 115.5 45.682c39.595 0 71.818 32.223 71.818 71.818s-32.223 71.818-71.818 71.818zm0-139.282c-37.2 0-67.464 30.264-67.464 67.464S78.3 184.964 115.5 184.964s67.464-30.264 67.464-67.464S152.7 50.036 115.5 50.036z"/><path d="M121.09 99.042c-6.14 0-12.362-2.701-15.843-6.882-2.466-2.954-3.425-6.37-2.78-9.877 1.89-10.267-10.874-22.961-15.962-26.993a2.195 2.195 0 0 1-.81-1.994c.094-.764.59-1.409 1.29-1.715 19.238-8.324 41.359-7.804 60.353 1.614.59.299 1.016.849 1.157 1.496a2.195 2.195 0 0 1-.448 1.843c-2.796 3.4-4.584 10.315-7.301 20.772-.645 2.49-1.339 5.191-2.125 8.112-2.26 8.536-8.828 13.624-17.53 13.624zM91.97 54.274c5.457 5.04 16.924 17.19 14.78 28.798-.511 2.772.718 4.953 1.843 6.3 2.686 3.227 7.592 5.316 12.497 5.316 3.175 0 10.83-1.008 13.342-10.397a856.11 856.11 0 0 0 2.117-8.072c2.49-9.551 4.142-15.93 6.608-20.19-16.214-7.34-34.729-7.906-51.187-1.755z"/><path d="M118.201 134.14h-.008c-16.789 0-35.484-10.757-36.428-28.129-1.3-24.066-16.263-28.933-20.82-29.846-.152-.032-.505-.117-.648-.181a2.151 2.151 0 0 1-1.235-1.472 2.166 2.166 0 0 1 .409-1.875C73.205 55.51 93.623 45.698 115.5 45.698c21.994 0 42.492 9.922 56.235 27.223.605.764.629 1.843.054 2.637-1.48 2.024-2.71 3.466-3.866 4.82-3.9 4.568-6.717 7.867-15.578 30.318-5.882 14.892-18.33 23.444-34.144 23.444zM65.023 72.786c6.937 2.317 19.837 9.82 21.089 32.99.78 14.363 17.214 24.01 32.073 24.01h.008c13.939 0 24.907-7.544 30.098-20.705 9.127-23.12 12.292-26.836 16.301-31.545a83.76 83.76 0 0 0 2.661-3.23c-12.884-15.45-31.656-24.27-51.753-24.27-19.436 0-37.642 8.254-50.477 22.75zm22.931 110.847c-.292 0-.583-.056-.859-.181-26.372-11.364-43.413-37.257-43.413-65.952a71.823 71.823 0 0 1 3.205-21.27c.347-1.103 1.496-1.732 2.615-1.472.282.07 28.67 8.11 27.915 40.208-.307 12.773 3.985 19.631 7.773 25.687 3.796 6.064 7.379 11.79 4.875 21.357a2.171 2.171 0 0 1-1.151 1.41 2.25 2.25 0 0 1-.96.213zM50.415 99.68a67.517 67.517 0 0 0-2.379 17.821c0 26.058 14.963 49.659 38.336 60.85.872-6.208-1.6-10.153-4.875-15.396-3.907-6.246-8.765-14.017-8.435-28.099.567-23.875-16.599-32.79-22.647-35.176z"/><path d="M115.5 189.318c-.417 0-.835-.024-1.252-.054l-.772-.04a2.182 2.182 0 0 1-2.119-2.04c-.095-1.44-1.983-35.429 25.137-45.604 11.749-4.408 20.734-19.726 28.657-33.247 4.322-7.362 8.402-14.315 12.773-19.506a2.174 2.174 0 0 1 3.66.553c3.805 8.914 5.734 18.37 5.734 28.12 0 39.595-32.223 71.818-71.818 71.818zm63.456-94.757c-3.332 4.52-6.616 10.12-10.05 15.978-8.291 14.142-17.685 30.169-30.876 35.114-20.956 7.858-22.411 32.184-22.38 39.31 37.129-.078 67.314-30.317 67.314-67.463 0-7.907-1.347-15.6-4.008-22.94z"/><path d="M128.5 188.058c-.47 0-.945-.157-1.322-.45a2.202 2.202 0 0 1-.85-1.558c-.055-.693-1.174-16.978 8.22-27.12 8.113-8.75 21.46-10.286 39.233-4.37.645.219 1.157.723 1.37 1.368.22.647.126 1.355-.26 1.923-10.645 15.662-27.412 26.655-45.989 30.167-.133.032-.266.04-.401.04zm26.154-32.705c-7.197 0-12.884 2.198-16.908 6.538-6.11 6.598-7.04 16.686-7.118 21.325 15.474-3.56 29.435-12.664 38.964-25.413-5.528-1.63-10.537-2.45-14.938-2.45z"/></g></g></svg>