<svg fill="none" viewBox="0 0 500 229"><path fill-rule="evenodd" clip-rule="evenodd" d="M367.803 161.812c-5.304-4.984-8.082-12.845-8.341-23.583h66.911c.126-1.404.255-3.093.381-5.08.129-1.98.195-3.864.195-5.655 0-6.52-.897-12.557-2.685-18.116-1.792-5.56-4.411-10.351-7.858-14.378-3.454-4.026-7.735-7.188-12.848-9.49-5.112-2.301-11.056-3.453-17.828-3.453-7.927 0-14.798 1.374-20.612 4.122-5.815 2.752-10.639 6.457-14.474 11.12-3.831 4.668-6.678 10.162-8.529 16.486-1.855 6.331-2.782 13.136-2.782 20.417 0 7.418.96 14.222 2.878 20.421 1.917 6.199 4.953 11.569 9.106 16.106 4.152 4.536 9.427 8.049 15.817 10.543 6.388 2.493 14.057 3.738 23.007 3.738 6.132 0 11.722-.45 16.775-1.341 5.043-.897 9.679-2.235 13.897-4.026a45.608 45.608 0 0 0-1.149-8.149c-.642-2.749-1.47-5.08-2.493-6.997-8.182 3.195-16.805 4.795-25.881 4.795-10.354 0-18.182-2.497-23.487-7.48zm40.358-37.765c0-3.58-.48-6.997-1.437-10.262-.96-3.258-2.368-6.099-4.219-8.53-1.857-2.427-4.218-4.377-7.096-5.844-2.874-1.47-6.294-2.209-10.255-2.209-7.798 0-13.771 2.368-17.927 7.096-4.152 4.729-6.675 11.312-7.573 19.749h48.507z" fill="#FF4A00"/><path fill-rule="evenodd" clip-rule="evenodd" d="M188.649 84.357a40.151 40.151 0 0 1 3.928-.573 44.123 44.123 0 0 1 4.122-.192c1.275 0 2.619.066 4.027.192a39.7 39.7 0 0 1 4.026.573c.126.261.288 1.056.477 2.4.192 1.341.384 2.778.576 4.311.192 1.534.384 3.007.576 4.411.192 1.407.285 2.302.285 2.686 1.278-2.047 2.811-4.027 4.603-5.944 1.788-1.917 3.933-3.646 6.423-5.176 2.49-1.536 5.302-2.748 8.437-3.642 3.126-.894 6.61-1.344 10.447-1.344 5.749 0 11.087.96 16.01 2.877 4.918 1.917 9.133 4.887 12.649 8.91 3.514 4.03 6.262 9.143 8.245 15.338 1.981 6.206 2.971 13.517 2.971 21.954 0 16.871-4.57 30.07-13.706 39.589-9.142 9.524-22.079 14.285-38.824 14.285-2.811 0-5.686-.192-8.626-.576-2.944-.384-5.497-.897-7.669-1.533v45.053a55.829 55.829 0 0 1-4.887.573 65.21 65.21 0 0 1-4.699.192c-1.407 0-2.97-.066-4.695-.192a46.267 46.267 0 0 1-4.696-.573v-143.6zm26.454 84.165a37.388 37.388 0 0 1-7.477-1.917v-39.874c0-4.861.702-9.04 2.113-12.56 1.404-3.513 3.255-6.424 5.556-8.725 2.301-2.301 4.917-4.026 7.861-5.172a24.978 24.978 0 0 1 9.202-1.729c8.56 0 14.728 3.007 18.5 9.01 3.768 6.01 5.656 14.126 5.656 24.351 0 6.391-.802 11.918-2.398 16.58-1.599 4.669-3.771 8.533-6.52 11.599-2.745 3.07-6.036 5.344-9.871 6.808-3.834 1.47-8.049 2.205-12.652 2.205-4.093 0-7.414-.195-9.97-.576z" fill="#FF4A00"/><path fill-rule="evenodd" clip-rule="evenodd" d="M149.346 117.91c0-7.543-1.917-12.782-5.752-15.722-3.834-2.937-9.394-4.407-16.678-4.407-4.477 0-8.659.354-12.557 1.053-3.9.705-7.705 1.629-11.407 2.778-2.43-4.219-3.642-9.262-3.642-15.146 4.341-1.404 9.132-2.49 14.377-3.258 5.238-.768 10.285-1.15 15.146-1.15 12.778 0 22.493 2.911 29.139 8.723 6.646 5.818 9.97 15.116 9.97 27.894v61.543c-4.473 1.023-9.904 2.076-16.295 3.162a116.912 116.912 0 0 1-19.556 1.629c-6.265 0-11.917-.573-16.967-1.725-5.049-1.152-9.331-3-12.844-5.563-3.517-2.549-6.232-5.814-8.15-9.775-1.916-3.96-2.873-8.751-2.873-14.38 0-5.491 1.115-10.318 3.354-14.474a30.194 30.194 0 0 1 9.106-10.351c3.834-2.745 8.245-4.795 13.228-6.132 4.987-1.345 10.226-2.017 15.722-2.017 4.09 0 7.444.099 10.063.288 2.619.195 4.825.417 6.616.672v-3.642zm-7.285 17.831c2.941.258 5.368.51 7.285.765v31.252c-2.43.639-5.209 1.116-8.341 1.433a88.164 88.164 0 0 1-9.106.484 72.69 72.69 0 0 1-7.285-.384c-2.556-.259-4.887-.961-6.996-2.11-2.11-1.152-3.868-2.811-5.272-4.986-1.411-2.169-2.109-5.176-2.109-9.01 0-6.004 2.073-10.477 6.232-13.421 4.149-2.937 10.188-4.41 18.115-4.41 2.043 0 4.537.132 7.477.387z" fill="#FF4A00"/><path d="m0 180.028 51.765-80.523H6.135c-.383-2.302-.575-4.855-.575-7.67 0-2.681.192-5.178.576-7.48h73.811l.957 2.497-52.146 80.712h48.888c.38 2.56.576 5.176.576 7.858 0 2.563-.195 4.987-.576 7.291H.96L0 180.028z" fill="#FF4A00"/><path d="M300.033 99.313h-12.464c-.255-1.024-.447-2.206-.573-3.547a41.054 41.054 0 0 1-.192-3.93c0-1.275.063-2.59.192-3.93.126-1.342.318-2.524.573-3.55h31.063v98.357c-1.41.252-2.973.441-4.699.57a65.183 65.183 0 0 1-4.698.192c-1.278 0-2.782-.066-4.504-.192a46.253 46.253 0 0 1-4.698-.57v-83.4z" fill="#FF4A00"/><path d="M451.881 83.784a53.25 53.25 0 0 0-4.027.573v98.354a55.79 55.79 0 0 0 4.891.573c1.725.126 3.288.192 4.699.192 1.4 0 2.97-.066 4.692-.192a46.417 46.417 0 0 0 4.698-.573v-48.89c0-6.643.736-12.077 2.206-16.292 1.467-4.218 3.45-7.543 5.94-9.973 2.494-2.428 5.301-4.12 8.437-5.08 3.133-.957 6.424-1.437 9.874-1.437h2.586c1.087 0 2.14.129 3.166.381a96.6 96.6 0 0 0 .672-4.791c.189-1.66.285-3.259.285-4.792 0-1.407-.063-2.748-.192-4.026a31.652 31.652 0 0 0-.573-3.646 29.348 29.348 0 0 0-2.781-.285 52.018 52.018 0 0 0-3.163-.096c-6.904 0-12.556 1.6-16.966 4.791-4.408 3.196-7.957 6.97-10.64 11.315 0-2.175-.195-4.824-.576-7.96-.384-3.126-.768-5.656-1.149-7.573a31.592 31.592 0 0 0-3.834-.573 47.455 47.455 0 0 0-4.219-.192c-1.407 0-2.751.066-4.026.192z" fill="#FF4A00"/><path fill-rule="evenodd" clip-rule="evenodd" d="M336.562 26.25h-18.388l13.003-13.002a31.722 31.722 0 0 0-3.405-4.024h-.001a31.586 31.586 0 0 0-4.019-3.4L310.75 18.826V.438A31.627 31.627 0 0 0 305.518 0h-.036c-1.782 0-3.53.152-5.232.438v18.388L287.248 5.824a31.615 31.615 0 0 0-4.021 3.402l-.005.004a31.629 31.629 0 0 0-3.398 4.018l13.002 13.002h-18.388s-.437 3.454-.438 5.239v.022a31.73 31.73 0 0 0 .438 5.239h18.388l-13.002 13.002a31.695 31.695 0 0 0 7.424 7.425l13.002-13.002v18.387c1.7.286 3.446.437 5.228.438h.045c1.781 0 3.527-.152 5.227-.438V44.174l13.002 13.002a31.6 31.6 0 0 0 4.02-3.401l.004-.003a31.682 31.682 0 0 0 3.401-4.02L318.174 36.75h18.388c.285-1.7.437-3.447.438-5.227v-.046a31.717 31.717 0 0 0-.438-5.227zm-23.187 5.264a18.832 18.832 0 0 1-1.21 6.65c-2.068.78-4.31 1.21-6.651 1.211h-.028a18.85 18.85 0 0 1-6.649-1.21 18.84 18.84 0 0 1-1.212-6.651v-.027c.002-2.342.43-4.582 1.209-6.65 2.07-.78 4.311-1.21 6.652-1.212h.028a18.84 18.84 0 0 1 6.651 1.212 18.825 18.825 0 0 1 1.21 6.65v.027z" fill="#FF4A00"/></svg>