<svg fill="none" viewBox="0 0 100 100"><path d="M58.45 0H41.547v38.816h16.901V0z" fill="#A256D5"/><path d="M79.38 8.67 51.934 36.116l11.952 11.95L91.332 20.62 79.38 8.67z" fill="#6061ED"/><path d="M100 41.548H61.184v16.901H100V41.548z" fill="#499DF3"/><path d="m63.882 51.932-11.95 11.951L79.378 91.33l11.95-11.95-27.447-27.448z" fill="#3FB6D7"/><path d="M58.45 61.184H41.547V100h16.901V61.184z" fill="#13D0AB"/><path d="M36.116 51.932 8.668 79.38 20.62 91.33l27.447-27.446-11.951-11.952z" fill="#FFC43E"/><path d="M38.816 41.548H0v16.901h38.816V41.548z" fill="#FD7622"/><path d="M20.622 8.67 8.67 20.62l27.447 27.448L48.07 36.117 20.622 8.67z" fill="#FF4A00"/></svg>