<svg width="1600" height="1600" viewBox="0 0 1600 1600" fill="none" xmlns="http://www.w3.org/2000/svg">
<path d="M195 185V29.1421C195 20.2331 184.229 15.7714 177.929 22.0711L22.0711 177.929C15.7714 184.229 20.2331 195 29.1421 195H185C190.523 195 195 190.523 195 185Z" fill="#333333"/>
<path d="M195 385V229.142C195 220.233 184.229 215.771 177.929 222.071L22.0711 377.929C15.7714 384.229 20.2331 395 29.1421 395H185C190.523 395 195 390.523 195 385Z" fill="#333333"/>
<path d="M195 585V429.142C195 420.233 184.229 415.771 177.929 422.071L22.0711 577.929C15.7714 584.229 20.2331 595 29.1421 595H185C190.523 595 195 590.523 195 585Z" fill="#333333"/>
<path d="M195 785V629.142C195 620.233 184.229 615.771 177.929 622.071L22.0711 777.929C15.7714 784.229 20.2331 795 29.1421 795H185C190.523 795 195 790.523 195 785Z" fill="#333333"/>
<path d="M195 985V829.142C195 820.233 184.229 815.771 177.929 822.071L22.0711 977.929C15.7714 984.229 20.2331 995 29.1421 995H185C190.523 995 195 990.523 195 985Z" fill="#333333"/>
<path d="M195 1185V1029.14C195 1020.23 184.229 1015.77 177.929 1022.07L22.0711 1177.93C15.7714 1184.23 20.2331 1195 29.1421 1195H185C190.523 1195 195 1190.52 195 1185Z" fill="#333333"/>
<path d="M195 1385V1229.14C195 1220.23 184.229 1215.77 177.929 1222.07L22.0711 1377.93C15.7714 1384.23 20.2331 1395 29.1421 1395H185C190.523 1395 195 1390.52 195 1385Z" fill="#333333"/>
<path d="M195 1585V1429.14C195 1420.23 184.229 1415.77 177.929 1422.07L22.0711 1577.93C15.7714 1584.23 20.2331 1595 29.1421 1595H185C190.523 1595 195 1590.52 195 1585Z" fill="#333333"/>
<path d="M395 185V29.1421C395 20.2331 384.229 15.7714 377.929 22.0711L222.071 177.929C215.771 184.229 220.233 195 229.142 195H385C390.523 195 395 190.523 395 185Z" fill="#333333"/>
<path d="M395 385V229.142C395 220.233 384.229 215.771 377.929 222.071L222.071 377.929C215.771 384.229 220.233 395 229.142 395H385C390.523 395 395 390.523 395 385Z" fill="#333333"/>
<path d="M395 585V429.142C395 420.233 384.229 415.771 377.929 422.071L222.071 577.929C215.771 584.229 220.233 595 229.142 595H385C390.523 595 395 590.523 395 585Z" fill="#333333"/>
<path d="M395 785V629.142C395 620.233 384.229 615.771 377.929 622.071L222.071 777.929C215.771 784.229 220.233 795 229.142 795H385C390.523 795 395 790.523 395 785Z" fill="#333333"/>
<path d="M395 985V829.142C395 820.233 384.229 815.771 377.929 822.071L222.071 977.929C215.771 984.229 220.233 995 229.142 995H385C390.523 995 395 990.523 395 985Z" fill="#333333"/>
<path d="M395 1185V1029.14C395 1020.23 384.229 1015.77 377.929 1022.07L222.071 1177.93C215.771 1184.23 220.233 1195 229.142 1195H385C390.523 1195 395 1190.52 395 1185Z" fill="#333333"/>
<path d="M395 1385V1229.14C395 1220.23 384.229 1215.77 377.929 1222.07L222.071 1377.93C215.771 1384.23 220.233 1395 229.142 1395H385C390.523 1395 395 1390.52 395 1385Z" fill="#333333"/>
<path d="M395 1585V1429.14C395 1420.23 384.229 1415.77 377.929 1422.07L222.071 1577.93C215.771 1584.23 220.233 1595 229.142 1595H385C390.523 1595 395 1590.52 395 1585Z" fill="#333333"/>
<path d="M595 185V29.1421C595 20.2331 584.229 15.7714 577.929 22.0711L422.071 177.929C415.771 184.229 420.233 195 429.142 195H585C590.523 195 595 190.523 595 185Z" fill="#333333"/>
<path d="M595 385V229.142C595 220.233 584.229 215.771 577.929 222.071L422.071 377.929C415.771 384.229 420.233 395 429.142 395H585C590.523 395 595 390.523 595 385Z" fill="#333333"/>
<path d="M595 585V429.142C595 420.233 584.229 415.771 577.929 422.071L422.071 577.929C415.771 584.229 420.233 595 429.142 595H585C590.523 595 595 590.523 595 585Z" fill="#333333"/>
<path d="M595 785V629.142C595 620.233 584.229 615.771 577.929 622.071L422.071 777.929C415.771 784.229 420.233 795 429.142 795H585C590.523 795 595 790.523 595 785Z" fill="#333333"/>
<path d="M595 985V829.142C595 820.233 584.229 815.771 577.929 822.071L422.071 977.929C415.771 984.229 420.233 995 429.142 995H585C590.523 995 595 990.523 595 985Z" fill="#333333"/>
<path d="M595 1185V1029.14C595 1020.23 584.229 1015.77 577.929 1022.07L422.071 1177.93C415.771 1184.23 420.233 1195 429.142 1195H585C590.523 1195 595 1190.52 595 1185Z" fill="#333333"/>
<path d="M595 1385V1229.14C595 1220.23 584.229 1215.77 577.929 1222.07L422.071 1377.93C415.771 1384.23 420.233 1395 429.142 1395H585C590.523 1395 595 1390.52 595 1385Z" fill="#333333"/>
<path d="M595 1585V1429.14C595 1420.23 584.229 1415.77 577.929 1422.07L422.071 1577.93C415.771 1584.23 420.233 1595 429.142 1595H585C590.523 1595 595 1590.52 595 1585Z" fill="#333333"/>
<path d="M795 185V29.1421C795 20.2331 784.229 15.7714 777.929 22.0711L622.071 177.929C615.771 184.229 620.233 195 629.142 195H785C790.523 195 795 190.523 795 185Z" fill="#333333"/>
<path d="M795 385V229.142C795 220.233 784.229 215.771 777.929 222.071L622.071 377.929C615.771 384.229 620.233 395 629.142 395H785C790.523 395 795 390.523 795 385Z" fill="#333333"/>
<path d="M795 585V429.142C795 420.233 784.229 415.771 777.929 422.071L622.071 577.929C615.771 584.229 620.233 595 629.142 595H785C790.523 595 795 590.523 795 585Z" fill="#333333"/>
<path d="M795 785V629.142C795 620.233 784.229 615.771 777.929 622.071L622.071 777.929C615.771 784.229 620.233 795 629.142 795H785C790.523 795 795 790.523 795 785Z" fill="#333333"/>
<path d="M795 985V829.142C795 820.233 784.229 815.771 777.929 822.071L622.071 977.929C615.771 984.229 620.233 995 629.142 995H785C790.523 995 795 990.523 795 985Z" fill="#333333"/>
<path d="M795 1185V1029.14C795 1020.23 784.229 1015.77 777.929 1022.07L622.071 1177.93C615.771 1184.23 620.233 1195 629.142 1195H785C790.523 1195 795 1190.52 795 1185Z" fill="#333333"/>
<path d="M795 1385V1229.14C795 1220.23 784.229 1215.77 777.929 1222.07L622.071 1377.93C615.771 1384.23 620.233 1395 629.142 1395H785C790.523 1395 795 1390.52 795 1385Z" fill="#333333"/>
<path d="M795 1585V1429.14C795 1420.23 784.229 1415.77 777.929 1422.07L622.071 1577.93C615.771 1584.23 620.233 1595 629.142 1595H785C790.523 1595 795 1590.52 795 1585Z" fill="#333333"/>
<path d="M995 185V29.1421C995 20.2331 984.229 15.7714 977.929 22.0711L822.071 177.929C815.771 184.229 820.233 195 829.142 195H985C990.523 195 995 190.523 995 185Z" fill="#333333"/>
<path d="M995 385V229.142C995 220.233 984.229 215.771 977.929 222.071L822.071 377.929C815.771 384.229 820.233 395 829.142 395H985C990.523 395 995 390.523 995 385Z" fill="#333333"/>
<path d="M995 585V429.142C995 420.233 984.229 415.771 977.929 422.071L822.071 577.929C815.771 584.229 820.233 595 829.142 595H985C990.523 595 995 590.523 995 585Z" fill="#333333"/>
<path d="M995 785V629.142C995 620.233 984.229 615.771 977.929 622.071L822.071 777.929C815.771 784.229 820.233 795 829.142 795H985C990.523 795 995 790.523 995 785Z" fill="#333333"/>
<path d="M995 985V829.142C995 820.233 984.229 815.771 977.929 822.071L822.071 977.929C815.771 984.229 820.233 995 829.142 995H985C990.523 995 995 990.523 995 985Z" fill="#333333"/>
<path d="M995 1185V1029.14C995 1020.23 984.229 1015.77 977.929 1022.07L822.071 1177.93C815.771 1184.23 820.233 1195 829.142 1195H985C990.523 1195 995 1190.52 995 1185Z" fill="#333333"/>
<path d="M995 1385V1229.14C995 1220.23 984.229 1215.77 977.929 1222.07L822.071 1377.93C815.771 1384.23 820.233 1395 829.142 1395H985C990.523 1395 995 1390.52 995 1385Z" fill="#333333"/>
<path d="M995 1585V1429.14C995 1420.23 984.229 1415.77 977.929 1422.07L822.071 1577.93C815.771 1584.23 820.233 1595 829.142 1595H985C990.523 1595 995 1590.52 995 1585Z" fill="#333333"/>
<path d="M1195 185V29.1421C1195 20.2331 1184.23 15.7714 1177.93 22.0711L1022.07 177.929C1015.77 184.229 1020.23 195 1029.14 195H1185C1190.52 195 1195 190.523 1195 185Z" fill="#333333"/>
<path d="M1195 385V229.142C1195 220.233 1184.23 215.771 1177.93 222.071L1022.07 377.929C1015.77 384.229 1020.23 395 1029.14 395H1185C1190.52 395 1195 390.523 1195 385Z" fill="#333333"/>
<path d="M1195 585V429.142C1195 420.233 1184.23 415.771 1177.93 422.071L1022.07 577.929C1015.77 584.229 1020.23 595 1029.14 595H1185C1190.52 595 1195 590.523 1195 585Z" fill="#333333"/>
<path d="M1195 785V629.142C1195 620.233 1184.23 615.771 1177.93 622.071L1022.07 777.929C1015.77 784.229 1020.23 795 1029.14 795H1185C1190.52 795 1195 790.523 1195 785Z" fill="#333333"/>
<path d="M1195 985V829.142C1195 820.233 1184.23 815.771 1177.93 822.071L1022.07 977.929C1015.77 984.229 1020.23 995 1029.14 995H1185C1190.52 995 1195 990.523 1195 985Z" fill="#333333"/>
<path d="M1195 1185V1029.14C1195 1020.23 1184.23 1015.77 1177.93 1022.07L1022.07 1177.93C1015.77 1184.23 1020.23 1195 1029.14 1195H1185C1190.52 1195 1195 1190.52 1195 1185Z" fill="#333333"/>
<path d="M1195 1385V1229.14C1195 1220.23 1184.23 1215.77 1177.93 1222.07L1022.07 1377.93C1015.77 1384.23 1020.23 1395 1029.14 1395H1185C1190.52 1395 1195 1390.52 1195 1385Z" fill="#333333"/>
<path d="M1195 1585V1429.14C1195 1420.23 1184.23 1415.77 1177.93 1422.07L1022.07 1577.93C1015.77 1584.23 1020.23 1595 1029.14 1595H1185C1190.52 1595 1195 1590.52 1195 1585Z" fill="#333333"/>
<path d="M1395 185V29.1421C1395 20.2331 1384.23 15.7714 1377.93 22.0711L1222.07 177.929C1215.77 184.229 1220.23 195 1229.14 195H1385C1390.52 195 1395 190.523 1395 185Z" fill="#333333"/>
<path d="M1395 385V229.142C1395 220.233 1384.23 215.771 1377.93 222.071L1222.07 377.929C1215.77 384.229 1220.23 395 1229.14 395H1385C1390.52 395 1395 390.523 1395 385Z" fill="#333333"/>
<path d="M1395 585V429.142C1395 420.233 1384.23 415.771 1377.93 422.071L1222.07 577.929C1215.77 584.229 1220.23 595 1229.14 595H1385C1390.52 595 1395 590.523 1395 585Z" fill="#333333"/>
<path d="M1395 785V629.142C1395 620.233 1384.23 615.771 1377.93 622.071L1222.07 777.929C1215.77 784.229 1220.23 795 1229.14 795H1385C1390.52 795 1395 790.523 1395 785Z" fill="#333333"/>
<path d="M1395 985V829.142C1395 820.233 1384.23 815.771 1377.93 822.071L1222.07 977.929C1215.77 984.229 1220.23 995 1229.14 995H1385C1390.52 995 1395 990.523 1395 985Z" fill="#333333"/>
<path d="M1395 1185V1029.14C1395 1020.23 1384.23 1015.77 1377.93 1022.07L1222.07 1177.93C1215.77 1184.23 1220.23 1195 1229.14 1195H1385C1390.52 1195 1395 1190.52 1395 1185Z" fill="#333333"/>
<path d="M1395 1385V1229.14C1395 1220.23 1384.23 1215.77 1377.93 1222.07L1222.07 1377.93C1215.77 1384.23 1220.23 1395 1229.14 1395H1385C1390.52 1395 1395 1390.52 1395 1385Z" fill="#333333"/>
<path d="M1395 1585V1429.14C1395 1420.23 1384.23 1415.77 1377.93 1422.07L1222.07 1577.93C1215.77 1584.23 1220.23 1595 1229.14 1595H1385C1390.52 1595 1395 1590.52 1395 1585Z" fill="#333333"/>
<path d="M1595 185V29.1421C1595 20.2331 1584.23 15.7714 1577.93 22.0711L1422.07 177.929C1415.77 184.229 1420.23 195 1429.14 195H1585C1590.52 195 1595 190.523 1595 185Z" fill="#333333"/>
<path d="M1595 385V229.142C1595 220.233 1584.23 215.771 1577.93 222.071L1422.07 377.929C1415.77 384.229 1420.23 395 1429.14 395H1585C1590.52 395 1595 390.523 1595 385Z" fill="#333333"/>
<path d="M1595 585V429.142C1595 420.233 1584.23 415.771 1577.93 422.071L1422.07 577.929C1415.77 584.229 1420.23 595 1429.14 595H1585C1590.52 595 1595 590.523 1595 585Z" fill="#333333"/>
<path d="M1595 785V629.142C1595 620.233 1584.23 615.771 1577.93 622.071L1422.07 777.929C1415.77 784.229 1420.23 795 1429.14 795H1585C1590.52 795 1595 790.523 1595 785Z" fill="#333333"/>
<path d="M1595 985V829.142C1595 820.233 1584.23 815.771 1577.93 822.071L1422.07 977.929C1415.77 984.229 1420.23 995 1429.14 995H1585C1590.52 995 1595 990.523 1595 985Z" fill="#333333"/>
<path d="M1595 1185V1029.14C1595 1020.23 1584.23 1015.77 1577.93 1022.07L1422.07 1177.93C1415.77 1184.23 1420.23 1195 1429.14 1195H1585C1590.52 1195 1595 1190.52 1595 1185Z" fill="#333333"/>
<path d="M1595 1385V1229.14C1595 1220.23 1584.23 1215.77 1577.93 1222.07L1422.07 1377.93C1415.77 1384.23 1420.23 1395 1429.14 1395H1585C1590.52 1395 1595 1390.52 1595 1385Z" fill="#333333"/>
<path d="M1595 1585V1429.14C1595 1420.23 1584.23 1415.77 1577.93 1422.07L1422.07 1577.93C1415.77 1584.23 1420.23 1595 1429.14 1595H1585C1590.52 1595 1595 1590.52 1595 1585Z" fill="#333333"/>
</svg>
