<svg width="1600" height="1600" viewBox="0 0 1600 1600" fill="none" xmlns="http://www.w3.org/2000/svg">
<path fill-rule="evenodd" clip-rule="evenodd" d="M15 5C9.47715 5 5 9.47715 5 15V185C5 190.523 9.47715 195 15 195H185C190.523 195 195 190.523 195 185V15C195 9.47715 190.523 5 185 5H15ZM100 175C141.421 175 175 141.421 175 100C175 58.5786 141.421 25 100 25C58.5786 25 25 58.5786 25 100C25 141.421 58.5786 175 100 175Z" fill="#333333"/>
<path fill-rule="evenodd" clip-rule="evenodd" d="M15 205C9.47715 205 5 209.477 5 215V385C5 390.523 9.47715 395 15 395H185C190.523 395 195 390.523 195 385V215C195 209.477 190.523 205 185 205H15ZM100 375C141.421 375 175 341.421 175 300C175 258.579 141.421 225 100 225C58.5786 225 25 258.579 25 300C25 341.421 58.5786 375 100 375Z" fill="#333333"/>
<path fill-rule="evenodd" clip-rule="evenodd" d="M15 405C9.47715 405 5 409.477 5 415V585C5 590.523 9.47715 595 15 595H185C190.523 595 195 590.523 195 585V415C195 409.477 190.523 405 185 405H15ZM100 575C141.421 575 175 541.421 175 500C175 458.579 141.421 425 100 425C58.5786 425 25 458.579 25 500C25 541.421 58.5786 575 100 575Z" fill="#333333"/>
<path fill-rule="evenodd" clip-rule="evenodd" d="M15 605C9.47715 605 5 609.477 5 615V785C5 790.523 9.47715 795 15 795H185C190.523 795 195 790.523 195 785V615C195 609.477 190.523 605 185 605H15ZM100 775C141.421 775 175 741.421 175 700C175 658.579 141.421 625 100 625C58.5786 625 25 658.579 25 700C25 741.421 58.5786 775 100 775Z" fill="#333333"/>
<path fill-rule="evenodd" clip-rule="evenodd" d="M15 805C9.47715 805 5 809.477 5 815V985C5 990.523 9.47715 995 15 995H185C190.523 995 195 990.523 195 985V815C195 809.477 190.523 805 185 805H15ZM100 975C141.421 975 175 941.421 175 900C175 858.579 141.421 825 100 825C58.5786 825 25 858.579 25 900C25 941.421 58.5786 975 100 975Z" fill="#333333"/>
<path fill-rule="evenodd" clip-rule="evenodd" d="M15 1005C9.47715 1005 5 1009.48 5 1015V1185C5 1190.52 9.47715 1195 15 1195H185C190.523 1195 195 1190.52 195 1185V1015C195 1009.48 190.523 1005 185 1005H15ZM100 1175C141.421 1175 175 1141.42 175 1100C175 1058.58 141.421 1025 100 1025C58.5786 1025 25 1058.58 25 1100C25 1141.42 58.5786 1175 100 1175Z" fill="#333333"/>
<path fill-rule="evenodd" clip-rule="evenodd" d="M15 1205C9.47715 1205 5 1209.48 5 1215V1385C5 1390.52 9.47715 1395 15 1395H185C190.523 1395 195 1390.52 195 1385V1215C195 1209.48 190.523 1205 185 1205H15ZM100 1375C141.421 1375 175 1341.42 175 1300C175 1258.58 141.421 1225 100 1225C58.5786 1225 25 1258.58 25 1300C25 1341.42 58.5786 1375 100 1375Z" fill="#333333"/>
<path fill-rule="evenodd" clip-rule="evenodd" d="M15 1405C9.47715 1405 5 1409.48 5 1415V1585C5 1590.52 9.47715 1595 15 1595H185C190.523 1595 195 1590.52 195 1585V1415C195 1409.48 190.523 1405 185 1405H15ZM100 1575C141.421 1575 175 1541.42 175 1500C175 1458.58 141.421 1425 100 1425C58.5786 1425 25 1458.58 25 1500C25 1541.42 58.5786 1575 100 1575Z" fill="#333333"/>
<path fill-rule="evenodd" clip-rule="evenodd" d="M215 5C209.477 5 205 9.47715 205 15V185C205 190.523 209.477 195 215 195H385C390.523 195 395 190.523 395 185V15C395 9.47715 390.523 5 385 5H215ZM300 175C341.421 175 375 141.421 375 100C375 58.5786 341.421 25 300 25C258.579 25 225 58.5786 225 100C225 141.421 258.579 175 300 175Z" fill="#333333"/>
<path fill-rule="evenodd" clip-rule="evenodd" d="M215 205C209.477 205 205 209.477 205 215V385C205 390.523 209.477 395 215 395H385C390.523 395 395 390.523 395 385V215C395 209.477 390.523 205 385 205H215ZM300 375C341.421 375 375 341.421 375 300C375 258.579 341.421 225 300 225C258.579 225 225 258.579 225 300C225 341.421 258.579 375 300 375Z" fill="#333333"/>
<path fill-rule="evenodd" clip-rule="evenodd" d="M215 405C209.477 405 205 409.477 205 415V585C205 590.523 209.477 595 215 595H385C390.523 595 395 590.523 395 585V415C395 409.477 390.523 405 385 405H215ZM300 575C341.421 575 375 541.421 375 500C375 458.579 341.421 425 300 425C258.579 425 225 458.579 225 500C225 541.421 258.579 575 300 575Z" fill="#333333"/>
<path fill-rule="evenodd" clip-rule="evenodd" d="M215 605C209.477 605 205 609.477 205 615V785C205 790.523 209.477 795 215 795H385C390.523 795 395 790.523 395 785V615C395 609.477 390.523 605 385 605H215ZM300 775C341.421 775 375 741.421 375 700C375 658.579 341.421 625 300 625C258.579 625 225 658.579 225 700C225 741.421 258.579 775 300 775Z" fill="#333333"/>
<path fill-rule="evenodd" clip-rule="evenodd" d="M215 805C209.477 805 205 809.477 205 815V985C205 990.523 209.477 995 215 995H385C390.523 995 395 990.523 395 985V815C395 809.477 390.523 805 385 805H215ZM300 975C341.421 975 375 941.421 375 900C375 858.579 341.421 825 300 825C258.579 825 225 858.579 225 900C225 941.421 258.579 975 300 975Z" fill="#333333"/>
<path fill-rule="evenodd" clip-rule="evenodd" d="M215 1005C209.477 1005 205 1009.48 205 1015V1185C205 1190.52 209.477 1195 215 1195H385C390.523 1195 395 1190.52 395 1185V1015C395 1009.48 390.523 1005 385 1005H215ZM300 1175C341.421 1175 375 1141.42 375 1100C375 1058.58 341.421 1025 300 1025C258.579 1025 225 1058.58 225 1100C225 1141.42 258.579 1175 300 1175Z" fill="#333333"/>
<path fill-rule="evenodd" clip-rule="evenodd" d="M215 1205C209.477 1205 205 1209.48 205 1215V1385C205 1390.52 209.477 1395 215 1395H385C390.523 1395 395 1390.52 395 1385V1215C395 1209.48 390.523 1205 385 1205H215ZM300 1375C341.421 1375 375 1341.42 375 1300C375 1258.58 341.421 1225 300 1225C258.579 1225 225 1258.58 225 1300C225 1341.42 258.579 1375 300 1375Z" fill="#333333"/>
<path fill-rule="evenodd" clip-rule="evenodd" d="M215 1405C209.477 1405 205 1409.48 205 1415V1585C205 1590.52 209.477 1595 215 1595H385C390.523 1595 395 1590.52 395 1585V1415C395 1409.48 390.523 1405 385 1405H215ZM300 1575C341.421 1575 375 1541.42 375 1500C375 1458.58 341.421 1425 300 1425C258.579 1425 225 1458.58 225 1500C225 1541.42 258.579 1575 300 1575Z" fill="#333333"/>
<path fill-rule="evenodd" clip-rule="evenodd" d="M415 5C409.477 5 405 9.47715 405 15V185C405 190.523 409.477 195 415 195H585C590.523 195 595 190.523 595 185V15C595 9.47715 590.523 5 585 5H415ZM500 175C541.421 175 575 141.421 575 100C575 58.5786 541.421 25 500 25C458.579 25 425 58.5786 425 100C425 141.421 458.579 175 500 175Z" fill="#333333"/>
<path fill-rule="evenodd" clip-rule="evenodd" d="M415 205C409.477 205 405 209.477 405 215V385C405 390.523 409.477 395 415 395H585C590.523 395 595 390.523 595 385V215C595 209.477 590.523 205 585 205H415ZM500 375C541.421 375 575 341.421 575 300C575 258.579 541.421 225 500 225C458.579 225 425 258.579 425 300C425 341.421 458.579 375 500 375Z" fill="#333333"/>
<path fill-rule="evenodd" clip-rule="evenodd" d="M415 405C409.477 405 405 409.477 405 415V585C405 590.523 409.477 595 415 595H585C590.523 595 595 590.523 595 585V415C595 409.477 590.523 405 585 405H415ZM500 575C541.421 575 575 541.421 575 500C575 458.579 541.421 425 500 425C458.579 425 425 458.579 425 500C425 541.421 458.579 575 500 575Z" fill="#333333"/>
<path fill-rule="evenodd" clip-rule="evenodd" d="M415 605C409.477 605 405 609.477 405 615V785C405 790.523 409.477 795 415 795H585C590.523 795 595 790.523 595 785V615C595 609.477 590.523 605 585 605H415ZM500 775C541.421 775 575 741.421 575 700C575 658.579 541.421 625 500 625C458.579 625 425 658.579 425 700C425 741.421 458.579 775 500 775Z" fill="#333333"/>
<path fill-rule="evenodd" clip-rule="evenodd" d="M415 805C409.477 805 405 809.477 405 815V985C405 990.523 409.477 995 415 995H585C590.523 995 595 990.523 595 985V815C595 809.477 590.523 805 585 805H415ZM500 975C541.421 975 575 941.421 575 900C575 858.579 541.421 825 500 825C458.579 825 425 858.579 425 900C425 941.421 458.579 975 500 975Z" fill="#333333"/>
<path fill-rule="evenodd" clip-rule="evenodd" d="M415 1005C409.477 1005 405 1009.48 405 1015V1185C405 1190.52 409.477 1195 415 1195H585C590.523 1195 595 1190.52 595 1185V1015C595 1009.48 590.523 1005 585 1005H415ZM500 1175C541.421 1175 575 1141.42 575 1100C575 1058.58 541.421 1025 500 1025C458.579 1025 425 1058.58 425 1100C425 1141.42 458.579 1175 500 1175Z" fill="#333333"/>
<path fill-rule="evenodd" clip-rule="evenodd" d="M415 1205C409.477 1205 405 1209.48 405 1215V1385C405 1390.52 409.477 1395 415 1395H585C590.523 1395 595 1390.52 595 1385V1215C595 1209.48 590.523 1205 585 1205H415ZM500 1375C541.421 1375 575 1341.42 575 1300C575 1258.58 541.421 1225 500 1225C458.579 1225 425 1258.58 425 1300C425 1341.42 458.579 1375 500 1375Z" fill="#333333"/>
<path fill-rule="evenodd" clip-rule="evenodd" d="M415 1405C409.477 1405 405 1409.48 405 1415V1585C405 1590.52 409.477 1595 415 1595H585C590.523 1595 595 1590.52 595 1585V1415C595 1409.48 590.523 1405 585 1405H415ZM500 1575C541.421 1575 575 1541.42 575 1500C575 1458.58 541.421 1425 500 1425C458.579 1425 425 1458.58 425 1500C425 1541.42 458.579 1575 500 1575Z" fill="#333333"/>
<path fill-rule="evenodd" clip-rule="evenodd" d="M615 5C609.477 5 605 9.47715 605 15V185C605 190.523 609.477 195 615 195H785C790.523 195 795 190.523 795 185V15C795 9.47715 790.523 5 785 5H615ZM700 175C741.421 175 775 141.421 775 100C775 58.5786 741.421 25 700 25C658.579 25 625 58.5786 625 100C625 141.421 658.579 175 700 175Z" fill="#333333"/>
<path fill-rule="evenodd" clip-rule="evenodd" d="M615 205C609.477 205 605 209.477 605 215V385C605 390.523 609.477 395 615 395H785C790.523 395 795 390.523 795 385V215C795 209.477 790.523 205 785 205H615ZM700 375C741.421 375 775 341.421 775 300C775 258.579 741.421 225 700 225C658.579 225 625 258.579 625 300C625 341.421 658.579 375 700 375Z" fill="#333333"/>
<path fill-rule="evenodd" clip-rule="evenodd" d="M615 405C609.477 405 605 409.477 605 415V585C605 590.523 609.477 595 615 595H785C790.523 595 795 590.523 795 585V415C795 409.477 790.523 405 785 405H615ZM700 575C741.421 575 775 541.421 775 500C775 458.579 741.421 425 700 425C658.579 425 625 458.579 625 500C625 541.421 658.579 575 700 575Z" fill="#333333"/>
<path fill-rule="evenodd" clip-rule="evenodd" d="M615 605C609.477 605 605 609.477 605 615V785C605 790.523 609.477 795 615 795H785C790.523 795 795 790.523 795 785V615C795 609.477 790.523 605 785 605H615ZM700 775C741.421 775 775 741.421 775 700C775 658.579 741.421 625 700 625C658.579 625 625 658.579 625 700C625 741.421 658.579 775 700 775Z" fill="#333333"/>
<path fill-rule="evenodd" clip-rule="evenodd" d="M615 805C609.477 805 605 809.477 605 815V985C605 990.523 609.477 995 615 995H785C790.523 995 795 990.523 795 985V815C795 809.477 790.523 805 785 805H615ZM700 975C741.421 975 775 941.421 775 900C775 858.579 741.421 825 700 825C658.579 825 625 858.579 625 900C625 941.421 658.579 975 700 975Z" fill="#333333"/>
<path fill-rule="evenodd" clip-rule="evenodd" d="M615 1005C609.477 1005 605 1009.48 605 1015V1185C605 1190.52 609.477 1195 615 1195H785C790.523 1195 795 1190.52 795 1185V1015C795 1009.48 790.523 1005 785 1005H615ZM700 1175C741.421 1175 775 1141.42 775 1100C775 1058.58 741.421 1025 700 1025C658.579 1025 625 1058.58 625 1100C625 1141.42 658.579 1175 700 1175Z" fill="#333333"/>
<path fill-rule="evenodd" clip-rule="evenodd" d="M615 1205C609.477 1205 605 1209.48 605 1215V1385C605 1390.52 609.477 1395 615 1395H785C790.523 1395 795 1390.52 795 1385V1215C795 1209.48 790.523 1205 785 1205H615ZM700 1375C741.421 1375 775 1341.42 775 1300C775 1258.58 741.421 1225 700 1225C658.579 1225 625 1258.58 625 1300C625 1341.42 658.579 1375 700 1375Z" fill="#333333"/>
<path fill-rule="evenodd" clip-rule="evenodd" d="M615 1405C609.477 1405 605 1409.48 605 1415V1585C605 1590.52 609.477 1595 615 1595H785C790.523 1595 795 1590.52 795 1585V1415C795 1409.48 790.523 1405 785 1405H615ZM700 1575C741.421 1575 775 1541.42 775 1500C775 1458.58 741.421 1425 700 1425C658.579 1425 625 1458.58 625 1500C625 1541.42 658.579 1575 700 1575Z" fill="#333333"/>
<path fill-rule="evenodd" clip-rule="evenodd" d="M815 5C809.477 5 805 9.47715 805 15V185C805 190.523 809.477 195 815 195H985C990.523 195 995 190.523 995 185V15C995 9.47715 990.523 5 985 5H815ZM900 175C941.421 175 975 141.421 975 100C975 58.5786 941.421 25 900 25C858.579 25 825 58.5786 825 100C825 141.421 858.579 175 900 175Z" fill="#333333"/>
<path fill-rule="evenodd" clip-rule="evenodd" d="M815 205C809.477 205 805 209.477 805 215V385C805 390.523 809.477 395 815 395H985C990.523 395 995 390.523 995 385V215C995 209.477 990.523 205 985 205H815ZM900 375C941.421 375 975 341.421 975 300C975 258.579 941.421 225 900 225C858.579 225 825 258.579 825 300C825 341.421 858.579 375 900 375Z" fill="#333333"/>
<path fill-rule="evenodd" clip-rule="evenodd" d="M815 405C809.477 405 805 409.477 805 415V585C805 590.523 809.477 595 815 595H985C990.523 595 995 590.523 995 585V415C995 409.477 990.523 405 985 405H815ZM900 575C941.421 575 975 541.421 975 500C975 458.579 941.421 425 900 425C858.579 425 825 458.579 825 500C825 541.421 858.579 575 900 575Z" fill="#333333"/>
<path fill-rule="evenodd" clip-rule="evenodd" d="M815 605C809.477 605 805 609.477 805 615V785C805 790.523 809.477 795 815 795H985C990.523 795 995 790.523 995 785V615C995 609.477 990.523 605 985 605H815ZM900 775C941.421 775 975 741.421 975 700C975 658.579 941.421 625 900 625C858.579 625 825 658.579 825 700C825 741.421 858.579 775 900 775Z" fill="#333333"/>
<path fill-rule="evenodd" clip-rule="evenodd" d="M815 805C809.477 805 805 809.477 805 815V985C805 990.523 809.477 995 815 995H985C990.523 995 995 990.523 995 985V815C995 809.477 990.523 805 985 805H815ZM900 975C941.421 975 975 941.421 975 900C975 858.579 941.421 825 900 825C858.579 825 825 858.579 825 900C825 941.421 858.579 975 900 975Z" fill="#333333"/>
<path fill-rule="evenodd" clip-rule="evenodd" d="M815 1005C809.477 1005 805 1009.48 805 1015V1185C805 1190.52 809.477 1195 815 1195H985C990.523 1195 995 1190.52 995 1185V1015C995 1009.48 990.523 1005 985 1005H815ZM900 1175C941.421 1175 975 1141.42 975 1100C975 1058.58 941.421 1025 900 1025C858.579 1025 825 1058.58 825 1100C825 1141.42 858.579 1175 900 1175Z" fill="#333333"/>
<path fill-rule="evenodd" clip-rule="evenodd" d="M815 1205C809.477 1205 805 1209.48 805 1215V1385C805 1390.52 809.477 1395 815 1395H985C990.523 1395 995 1390.52 995 1385V1215C995 1209.48 990.523 1205 985 1205H815ZM900 1375C941.421 1375 975 1341.42 975 1300C975 1258.58 941.421 1225 900 1225C858.579 1225 825 1258.58 825 1300C825 1341.42 858.579 1375 900 1375Z" fill="#333333"/>
<path fill-rule="evenodd" clip-rule="evenodd" d="M815 1405C809.477 1405 805 1409.48 805 1415V1585C805 1590.52 809.477 1595 815 1595H985C990.523 1595 995 1590.52 995 1585V1415C995 1409.48 990.523 1405 985 1405H815ZM900 1575C941.421 1575 975 1541.42 975 1500C975 1458.58 941.421 1425 900 1425C858.579 1425 825 1458.58 825 1500C825 1541.42 858.579 1575 900 1575Z" fill="#333333"/>
<path fill-rule="evenodd" clip-rule="evenodd" d="M1015 5C1009.48 5 1005 9.47715 1005 15V185C1005 190.523 1009.48 195 1015 195H1185C1190.52 195 1195 190.523 1195 185V15C1195 9.47715 1190.52 5 1185 5H1015ZM1100 175C1141.42 175 1175 141.421 1175 100C1175 58.5786 1141.42 25 1100 25C1058.58 25 1025 58.5786 1025 100C1025 141.421 1058.58 175 1100 175Z" fill="#333333"/>
<path fill-rule="evenodd" clip-rule="evenodd" d="M1015 205C1009.48 205 1005 209.477 1005 215V385C1005 390.523 1009.48 395 1015 395H1185C1190.52 395 1195 390.523 1195 385V215C1195 209.477 1190.52 205 1185 205H1015ZM1100 375C1141.42 375 1175 341.421 1175 300C1175 258.579 1141.42 225 1100 225C1058.58 225 1025 258.579 1025 300C1025 341.421 1058.58 375 1100 375Z" fill="#333333"/>
<path fill-rule="evenodd" clip-rule="evenodd" d="M1015 405C1009.48 405 1005 409.477 1005 415V585C1005 590.523 1009.48 595 1015 595H1185C1190.52 595 1195 590.523 1195 585V415C1195 409.477 1190.52 405 1185 405H1015ZM1100 575C1141.42 575 1175 541.421 1175 500C1175 458.579 1141.42 425 1100 425C1058.58 425 1025 458.579 1025 500C1025 541.421 1058.58 575 1100 575Z" fill="#333333"/>
<path fill-rule="evenodd" clip-rule="evenodd" d="M1015 605C1009.48 605 1005 609.477 1005 615V785C1005 790.523 1009.48 795 1015 795H1185C1190.52 795 1195 790.523 1195 785V615C1195 609.477 1190.52 605 1185 605H1015ZM1100 775C1141.42 775 1175 741.421 1175 700C1175 658.579 1141.42 625 1100 625C1058.58 625 1025 658.579 1025 700C1025 741.421 1058.58 775 1100 775Z" fill="#333333"/>
<path fill-rule="evenodd" clip-rule="evenodd" d="M1015 805C1009.48 805 1005 809.477 1005 815V985C1005 990.523 1009.48 995 1015 995H1185C1190.52 995 1195 990.523 1195 985V815C1195 809.477 1190.52 805 1185 805H1015ZM1100 975C1141.42 975 1175 941.421 1175 900C1175 858.579 1141.42 825 1100 825C1058.58 825 1025 858.579 1025 900C1025 941.421 1058.58 975 1100 975Z" fill="#333333"/>
<path fill-rule="evenodd" clip-rule="evenodd" d="M1015 1005C1009.48 1005 1005 1009.48 1005 1015V1185C1005 1190.52 1009.48 1195 1015 1195H1185C1190.52 1195 1195 1190.52 1195 1185V1015C1195 1009.48 1190.52 1005 1185 1005H1015ZM1100 1175C1141.42 1175 1175 1141.42 1175 1100C1175 1058.58 1141.42 1025 1100 1025C1058.58 1025 1025 1058.58 1025 1100C1025 1141.42 1058.58 1175 1100 1175Z" fill="#333333"/>
<path fill-rule="evenodd" clip-rule="evenodd" d="M1015 1205C1009.48 1205 1005 1209.48 1005 1215V1385C1005 1390.52 1009.48 1395 1015 1395H1185C1190.52 1395 1195 1390.52 1195 1385V1215C1195 1209.48 1190.52 1205 1185 1205H1015ZM1100 1375C1141.42 1375 1175 1341.42 1175 1300C1175 1258.58 1141.42 1225 1100 1225C1058.58 1225 1025 1258.58 1025 1300C1025 1341.42 1058.58 1375 1100 1375Z" fill="#333333"/>
<path fill-rule="evenodd" clip-rule="evenodd" d="M1015 1405C1009.48 1405 1005 1409.48 1005 1415V1585C1005 1590.52 1009.48 1595 1015 1595H1185C1190.52 1595 1195 1590.52 1195 1585V1415C1195 1409.48 1190.52 1405 1185 1405H1015ZM1100 1575C1141.42 1575 1175 1541.42 1175 1500C1175 1458.58 1141.42 1425 1100 1425C1058.58 1425 1025 1458.58 1025 1500C1025 1541.42 1058.58 1575 1100 1575Z" fill="#333333"/>
<path fill-rule="evenodd" clip-rule="evenodd" d="M1215 5C1209.48 5 1205 9.47715 1205 15V185C1205 190.523 1209.48 195 1215 195H1385C1390.52 195 1395 190.523 1395 185V15C1395 9.47715 1390.52 5 1385 5H1215ZM1300 175C1341.42 175 1375 141.421 1375 100C1375 58.5786 1341.42 25 1300 25C1258.58 25 1225 58.5786 1225 100C1225 141.421 1258.58 175 1300 175Z" fill="#333333"/>
<path fill-rule="evenodd" clip-rule="evenodd" d="M1215 205C1209.48 205 1205 209.477 1205 215V385C1205 390.523 1209.48 395 1215 395H1385C1390.52 395 1395 390.523 1395 385V215C1395 209.477 1390.52 205 1385 205H1215ZM1300 375C1341.42 375 1375 341.421 1375 300C1375 258.579 1341.42 225 1300 225C1258.58 225 1225 258.579 1225 300C1225 341.421 1258.58 375 1300 375Z" fill="#333333"/>
<path fill-rule="evenodd" clip-rule="evenodd" d="M1215 405C1209.48 405 1205 409.477 1205 415V585C1205 590.523 1209.48 595 1215 595H1385C1390.52 595 1395 590.523 1395 585V415C1395 409.477 1390.52 405 1385 405H1215ZM1300 575C1341.42 575 1375 541.421 1375 500C1375 458.579 1341.42 425 1300 425C1258.58 425 1225 458.579 1225 500C1225 541.421 1258.58 575 1300 575Z" fill="#333333"/>
<path fill-rule="evenodd" clip-rule="evenodd" d="M1215 605C1209.48 605 1205 609.477 1205 615V785C1205 790.523 1209.48 795 1215 795H1385C1390.52 795 1395 790.523 1395 785V615C1395 609.477 1390.52 605 1385 605H1215ZM1300 775C1341.42 775 1375 741.421 1375 700C1375 658.579 1341.42 625 1300 625C1258.58 625 1225 658.579 1225 700C1225 741.421 1258.58 775 1300 775Z" fill="#333333"/>
<path fill-rule="evenodd" clip-rule="evenodd" d="M1215 805C1209.48 805 1205 809.477 1205 815V985C1205 990.523 1209.48 995 1215 995H1385C1390.52 995 1395 990.523 1395 985V815C1395 809.477 1390.52 805 1385 805H1215ZM1300 975C1341.42 975 1375 941.421 1375 900C1375 858.579 1341.42 825 1300 825C1258.58 825 1225 858.579 1225 900C1225 941.421 1258.58 975 1300 975Z" fill="#333333"/>
<path fill-rule="evenodd" clip-rule="evenodd" d="M1215 1005C1209.48 1005 1205 1009.48 1205 1015V1185C1205 1190.52 1209.48 1195 1215 1195H1385C1390.52 1195 1395 1190.52 1395 1185V1015C1395 1009.48 1390.52 1005 1385 1005H1215ZM1300 1175C1341.42 1175 1375 1141.42 1375 1100C1375 1058.58 1341.42 1025 1300 1025C1258.58 1025 1225 1058.58 1225 1100C1225 1141.42 1258.58 1175 1300 1175Z" fill="#333333"/>
<path fill-rule="evenodd" clip-rule="evenodd" d="M1215 1205C1209.48 1205 1205 1209.48 1205 1215V1385C1205 1390.52 1209.48 1395 1215 1395H1385C1390.52 1395 1395 1390.52 1395 1385V1215C1395 1209.48 1390.52 1205 1385 1205H1215ZM1300 1375C1341.42 1375 1375 1341.42 1375 1300C1375 1258.58 1341.42 1225 1300 1225C1258.58 1225 1225 1258.58 1225 1300C1225 1341.42 1258.58 1375 1300 1375Z" fill="#333333"/>
<path fill-rule="evenodd" clip-rule="evenodd" d="M1215 1405C1209.48 1405 1205 1409.48 1205 1415V1585C1205 1590.52 1209.48 1595 1215 1595H1385C1390.52 1595 1395 1590.52 1395 1585V1415C1395 1409.48 1390.52 1405 1385 1405H1215ZM1300 1575C1341.42 1575 1375 1541.42 1375 1500C1375 1458.58 1341.42 1425 1300 1425C1258.58 1425 1225 1458.58 1225 1500C1225 1541.42 1258.58 1575 1300 1575Z" fill="#333333"/>
<path fill-rule="evenodd" clip-rule="evenodd" d="M1415 5C1409.48 5 1405 9.47715 1405 15V185C1405 190.523 1409.48 195 1415 195H1585C1590.52 195 1595 190.523 1595 185V15C1595 9.47715 1590.52 5 1585 5H1415ZM1500 175C1541.42 175 1575 141.421 1575 100C1575 58.5786 1541.42 25 1500 25C1458.58 25 1425 58.5786 1425 100C1425 141.421 1458.58 175 1500 175Z" fill="#333333"/>
<path fill-rule="evenodd" clip-rule="evenodd" d="M1415 205C1409.48 205 1405 209.477 1405 215V385C1405 390.523 1409.48 395 1415 395H1585C1590.52 395 1595 390.523 1595 385V215C1595 209.477 1590.52 205 1585 205H1415ZM1500 375C1541.42 375 1575 341.421 1575 300C1575 258.579 1541.42 225 1500 225C1458.58 225 1425 258.579 1425 300C1425 341.421 1458.58 375 1500 375Z" fill="#333333"/>
<path fill-rule="evenodd" clip-rule="evenodd" d="M1415 405C1409.48 405 1405 409.477 1405 415V585C1405 590.523 1409.48 595 1415 595H1585C1590.52 595 1595 590.523 1595 585V415C1595 409.477 1590.52 405 1585 405H1415ZM1500 575C1541.42 575 1575 541.421 1575 500C1575 458.579 1541.42 425 1500 425C1458.58 425 1425 458.579 1425 500C1425 541.421 1458.58 575 1500 575Z" fill="#333333"/>
<path fill-rule="evenodd" clip-rule="evenodd" d="M1415 605C1409.48 605 1405 609.477 1405 615V785C1405 790.523 1409.48 795 1415 795H1585C1590.52 795 1595 790.523 1595 785V615C1595 609.477 1590.52 605 1585 605H1415ZM1500 775C1541.42 775 1575 741.421 1575 700C1575 658.579 1541.42 625 1500 625C1458.58 625 1425 658.579 1425 700C1425 741.421 1458.58 775 1500 775Z" fill="#333333"/>
<path fill-rule="evenodd" clip-rule="evenodd" d="M1415 805C1409.48 805 1405 809.477 1405 815V985C1405 990.523 1409.48 995 1415 995H1585C1590.52 995 1595 990.523 1595 985V815C1595 809.477 1590.52 805 1585 805H1415ZM1500 975C1541.42 975 1575 941.421 1575 900C1575 858.579 1541.42 825 1500 825C1458.58 825 1425 858.579 1425 900C1425 941.421 1458.58 975 1500 975Z" fill="#333333"/>
<path fill-rule="evenodd" clip-rule="evenodd" d="M1415 1005C1409.48 1005 1405 1009.48 1405 1015V1185C1405 1190.52 1409.48 1195 1415 1195H1585C1590.52 1195 1595 1190.52 1595 1185V1015C1595 1009.48 1590.52 1005 1585 1005H1415ZM1500 1175C1541.42 1175 1575 1141.42 1575 1100C1575 1058.58 1541.42 1025 1500 1025C1458.58 1025 1425 1058.58 1425 1100C1425 1141.42 1458.58 1175 1500 1175Z" fill="#333333"/>
<path fill-rule="evenodd" clip-rule="evenodd" d="M1415 1205C1409.48 1205 1405 1209.48 1405 1215V1385C1405 1390.52 1409.48 1395 1415 1395H1585C1590.52 1395 1595 1390.52 1595 1385V1215C1595 1209.48 1590.52 1205 1585 1205H1415ZM1500 1375C1541.42 1375 1575 1341.42 1575 1300C1575 1258.58 1541.42 1225 1500 1225C1458.58 1225 1425 1258.58 1425 1300C1425 1341.42 1458.58 1375 1500 1375Z" fill="#333333"/>
<path fill-rule="evenodd" clip-rule="evenodd" d="M1415 1405C1409.48 1405 1405 1409.48 1405 1415V1585C1405 1590.52 1409.48 1595 1415 1595H1585C1590.52 1595 1595 1590.52 1595 1585V1415C1595 1409.48 1590.52 1405 1585 1405H1415ZM1500 1575C1541.42 1575 1575 1541.42 1575 1500C1575 1458.58 1541.42 1425 1500 1425C1458.58 1425 1425 1458.58 1425 1500C1425 1541.42 1458.58 1575 1500 1575Z" fill="#333333"/>
</svg>
