<svg width="1602" height="1602" viewBox="0 0 1602 1602" fill="none" xmlns="http://www.w3.org/2000/svg">
<path d="M1 1V0.5H0.5V1H1ZM201 1H201.5V0.5H201V1ZM201 201V201.5H201.5V201H201ZM1 201H0.5V201.5H1V201ZM1 1.5H201V0.5H1V1.5ZM200.5 1V201H201.5V1H200.5ZM201 200.5H1V201.5H201V200.5ZM1.5 201V1H0.5V201H1.5Z" fill="black"/>
<path d="M1 201V200.5H0.5V201H1ZM201 201H201.5V200.5H201V201ZM201 401V401.5H201.5V401H201ZM1 401H0.5V401.5H1V401ZM1 201.5H201V200.5H1V201.5ZM200.5 201V401H201.5V201H200.5ZM201 400.5H1V401.5H201V400.5ZM1.5 401V201H0.5V401H1.5Z" fill="black"/>
<path d="M1 401V400.5H0.5V401H1ZM201 401H201.5V400.5H201V401ZM201 601V601.5H201.5V601H201ZM1 601H0.5V601.5H1V601ZM1 401.5H201V400.5H1V401.5ZM200.5 401V601H201.5V401H200.5ZM201 600.5H1V601.5H201V600.5ZM1.5 601V401H0.5V601H1.5Z" fill="black"/>
<path d="M1 601V600.5H0.5V601H1ZM201 601H201.5V600.5H201V601ZM201 801V801.5H201.5V801H201ZM1 801H0.5V801.5H1V801ZM1 601.5H201V600.5H1V601.5ZM200.5 601V801H201.5V601H200.5ZM201 800.5H1V801.5H201V800.5ZM1.5 801V601H0.5V801H1.5Z" fill="black"/>
<path d="M1 801V800.5H0.5V801H1ZM201 801H201.5V800.5H201V801ZM201 1001V1001.5H201.5V1001H201ZM1 1001H0.5V1001.5H1V1001ZM1 801.5H201V800.5H1V801.5ZM200.5 801V1001H201.5V801H200.5ZM201 1000.5H1V1001.5H201V1000.5ZM1.5 1001V801H0.5V1001H1.5Z" fill="black"/>
<path d="M1 1001V1000.5H0.5V1001H1ZM201 1001H201.5V1000.5H201V1001ZM201 1201V1201.5H201.5V1201H201ZM1 1201H0.5V1201.5H1V1201ZM1 1001.5H201V1000.5H1V1001.5ZM200.5 1001V1201H201.5V1001H200.5ZM201 1200.5H1V1201.5H201V1200.5ZM1.5 1201V1001H0.5V1201H1.5Z" fill="black"/>
<path d="M1 1201V1200.5H0.5V1201H1ZM201 1201H201.5V1200.5H201V1201ZM201 1401V1401.5H201.5V1401H201ZM1 1401H0.5V1401.5H1V1401ZM1 1201.5H201V1200.5H1V1201.5ZM200.5 1201V1401H201.5V1201H200.5ZM201 1400.5H1V1401.5H201V1400.5ZM1.5 1401V1201H0.5V1401H1.5Z" fill="black"/>
<path d="M1 1401V1400.5H0.5V1401H1ZM201 1401H201.5V1400.5H201V1401ZM201 1601V1601.5H201.5V1601H201ZM1 1601H0.5V1601.5H1V1601ZM1 1401.5H201V1400.5H1V1401.5ZM200.5 1401V1601H201.5V1401H200.5ZM201 1600.5H1V1601.5H201V1600.5ZM1.5 1601V1401H0.5V1601H1.5Z" fill="black"/>
<path d="M201 1V0.5H200.5V1H201ZM401 1H401.5V0.5H401V1ZM401 201V201.5H401.5V201H401ZM201 201H200.5V201.5H201V201ZM201 1.5H401V0.5H201V1.5ZM400.5 1V201H401.5V1H400.5ZM401 200.5H201V201.5H401V200.5ZM201.5 201V1H200.5V201H201.5Z" fill="black"/>
<path d="M201 201V200.5H200.5V201H201ZM401 201H401.5V200.5H401V201ZM401 401V401.5H401.5V401H401ZM201 401H200.5V401.5H201V401ZM201 201.5H401V200.5H201V201.5ZM400.5 201V401H401.5V201H400.5ZM401 400.5H201V401.5H401V400.5ZM201.5 401V201H200.5V401H201.5Z" fill="black"/>
<path d="M201 401V400.5H200.5V401H201ZM401 401H401.5V400.5H401V401ZM401 601V601.5H401.5V601H401ZM201 601H200.5V601.5H201V601ZM201 401.5H401V400.5H201V401.5ZM400.5 401V601H401.5V401H400.5ZM401 600.5H201V601.5H401V600.5ZM201.5 601V401H200.5V601H201.5Z" fill="black"/>
<path d="M201 601V600.5H200.5V601H201ZM401 601H401.5V600.5H401V601ZM401 801V801.5H401.5V801H401ZM201 801H200.5V801.5H201V801ZM201 601.5H401V600.5H201V601.5ZM400.5 601V801H401.5V601H400.5ZM401 800.5H201V801.5H401V800.5ZM201.5 801V601H200.5V801H201.5Z" fill="black"/>
<path d="M201 801V800.5H200.5V801H201ZM401 801H401.5V800.5H401V801ZM401 1001V1001.5H401.5V1001H401ZM201 1001H200.5V1001.5H201V1001ZM201 801.5H401V800.5H201V801.5ZM400.5 801V1001H401.5V801H400.5ZM401 1000.5H201V1001.5H401V1000.5ZM201.5 1001V801H200.5V1001H201.5Z" fill="black"/>
<path d="M201 1001V1000.5H200.5V1001H201ZM401 1001H401.5V1000.5H401V1001ZM401 1201V1201.5H401.5V1201H401ZM201 1201H200.5V1201.5H201V1201ZM201 1001.5H401V1000.5H201V1001.5ZM400.5 1001V1201H401.5V1001H400.5ZM401 1200.5H201V1201.5H401V1200.5ZM201.5 1201V1001H200.5V1201H201.5Z" fill="black"/>
<path d="M201 1201V1200.5H200.5V1201H201ZM401 1201H401.5V1200.5H401V1201ZM401 1401V1401.5H401.5V1401H401ZM201 1401H200.5V1401.5H201V1401ZM201 1201.5H401V1200.5H201V1201.5ZM400.5 1201V1401H401.5V1201H400.5ZM401 1400.5H201V1401.5H401V1400.5ZM201.5 1401V1201H200.5V1401H201.5Z" fill="black"/>
<path d="M201 1401V1400.5H200.5V1401H201ZM401 1401H401.5V1400.5H401V1401ZM401 1601V1601.5H401.5V1601H401ZM201 1601H200.5V1601.5H201V1601ZM201 1401.5H401V1400.5H201V1401.5ZM400.5 1401V1601H401.5V1401H400.5ZM401 1600.5H201V1601.5H401V1600.5ZM201.5 1601V1401H200.5V1601H201.5Z" fill="black"/>
<path d="M401 1V0.5H400.5V1H401ZM601 1H601.5V0.5H601V1ZM601 201V201.5H601.5V201H601ZM401 201H400.5V201.5H401V201ZM401 1.5H601V0.5H401V1.5ZM600.5 1V201H601.5V1H600.5ZM601 200.5H401V201.5H601V200.5ZM401.5 201V1H400.5V201H401.5Z" fill="black"/>
<path d="M401 201V200.5H400.5V201H401ZM601 201H601.5V200.5H601V201ZM601 401V401.5H601.5V401H601ZM401 401H400.5V401.5H401V401ZM401 201.5H601V200.5H401V201.5ZM600.5 201V401H601.5V201H600.5ZM601 400.5H401V401.5H601V400.5ZM401.5 401V201H400.5V401H401.5Z" fill="black"/>
<path d="M401 401V400.5H400.5V401H401ZM601 401H601.5V400.5H601V401ZM601 601V601.5H601.5V601H601ZM401 601H400.5V601.5H401V601ZM401 401.5H601V400.5H401V401.5ZM600.5 401V601H601.5V401H600.5ZM601 600.5H401V601.5H601V600.5ZM401.5 601V401H400.5V601H401.5Z" fill="black"/>
<path d="M401 601V600.5H400.5V601H401ZM601 601H601.5V600.5H601V601ZM601 801V801.5H601.5V801H601ZM401 801H400.5V801.5H401V801ZM401 601.5H601V600.5H401V601.5ZM600.5 601V801H601.5V601H600.5ZM601 800.5H401V801.5H601V800.5ZM401.5 801V601H400.5V801H401.5Z" fill="black"/>
<path d="M401 801V800.5H400.5V801H401ZM601 801H601.5V800.5H601V801ZM601 1001V1001.5H601.5V1001H601ZM401 1001H400.5V1001.5H401V1001ZM401 801.5H601V800.5H401V801.5ZM600.5 801V1001H601.5V801H600.5ZM601 1000.5H401V1001.5H601V1000.5ZM401.5 1001V801H400.5V1001H401.5Z" fill="black"/>
<path d="M401 1001V1000.5H400.5V1001H401ZM601 1001H601.5V1000.5H601V1001ZM601 1201V1201.5H601.5V1201H601ZM401 1201H400.5V1201.5H401V1201ZM401 1001.5H601V1000.5H401V1001.5ZM600.5 1001V1201H601.5V1001H600.5ZM601 1200.5H401V1201.5H601V1200.5ZM401.5 1201V1001H400.5V1201H401.5Z" fill="black"/>
<path d="M401 1201V1200.5H400.5V1201H401ZM601 1201H601.5V1200.5H601V1201ZM601 1401V1401.5H601.5V1401H601ZM401 1401H400.5V1401.5H401V1401ZM401 1201.5H601V1200.5H401V1201.5ZM600.5 1201V1401H601.5V1201H600.5ZM601 1400.5H401V1401.5H601V1400.5ZM401.5 1401V1201H400.5V1401H401.5Z" fill="black"/>
<path d="M401 1401V1400.5H400.5V1401H401ZM601 1401H601.5V1400.5H601V1401ZM601 1601V1601.5H601.5V1601H601ZM401 1601H400.5V1601.5H401V1601ZM401 1401.5H601V1400.5H401V1401.5ZM600.5 1401V1601H601.5V1401H600.5ZM601 1600.5H401V1601.5H601V1600.5ZM401.5 1601V1401H400.5V1601H401.5Z" fill="black"/>
<path d="M601 1V0.5H600.5V1H601ZM801 1H801.5V0.5H801V1ZM801 201V201.5H801.5V201H801ZM601 201H600.5V201.5H601V201ZM601 1.5H801V0.5H601V1.5ZM800.5 1V201H801.5V1H800.5ZM801 200.5H601V201.5H801V200.5ZM601.5 201V1H600.5V201H601.5Z" fill="black"/>
<path d="M601 201V200.5H600.5V201H601ZM801 201H801.5V200.5H801V201ZM801 401V401.5H801.5V401H801ZM601 401H600.5V401.5H601V401ZM601 201.5H801V200.5H601V201.5ZM800.5 201V401H801.5V201H800.5ZM801 400.5H601V401.5H801V400.5ZM601.5 401V201H600.5V401H601.5Z" fill="black"/>
<path d="M601 401V400.5H600.5V401H601ZM801 401H801.5V400.5H801V401ZM801 601V601.5H801.5V601H801ZM601 601H600.5V601.5H601V601ZM601 401.5H801V400.5H601V401.5ZM800.5 401V601H801.5V401H800.5ZM801 600.5H601V601.5H801V600.5ZM601.5 601V401H600.5V601H601.5Z" fill="black"/>
<path d="M601 601V600.5H600.5V601H601ZM801 601H801.5V600.5H801V601ZM801 801V801.5H801.5V801H801ZM601 801H600.5V801.5H601V801ZM601 601.5H801V600.5H601V601.5ZM800.5 601V801H801.5V601H800.5ZM801 800.5H601V801.5H801V800.5ZM601.5 801V601H600.5V801H601.5Z" fill="black"/>
<path d="M601 801V800.5H600.5V801H601ZM801 801H801.5V800.5H801V801ZM801 1001V1001.5H801.5V1001H801ZM601 1001H600.5V1001.5H601V1001ZM601 801.5H801V800.5H601V801.5ZM800.5 801V1001H801.5V801H800.5ZM801 1000.5H601V1001.5H801V1000.5ZM601.5 1001V801H600.5V1001H601.5Z" fill="black"/>
<path d="M601 1001V1000.5H600.5V1001H601ZM801 1001H801.5V1000.5H801V1001ZM801 1201V1201.5H801.5V1201H801ZM601 1201H600.5V1201.5H601V1201ZM601 1001.5H801V1000.5H601V1001.5ZM800.5 1001V1201H801.5V1001H800.5ZM801 1200.5H601V1201.5H801V1200.5ZM601.5 1201V1001H600.5V1201H601.5Z" fill="black"/>
<path d="M601 1201V1200.5H600.5V1201H601ZM801 1201H801.5V1200.5H801V1201ZM801 1401V1401.5H801.5V1401H801ZM601 1401H600.5V1401.5H601V1401ZM601 1201.5H801V1200.5H601V1201.5ZM800.5 1201V1401H801.5V1201H800.5ZM801 1400.5H601V1401.5H801V1400.5ZM601.5 1401V1201H600.5V1401H601.5Z" fill="black"/>
<path d="M601 1401V1400.5H600.5V1401H601ZM801 1401H801.5V1400.5H801V1401ZM801 1601V1601.5H801.5V1601H801ZM601 1601H600.5V1601.5H601V1601ZM601 1401.5H801V1400.5H601V1401.5ZM800.5 1401V1601H801.5V1401H800.5ZM801 1600.5H601V1601.5H801V1600.5ZM601.5 1601V1401H600.5V1601H601.5Z" fill="black"/>
<path d="M801 1V0.5H800.5V1H801ZM1001 1H1001.5V0.5H1001V1ZM1001 201V201.5H1001.5V201H1001ZM801 201H800.5V201.5H801V201ZM801 1.5H1001V0.5H801V1.5ZM1000.5 1V201H1001.5V1H1000.5ZM1001 200.5H801V201.5H1001V200.5ZM801.5 201V1H800.5V201H801.5Z" fill="black"/>
<path d="M801 201V200.5H800.5V201H801ZM1001 201H1001.5V200.5H1001V201ZM1001 401V401.5H1001.5V401H1001ZM801 401H800.5V401.5H801V401ZM801 201.5H1001V200.5H801V201.5ZM1000.5 201V401H1001.5V201H1000.5ZM1001 400.5H801V401.5H1001V400.5ZM801.5 401V201H800.5V401H801.5Z" fill="black"/>
<path d="M801 401V400.5H800.5V401H801ZM1001 401H1001.5V400.5H1001V401ZM1001 601V601.5H1001.5V601H1001ZM801 601H800.5V601.5H801V601ZM801 401.5H1001V400.5H801V401.5ZM1000.5 401V601H1001.5V401H1000.5ZM1001 600.5H801V601.5H1001V600.5ZM801.5 601V401H800.5V601H801.5Z" fill="black"/>
<path d="M801 601V600.5H800.5V601H801ZM1001 601H1001.5V600.5H1001V601ZM1001 801V801.5H1001.5V801H1001ZM801 801H800.5V801.5H801V801ZM801 601.5H1001V600.5H801V601.5ZM1000.5 601V801H1001.5V601H1000.5ZM1001 800.5H801V801.5H1001V800.5ZM801.5 801V601H800.5V801H801.5Z" fill="black"/>
<path d="M801 801V800.5H800.5V801H801ZM1001 801H1001.5V800.5H1001V801ZM1001 1001V1001.5H1001.5V1001H1001ZM801 1001H800.5V1001.5H801V1001ZM801 801.5H1001V800.5H801V801.5ZM1000.5 801V1001H1001.5V801H1000.5ZM1001 1000.5H801V1001.5H1001V1000.5ZM801.5 1001V801H800.5V1001H801.5Z" fill="black"/>
<path d="M801 1001V1000.5H800.5V1001H801ZM1001 1001H1001.5V1000.5H1001V1001ZM1001 1201V1201.5H1001.5V1201H1001ZM801 1201H800.5V1201.5H801V1201ZM801 1001.5H1001V1000.5H801V1001.5ZM1000.5 1001V1201H1001.5V1001H1000.5ZM1001 1200.5H801V1201.5H1001V1200.5ZM801.5 1201V1001H800.5V1201H801.5Z" fill="black"/>
<path d="M801 1201V1200.5H800.5V1201H801ZM1001 1201H1001.5V1200.5H1001V1201ZM1001 1401V1401.5H1001.5V1401H1001ZM801 1401H800.5V1401.5H801V1401ZM801 1201.5H1001V1200.5H801V1201.5ZM1000.5 1201V1401H1001.5V1201H1000.5ZM1001 1400.5H801V1401.5H1001V1400.5ZM801.5 1401V1201H800.5V1401H801.5Z" fill="black"/>
<path d="M801 1401V1400.5H800.5V1401H801ZM1001 1401H1001.5V1400.5H1001V1401ZM1001 1601V1601.5H1001.5V1601H1001ZM801 1601H800.5V1601.5H801V1601ZM801 1401.5H1001V1400.5H801V1401.5ZM1000.5 1401V1601H1001.5V1401H1000.5ZM1001 1600.5H801V1601.5H1001V1600.5ZM801.5 1601V1401H800.5V1601H801.5Z" fill="black"/>
<path d="M1001 1V0.5H1000.5V1H1001ZM1201 1H1201.5V0.5H1201V1ZM1201 201V201.5H1201.5V201H1201ZM1001 201H1000.5V201.5H1001V201ZM1001 1.5H1201V0.5H1001V1.5ZM1200.5 1V201H1201.5V1H1200.5ZM1201 200.5H1001V201.5H1201V200.5ZM1001.5 201V1H1000.5V201H1001.5Z" fill="black"/>
<path d="M1001 201V200.5H1000.5V201H1001ZM1201 201H1201.5V200.5H1201V201ZM1201 401V401.5H1201.5V401H1201ZM1001 401H1000.5V401.5H1001V401ZM1001 201.5H1201V200.5H1001V201.5ZM1200.5 201V401H1201.5V201H1200.5ZM1201 400.5H1001V401.5H1201V400.5ZM1001.5 401V201H1000.5V401H1001.5Z" fill="black"/>
<path d="M1001 401V400.5H1000.5V401H1001ZM1201 401H1201.5V400.5H1201V401ZM1201 601V601.5H1201.5V601H1201ZM1001 601H1000.5V601.5H1001V601ZM1001 401.5H1201V400.5H1001V401.5ZM1200.5 401V601H1201.5V401H1200.5ZM1201 600.5H1001V601.5H1201V600.5ZM1001.5 601V401H1000.5V601H1001.5Z" fill="black"/>
<path d="M1001 601V600.5H1000.5V601H1001ZM1201 601H1201.5V600.5H1201V601ZM1201 801V801.5H1201.5V801H1201ZM1001 801H1000.5V801.5H1001V801ZM1001 601.5H1201V600.5H1001V601.5ZM1200.5 601V801H1201.5V601H1200.5ZM1201 800.5H1001V801.5H1201V800.5ZM1001.5 801V601H1000.5V801H1001.5Z" fill="black"/>
<path d="M1001 801V800.5H1000.5V801H1001ZM1201 801H1201.5V800.5H1201V801ZM1201 1001V1001.5H1201.5V1001H1201ZM1001 1001H1000.5V1001.5H1001V1001ZM1001 801.5H1201V800.5H1001V801.5ZM1200.5 801V1001H1201.5V801H1200.5ZM1201 1000.5H1001V1001.5H1201V1000.5ZM1001.5 1001V801H1000.5V1001H1001.5Z" fill="black"/>
<path d="M1001 1001V1000.5H1000.5V1001H1001ZM1201 1001H1201.5V1000.5H1201V1001ZM1201 1201V1201.5H1201.5V1201H1201ZM1001 1201H1000.5V1201.5H1001V1201ZM1001 1001.5H1201V1000.5H1001V1001.5ZM1200.5 1001V1201H1201.5V1001H1200.5ZM1201 1200.5H1001V1201.5H1201V1200.5ZM1001.5 1201V1001H1000.5V1201H1001.5Z" fill="black"/>
<path d="M1001 1201V1200.5H1000.5V1201H1001ZM1201 1201H1201.5V1200.5H1201V1201ZM1201 1401V1401.5H1201.5V1401H1201ZM1001 1401H1000.5V1401.5H1001V1401ZM1001 1201.5H1201V1200.5H1001V1201.5ZM1200.5 1201V1401H1201.5V1201H1200.5ZM1201 1400.5H1001V1401.5H1201V1400.5ZM1001.5 1401V1201H1000.5V1401H1001.5Z" fill="black"/>
<path d="M1001 1401V1400.5H1000.5V1401H1001ZM1201 1401H1201.5V1400.5H1201V1401ZM1201 1601V1601.5H1201.5V1601H1201ZM1001 1601H1000.5V1601.5H1001V1601ZM1001 1401.5H1201V1400.5H1001V1401.5ZM1200.5 1401V1601H1201.5V1401H1200.5ZM1201 1600.5H1001V1601.5H1201V1600.5ZM1001.5 1601V1401H1000.5V1601H1001.5Z" fill="black"/>
<path d="M1201 1V0.5H1200.5V1H1201ZM1401 1H1401.5V0.5H1401V1ZM1401 201V201.5H1401.5V201H1401ZM1201 201H1200.5V201.5H1201V201ZM1201 1.5H1401V0.5H1201V1.5ZM1400.5 1V201H1401.5V1H1400.5ZM1401 200.5H1201V201.5H1401V200.5ZM1201.5 201V1H1200.5V201H1201.5Z" fill="black"/>
<path d="M1201 201V200.5H1200.5V201H1201ZM1401 201H1401.5V200.5H1401V201ZM1401 401V401.5H1401.5V401H1401ZM1201 401H1200.5V401.5H1201V401ZM1201 201.5H1401V200.5H1201V201.5ZM1400.5 201V401H1401.5V201H1400.5ZM1401 400.5H1201V401.5H1401V400.5ZM1201.5 401V201H1200.5V401H1201.5Z" fill="black"/>
<path d="M1201 401V400.5H1200.5V401H1201ZM1401 401H1401.5V400.5H1401V401ZM1401 601V601.5H1401.5V601H1401ZM1201 601H1200.5V601.5H1201V601ZM1201 401.5H1401V400.5H1201V401.5ZM1400.5 401V601H1401.5V401H1400.5ZM1401 600.5H1201V601.5H1401V600.5ZM1201.5 601V401H1200.5V601H1201.5Z" fill="black"/>
<path d="M1201 601V600.5H1200.5V601H1201ZM1401 601H1401.5V600.5H1401V601ZM1401 801V801.5H1401.5V801H1401ZM1201 801H1200.5V801.5H1201V801ZM1201 601.5H1401V600.5H1201V601.5ZM1400.5 601V801H1401.5V601H1400.5ZM1401 800.5H1201V801.5H1401V800.5ZM1201.5 801V601H1200.5V801H1201.5Z" fill="black"/>
<path d="M1201 801V800.5H1200.5V801H1201ZM1401 801H1401.5V800.5H1401V801ZM1401 1001V1001.5H1401.5V1001H1401ZM1201 1001H1200.5V1001.5H1201V1001ZM1201 801.5H1401V800.5H1201V801.5ZM1400.5 801V1001H1401.5V801H1400.5ZM1401 1000.5H1201V1001.5H1401V1000.5ZM1201.5 1001V801H1200.5V1001H1201.5Z" fill="black"/>
<path d="M1201 1001V1000.5H1200.5V1001H1201ZM1401 1001H1401.5V1000.5H1401V1001ZM1401 1201V1201.5H1401.5V1201H1401ZM1201 1201H1200.5V1201.5H1201V1201ZM1201 1001.5H1401V1000.5H1201V1001.5ZM1400.5 1001V1201H1401.5V1001H1400.5ZM1401 1200.5H1201V1201.5H1401V1200.5ZM1201.5 1201V1001H1200.5V1201H1201.5Z" fill="black"/>
<path d="M1201 1201V1200.5H1200.5V1201H1201ZM1401 1201H1401.5V1200.5H1401V1201ZM1401 1401V1401.5H1401.5V1401H1401ZM1201 1401H1200.5V1401.5H1201V1401ZM1201 1201.5H1401V1200.5H1201V1201.5ZM1400.5 1201V1401H1401.5V1201H1400.5ZM1401 1400.5H1201V1401.5H1401V1400.5ZM1201.5 1401V1201H1200.5V1401H1201.5Z" fill="black"/>
<path d="M1201 1401V1400.5H1200.5V1401H1201ZM1401 1401H1401.5V1400.5H1401V1401ZM1401 1601V1601.5H1401.5V1601H1401ZM1201 1601H1200.5V1601.5H1201V1601ZM1201 1401.5H1401V1400.5H1201V1401.5ZM1400.5 1401V1601H1401.5V1401H1400.5ZM1401 1600.5H1201V1601.5H1401V1600.5ZM1201.5 1601V1401H1200.5V1601H1201.5Z" fill="black"/>
<path d="M1401 1V0.5H1400.5V1H1401ZM1601 1H1601.5V0.5H1601V1ZM1601 201V201.5H1601.5V201H1601ZM1401 201H1400.5V201.5H1401V201ZM1401 1.5H1601V0.5H1401V1.5ZM1600.5 1V201H1601.5V1H1600.5ZM1601 200.5H1401V201.5H1601V200.5ZM1401.5 201V1H1400.5V201H1401.5Z" fill="black"/>
<path d="M1401 201V200.5H1400.5V201H1401ZM1601 201H1601.5V200.5H1601V201ZM1601 401V401.5H1601.5V401H1601ZM1401 401H1400.5V401.5H1401V401ZM1401 201.5H1601V200.5H1401V201.5ZM1600.5 201V401H1601.5V201H1600.5ZM1601 400.5H1401V401.5H1601V400.5ZM1401.5 401V201H1400.5V401H1401.5Z" fill="black"/>
<path d="M1401 401V400.5H1400.5V401H1401ZM1601 401H1601.5V400.5H1601V401ZM1601 601V601.5H1601.5V601H1601ZM1401 601H1400.5V601.5H1401V601ZM1401 401.5H1601V400.5H1401V401.5ZM1600.5 401V601H1601.5V401H1600.5ZM1601 600.5H1401V601.5H1601V600.5ZM1401.5 601V401H1400.5V601H1401.5Z" fill="black"/>
<path d="M1401 601V600.5H1400.5V601H1401ZM1601 601H1601.5V600.5H1601V601ZM1601 801V801.5H1601.5V801H1601ZM1401 801H1400.5V801.5H1401V801ZM1401 601.5H1601V600.5H1401V601.5ZM1600.5 601V801H1601.5V601H1600.5ZM1601 800.5H1401V801.5H1601V800.5ZM1401.5 801V601H1400.5V801H1401.5Z" fill="black"/>
<path d="M1401 801V800.5H1400.5V801H1401ZM1601 801H1601.5V800.5H1601V801ZM1601 1001V1001.5H1601.5V1001H1601ZM1401 1001H1400.5V1001.5H1401V1001ZM1401 801.5H1601V800.5H1401V801.5ZM1600.5 801V1001H1601.5V801H1600.5ZM1601 1000.5H1401V1001.5H1601V1000.5ZM1401.5 1001V801H1400.5V1001H1401.5Z" fill="black"/>
<path d="M1401 1001V1000.5H1400.5V1001H1401ZM1601 1001H1601.5V1000.5H1601V1001ZM1601 1201V1201.5H1601.5V1201H1601ZM1401 1201H1400.5V1201.5H1401V1201ZM1401 1001.5H1601V1000.5H1401V1001.5ZM1600.5 1001V1201H1601.5V1001H1600.5ZM1601 1200.5H1401V1201.5H1601V1200.5ZM1401.5 1201V1001H1400.5V1201H1401.5Z" fill="black"/>
<path d="M1401 1201V1200.5H1400.5V1201H1401ZM1601 1201H1601.5V1200.5H1601V1201ZM1601 1401V1401.5H1601.5V1401H1601ZM1401 1401H1400.5V1401.5H1401V1401ZM1401 1201.5H1601V1200.5H1401V1201.5ZM1600.5 1201V1401H1601.5V1201H1600.5ZM1601 1400.5H1401V1401.5H1601V1400.5ZM1401.5 1401V1201H1400.5V1401H1401.5Z" fill="black"/>
<path d="M1401 1401V1400.5H1400.5V1401H1401ZM1601 1401H1601.5V1400.5H1601V1401ZM1601 1601V1601.5H1601.5V1601H1601ZM1401 1601H1400.5V1601.5H1401V1601ZM1401 1401.5H1601V1400.5H1401V1401.5ZM1600.5 1401V1601H1601.5V1401H1600.5ZM1601 1600.5H1401V1601.5H1601V1600.5ZM1401.5 1601V1401H1400.5V1601H1401.5Z" fill="black"/>
</svg>
