<svg width="200" height="200" viewBox="0 0 200 200" fill="none" xmlns="http://www.w3.org/2000/svg">
<circle cx="20.8" cy="20.8" r="10.8" fill="#333333"/>
<circle cx="59.8" cy="20.8" r="10.8" fill="#333333"/>
<circle cx="99.8" cy="20.8" r="10.8" fill="#333333"/>
<circle cx="138.8" cy="20.8" r="10.8" fill="#333333"/>
<circle cx="178.8" cy="20.8" r="10.8" fill="#333333"/>
<circle cx="20.8" cy="60.8" r="10.8" fill="#333333"/>
<circle cx="59.8" cy="60.8" r="10.8" fill="#333333"/>
<circle cx="99.8" cy="60.8" r="10.8" fill="#333333"/>
<circle cx="138.8" cy="60.8" r="10.8" fill="#333333"/>
<circle cx="178.8" cy="60.8" r="10.8" fill="#333333"/>
<circle cx="20.8" cy="99.8" r="10.8" fill="#333333"/>
<circle cx="59.8" cy="99.8" r="10.8" fill="#333333"/>
<circle cx="99.8" cy="99.8" r="10.8" fill="#333333"/>
<circle cx="138.8" cy="99.8" r="10.8" fill="#333333"/>
<circle cx="178.8" cy="99.8" r="10.8" fill="#333333"/>
<circle cx="20.8" cy="139.8" r="10.8" fill="#333333"/>
<circle cx="59.8" cy="139.8" r="10.8" fill="#333333"/>
<circle cx="99.8" cy="139.8" r="10.8" fill="#333333"/>
<circle cx="138.8" cy="139.8" r="10.8" fill="#333333"/>
<circle cx="178.8" cy="139.8" r="10.8" fill="#333333"/>
<circle cx="20.8" cy="178.8" r="10.8" fill="#333333"/>
<circle cx="59.8" cy="178.8" r="10.8" fill="#333333"/>
<circle cx="99.8" cy="178.8" r="10.8" fill="#333333"/>
<circle cx="138.8" cy="178.8" r="10.8" fill="#333333"/>
<circle cx="178.8" cy="178.8" r="10.8" fill="#333333"/>
</svg>
