<svg width="200" height="200" viewBox="0 0 200 200" fill="none" xmlns="http://www.w3.org/2000/svg">
<circle cx="18.6" cy="18.6" r="3.6" fill="#333333"/>
<circle cx="59.6" cy="18.6" r="3.6" fill="#333333"/>
<circle cx="99.6" cy="18.6" r="3.6" fill="#333333"/>
<circle cx="140.6" cy="18.6" r="3.6" fill="#333333"/>
<circle cx="181.6" cy="18.6" r="3.6" fill="#333333"/>
<circle cx="18.6" cy="59.6" r="3.6" fill="#333333"/>
<circle cx="59.6" cy="59.6" r="3.6" fill="#333333"/>
<circle cx="99.6" cy="59.6" r="3.6" fill="#333333"/>
<circle cx="140.6" cy="59.6" r="3.6" fill="#333333"/>
<circle cx="181.6" cy="59.6" r="3.6" fill="#333333"/>
<circle cx="18.6" cy="100.6" r="3.6" fill="#333333"/>
<circle cx="59.6" cy="100.6" r="3.6" fill="#333333"/>
<circle cx="99.6" cy="100.6" r="3.6" fill="#333333"/>
<circle cx="140.6" cy="100.6" r="3.6" fill="#333333"/>
<circle cx="181.6" cy="100.6" r="3.6" fill="#333333"/>
<circle cx="18.6" cy="140.6" r="3.6" fill="#333333"/>
<circle cx="59.6" cy="140.6" r="3.6" fill="#333333"/>
<circle cx="99.6" cy="140.6" r="3.6" fill="#333333"/>
<circle cx="140.6" cy="140.6" r="3.6" fill="#333333"/>
<circle cx="181.6" cy="140.6" r="3.6" fill="#333333"/>
<circle cx="18.6" cy="181.6" r="3.6" fill="#333333"/>
<circle cx="59.6" cy="181.6" r="3.6" fill="#333333"/>
<circle cx="99.6" cy="181.6" r="3.6" fill="#333333"/>
<circle cx="140.6" cy="181.6" r="3.6" fill="#333333"/>
<circle cx="181.6" cy="181.6" r="3.6" fill="#333333"/>
</svg>
