<svg width="200" height="200" viewBox="0 0 200 200" fill="none" xmlns="http://www.w3.org/2000/svg">
<circle cx="19.2" cy="19.2" r="7.2" fill="#333333"/>
<circle cx="19.2" cy="59.2" r="7.2" fill="#333333"/>
<circle cx="19.2" cy="100.2" r="7.2" fill="#333333"/>
<circle cx="19.2" cy="140.2" r="7.2" fill="#333333"/>
<circle cx="19.2" cy="180.2" r="7.2" fill="#333333"/>
<circle cx="59.2" cy="19.2" r="7.2" fill="#333333"/>
<circle cx="59.2" cy="59.2" r="7.2" fill="#333333"/>
<circle cx="59.2" cy="100.2" r="7.2" fill="#333333"/>
<circle cx="59.2" cy="140.2" r="7.2" fill="#333333"/>
<circle cx="59.2" cy="180.2" r="7.2" fill="#333333"/>
<circle cx="99.2" cy="19.2" r="7.2" fill="#333333"/>
<circle cx="99.2" cy="59.2" r="7.2" fill="#333333"/>
<circle cx="99.2" cy="100.2" r="7.2" fill="#333333"/>
<circle cx="99.2" cy="140.2" r="7.2" fill="#333333"/>
<circle cx="99.2" cy="180.2" r="7.2" fill="#333333"/>
<circle cx="140.2" cy="19.2" r="7.2" fill="#333333"/>
<circle cx="140.2" cy="59.2" r="7.2" fill="#333333"/>
<circle cx="140.2" cy="100.2" r="7.2" fill="#333333"/>
<circle cx="140.2" cy="140.2" r="7.2" fill="#333333"/>
<circle cx="140.2" cy="180.2" r="7.2" fill="#333333"/>
<circle cx="180.2" cy="19.2" r="7.2" fill="#333333"/>
<circle cx="180.2" cy="59.2" r="7.2" fill="#333333"/>
<circle cx="180.2" cy="100.2" r="7.2" fill="#333333"/>
<circle cx="180.2" cy="140.2" r="7.2" fill="#333333"/>
<circle cx="180.2" cy="180.2" r="7.2" fill="#333333"/>
</svg>
