<svg width="200" height="200" viewBox="0 0 200 200" fill="none" xmlns="http://www.w3.org/2000/svg">
<path fill-rule="evenodd" clip-rule="evenodd" d="M5 147.5C5 121.266 26.2665 100 52.5 100H147.5C173.734 100 195 121.266 195 147.5V147.5C195 173.734 173.734 195 147.5 195H52.5C26.2665 195 5 173.734 5 147.5V147.5Z" fill="#333333"/>
<path fill-rule="evenodd" clip-rule="evenodd" d="M195 52.5C195 26.2665 173.734 5 147.5 5H52.5002C26.2667 5 5.00024 26.2665 5.00024 52.5V52.5C5.00024 78.7335 26.2667 100 52.5002 100H147.5C173.734 100 195 78.7335 195 52.5V52.5Z" fill="#333333"/>
</svg>
