<svg xmlns="http://www.w3.org/2000/svg" width="242" height="239" viewBox="0 0 242 239" xmlns:xlink="http://www.w3.org/1999/xlink" data-ember-extension="1">
  <defs>
    <path id="a" d="M14.8845535,29.1157153 C13.7135451,27.944707 13.7164906,26.0431818 14.8867593,24.8729132 L24.8191777,14.9404948 C25.9914042,13.7682682 27.8928243,13.7691335 29.0619798,14.938289 L41.834295,27.7106042 C43.0053034,28.8816126 43.0023579,30.7831377 41.8320892,31.9534064 L31.8996708,41.8858248 C30.7274443,43.0580513 28.8260242,43.057186 27.6568687,41.8880305 L14.8845535,29.1157153 Z"/>
    <mask id="b" width="28.703" height="28.704" x="0" y="0" fill="white">
      <use xlink:href="#a"/>
    </mask>
  </defs>
  <g fill="none" fill-rule="evenodd" transform="translate(2 2)">
    <use stroke="#FFFFFF" stroke-width="8" mask="url(#b)" xlink:href="#a"/>
    <polygon stroke="#FFFFFF" stroke-width="4" points="41.681 11.005 84.701 24.945 70.161 39.486" stroke-linecap="round" stroke-linejoin="round"/>
    <polygon stroke="#FFFFFF" stroke-width="4" points="11.221 42.465 25.161 85.486 39.701 70.945" stroke-linecap="round" stroke-linejoin="round"/>
    <path stroke="#FFFFFF" stroke-width="4" d="M45.5938221,14.8756526 C24.1503997,-4.79741995 4.1621885,1.16372138 4.1621885,1.16372138 C3.08336456,1.39726089 1.97157368,2.45888328 1.72955694,3.52863603 C1.72955694,3.52863603 -5.06037195,24.4133517 14.6127006,45.8567741 L43.9545932,75.1986666 L75.1449311,44.0083287 L45.5938221,14.8756526 Z" stroke-linecap="round" stroke-linejoin="round"/>
    <path stroke="#FFFFFF" stroke-width="4" d="M54.8980225 66.1037576L58.0116014 77.7237923 54.8980225 66.1037576zM52 68L58.0116014 77.7237923 52 68zM66.9488349 55.4706879L78.5688696 58.5842668 66.9488349 55.4706879zM68 53L78.5688696 58.5842668 68 53z" stroke-linecap="round"/>
    <g fill="#FFFFFF" stroke="#FFFFFF" transform="rotate(135 77.276 159.57)">
      <path d="M20.2750249,20.2750249 C24.4961543,20.2750249 28.0266248,16.7268956 28.0266248,12.3650619 C28.0266248,8.51145547 25.1802729,6.28255439 20.2750249,6.28255439 C15.369777,6.28255439 12.5234251,8.51145547 12.5234251,12.3650619 C12.5234251,16.7268956 16.0538956,20.2750249 20.2750249,20.2750249 Z M20.2750249,8.31005689 C24.1024264,8.31005689 26.0645256,9.7306603 26.0645256,12.3650619 C26.0645256,15.6077142 23.5151047,18.2475224 20.2750249,18.2475224 C17.0349451,18.2475224 14.4855243,15.6131209 14.4855243,12.3650619 C14.4855243,9.7306603 16.4476235,8.31005689 20.2750249,8.31005689 Z"/>
      <path d="M33.2222634,83.1276022 L32.9266405,83.1276022 L32.9266405,59.8113236 C33.6107591,60.3181992 34.5918087,60.6250279 35.4760614,60.6250279 L35.9718184,60.6250279 C38.5212393,60.6250279 40.4833385,58.4961503 40.4833385,55.9617722 L40.4833385,34.7743711 C40.4833385,30.7193661 39.108561,26.7643846 36.655937,23.7231308 L36.655937,11.964968 C36.655937,9.73606697 34.8887397,7.90996306 32.7317386,7.90996306 L31.0665705,7.90996306 C29.2980651,3.54812936 25.1802729,0.506875623 20.2750249,0.506875623 C15.4665739,0.506875623 11.2519848,3.54812936 9.48347941,7.90996306 L8.40563292,7.90996306 L8.40563292,3.34808245 C8.40563292,2.7398317 8.01190502,2.3343312 7.42458333,2.3343312 C6.83726164,2.3343312 6.44353373,2.7398317 6.44353373,3.34808245 L6.44353373,8.11000997 C4.87516245,8.6168856 3.69397874,10.1375125 3.69397874,11.964968 L3.69397874,23.8231543 L3.69397874,24.0232012 C1.43625661,27.064455 0.0667113724,30.8139829 0.0667113724,34.8689879 L0.0667113724,56.0523339 C0.0667113724,58.6867355 2.12560745,60.714238 4.57823144,60.714238 L5.06875623,60.714238 C6.04980583,60.714238 6.93405853,60.4074093 7.61817711,59.9005337 L7.61817711,83.1276022 L7.12765231,83.1276022 C3.50038495,83.1276022 0.557236169,86.168856 0.557236169,89.8170088 C0.557236169,91.4376591 1.83390871,92.6582156 3.40358806,92.6582156 L18.3129257,92.6582156 C18.9002474,92.6582156 19.2939753,92.2513635 19.2939753,91.6444644 L19.2939753,68.2281622 C19.2939753,67.7212866 19.6877032,67.3144345 20.178228,67.3144345 C20.6687528,67.3144345 21.0624807,67.7212866 21.0624807,68.2281622 L21.0624807,91.7444878 C21.0624807,92.3513869 21.4549006,92.7582391 22.0435303,92.7582391 L36.952868,92.7582391 C38.5212393,92.7582391 39.7992199,91.4376591 39.7992199,89.9170323 C39.7992199,86.168856 36.8560711,83.1276022 33.2222634,83.1276022 Z M38.5212393,55.9563655 C38.5212393,57.4769924 37.3465959,58.5921187 35.9718184,58.5921187 L35.4812936,58.5921187 C34.0097192,58.5921187 32.9318728,57.3769689 32.9318728,55.9563655 L32.9318728,55.249443 L38.6232685,55.249443 L38.6232685,55.9563655 L38.5212393,55.9563655 Z M38.1275114,31.5263121 L35.0875657,31.5263121 L35.0875657,29.4988096 L37.5401897,29.4988096 C37.8371207,30.1057087 38.0307145,30.8193896 38.1275114,31.5263121 Z M32.7317386,9.93746556 C33.8108932,9.93746556 34.6938378,10.8498417 34.6938378,11.964968 L34.6938378,21.5956049 C33.3203684,20.3804551 31.848794,19.3667038 30.1823178,18.5543512 C31.2601643,16.7268956 31.9508232,14.5993696 31.9508232,12.3704685 C31.9508232,11.5581159 31.8540263,10.7498182 31.6538922,9.93746556 L32.7317386,9.93746556 Z M20.2750249,2.53437812 C25.5740008,2.53437812 29.8919271,6.89621182 29.8919271,12.3650619 C29.8919271,17.8406703 25.5740008,22.1970973 20.2750249,22.1970973 C14.9760491,22.1970973 10.6581228,17.8352636 10.6581228,12.3650619 C10.6581228,6.89080514 14.9760491,2.53437812 20.2750249,2.53437812 Z M7.61817711,9.93746556 L8.89615772,9.93746556 C8.70125586,10.7498182 8.59922671,11.5581159 8.59922671,12.3704685 C8.59922671,14.5993696 9.28465336,16.7323022 10.3677321,18.5543512 C8.59922671,19.3667038 7.03085542,20.4804785 5.55928103,21.7956518 L5.55928103,11.964968 C5.65607792,10.844435 6.54033062,9.93746556 7.61817711,9.93746556 Z M5.06875623,58.5975254 L4.57823144,58.5975254 C3.10665705,58.5975254 2.02881056,57.3823756 2.02881056,55.9617722 L2.02881056,55.2548496 L7.72020627,55.2548496 L7.72020627,55.9617722 C7.71497401,57.3769689 6.54033062,58.5975254 5.06875623,58.5975254 Z M36.952868,90.7307366 L23.0245799,90.7307366 L23.0245799,85.1551047 L25.1802729,85.1551047 C25.7675946,85.1551047 26.1613225,84.7482526 26.1613225,84.1413535 C26.1613225,83.5344544 25.7675946,83.1276022 25.1802729,83.1276022 L23.1213768,83.1276022 L23.1213768,68.2281622 C23.1213768,66.6061603 21.8433962,65.286932 20.2750249,65.286932 C18.7066537,65.286932 17.428673,66.6061603 17.428673,68.2281622 L17.428673,83.1276022 L15.369777,83.1276022 C14.7824553,83.1276022 14.3887274,83.5344544 14.3887274,84.1413535 C14.3887274,84.7482526 14.7824553,85.1551047 15.369777,85.1551047 L17.3318762,85.1551047 L17.3318762,90.7307366 L3.40358806,90.7307366 C2.91306326,90.7307366 2.51933536,90.3238844 2.51933536,89.9170323 C2.51933536,87.2826307 4.57823144,85.2551282 7.12765231,85.2551282 C8.89615772,85.2551282 10.5613259,85.9634024 11.8393065,87.2826307 C12.0329003,87.4840293 12.3298313,87.5894594 12.5234251,87.5894594 C12.8203561,87.5894594 13.0139499,87.4894359 13.2088517,87.2826307 C13.6012716,86.8757785 13.6012716,86.2688794 13.2088517,85.8620273 C12.2278021,84.7482526 10.9498215,84.0359234 9.5802763,83.6344779 L9.5802763,36.3950214 C9.5802763,35.7881224 9.1865484,35.3812702 8.59922671,35.3812702 C8.01190502,35.3812702 7.61817711,35.7881224 7.61817711,36.3950214 L7.61817711,53.2219405 L1.9267814,53.2219405 L1.9267814,34.7743711 C1.9267814,28.3850349 5.75287482,22.6093561 11.5423755,20.1750015 C13.6993765,22.6093561 16.7445545,24.129983 20.178228,24.129983 C23.6119016,24.129983 26.6518473,22.6093561 28.8127725,20.1750015 C32.2464461,21.5956049 34.8939719,24.2300065 36.5643724,27.3712837 L34.0149515,27.3712837 C33.4276298,27.3712837 33.0339019,27.7781358 33.0339019,28.3850349 L33.0339019,32.4400399 C33.0339019,33.046939 33.4276298,33.4537911 34.0149515,33.4537911 L38.3328778,33.4537911 C38.3328778,33.8606433 38.4296747,34.2674955 38.4296747,34.6675893 L38.4296747,53.1165103 L32.7369709,53.1165103 L32.7369709,36.294998 C32.7369709,35.6867472 32.3445511,35.2812467 31.7559213,35.2812467 C31.1685996,35.2812467 30.7748717,35.6867472 30.7748717,36.294998 L30.7748717,83.5344544 C29.3032973,83.9413066 28.0266248,84.7482526 26.9487783,85.8674339 C26.5550504,86.2742861 26.5550504,86.8811852 26.9487783,87.2880374 C27.1423721,87.4894359 27.3411981,87.5948661 27.6328969,87.5948661 C27.9298279,87.5948661 28.1234217,87.4934909 28.3170155,87.2880374 C29.5949961,85.9688091 31.1633674,85.2605349 33.0286697,85.2605349 C35.5780905,85.2605349 37.6369866,87.3880608 37.6369866,89.9224389 C37.8371207,90.3238844 37.4433928,90.7307366 36.952868,90.7307366 Z"/>
    </g>
    <path fill="#FFFFFF" stroke="#FFFFFF" d="M238.054813,135.92339 C238.41366,134.23515 238.640529,132.830584 238.627349,131.575035 C238.614338,130.318688 238.334615,129.168182 237.639674,128.226144 C236.249793,126.342068 233.754386,125.59661 229.801335,124.756363 L190.94309,116.496788 C190.608476,115.071229 189.621523,114.981469 188.787282,114.784975 C188.161269,114.651912 187.469204,115.104094 187.33614,115.730107 L180.190397,149.348187 C180.056656,149.97739 180.505648,150.668777 181.131661,150.80184 C182.007081,151.004586 182.952177,151.091284 183.779005,150.110969 L207.16078,155.080919 C207.070587,155.599354 206.966448,156.12066 206.808015,156.556243 C206.652496,157.134974 206.402411,157.241015 206.056191,157.336624 C203.287752,156.146388 201.381331,155.421936 199.701863,155.064954 C196.297366,154.416321 190.976768,155.108254 190.041167,158.97269 C189.541672,161.279496 190.351937,163.333763 192.986745,164.599782 C201.656991,167.543751 205.867949,167.429451 212.67877,167.353501 C215.108982,167.378294 217.702632,166.206751 219.931566,165.033532 C221.466785,164.210459 222.862925,163.37116 224.256379,162.422934 C224.73717,162.200065 225.012056,161.734224 225.200823,161.289251 C225.260527,160.68682 224.807852,160.075499 224.212621,159.962315 C223.79989,159.884588 223.517476,160.032934 223.186743,160.196847 C221.773641,161.143397 220.154897,162.143755 218.789546,162.869575 C218.053014,163.256461 217.268785,163.620707 216.492723,163.930843 C216.957846,161.636735 215.478319,159.362697 213.19118,158.876551 C210.892876,158.388031 208.601213,159.883816 208.111337,162.188499 C207.906064,163.154234 208.041294,164.113995 208.443826,164.945537 C201.14643,165.087263 198.975967,164.499225 194.045208,162.37678 C192.802399,161.624183 192.185826,160.587947 192.432894,159.484401 C193.871391,157.159642 196.729611,156.96285 199.190629,157.470119 C201.418487,158.125368 203.622818,158.981489 205.503578,159.752164 C207.340058,159.950815 208.523697,158.977996 209.110038,157.39979 C209.335758,156.78097 209.475401,156.139686 209.571646,155.596698 L222.654914,158.377633 C226.607965,159.217879 229.190837,159.551843 231.22688,158.39597 C232.244901,157.818033 232.968394,156.880767 233.491282,155.738329 C234.01417,154.595891 234.378034,153.221278 234.736881,151.533038 L238.054813,135.92339 Z M232.345153,151.021326 C232.002071,152.635402 231.677132,153.858257 231.29029,154.69788 C230.90294,155.539896 230.513777,155.974779 230.022426,156.251248 C229.041439,156.807884 226.995302,156.783879 223.166656,155.970075 C210.197068,153.203302 197.267273,150.464992 184.290069,147.706602 C183.829132,147.608627 183.390256,147.697043 183.018436,147.807214 L189.290878,118.297692 C189.591613,118.55332 189.964182,118.792544 190.433891,118.892383 L229.292136,127.151958 C233.120782,127.965762 234.999954,128.775274 235.669726,129.682789 C236.006148,130.135207 236.184782,130.690779 236.196166,131.617549 C236.20738,132.545115 236.007355,133.792021 235.664442,135.405299 L232.345153,151.021326 Z M232.754237,131.541074 C232.82368,130.939879 232.382439,130.32182 231.789242,130.199066 L218.631013,127.402198 C218.005,127.269135 217.312934,127.721317 217.179871,128.34733 L212.585888,149.960319 C212.452147,150.589522 212.90114,151.28091 213.527152,151.413973 L226.685382,154.210841 C227.312192,154.344073 228.00346,153.891722 228.136523,153.265709 L232.754237,131.541074 Z M230.082484,132.34678 L225.999056,151.557795 L215.233233,149.269448 L219.31666,130.058434 L230.082484,132.34678 Z M214.093029,163.456613 C213.905554,164.338613 213.140083,164.924389 212.279615,164.914025 C211.127848,164.74089 210.344499,163.571686 210.504421,162.693831 C210.718847,161.685033 211.675695,161.061587 212.681302,161.275336 C213.687708,161.489254 214.307455,162.447816 214.093029,163.456613 Z"/>
    <g fill="#FFFFFF" transform="scale(1 -1) rotate(67 251.996 18.146)">
      <path stroke="#FFFFFF" d="M19.4091156,0 L8.37926577,0 C8.12275763,0 7.73799543,0.12838561 7.48148729,0.385156831 L6.19894661,1.66901294 C6.07069254,1.79739855 5.94243848,1.79739855 5.81418441,1.66901294 L4.53164373,0.385156831 C4.01862746,-0.12838561 3.24910305,-0.12838561 2.73608678,0.385156831 L0.555767627,2.69609782 C0.0427513559,3.20964026 0.0427513559,3.97995392 0.555767627,4.49349637 L1.83830831,5.77735247 C1.96656237,5.90573808 1.96656237,6.03412369 1.83830831,6.1625093 L0.555767627,7.44636541 C0.299259492,7.57475102 0.171005424,7.95990785 0.171005424,8.21667907 L0.171005424,24.393266 C0.171005424,25.035194 0.812275763,25.6771221 1.4535461,25.6771221 L19.4091156,25.6771221 C20.17864,25.6771221 20.6916563,25.035194 20.6916563,24.393266 L20.6916563,1.2838561 C20.6916563,0.513542442 20.17864,0 19.4091156,0 Z M16.459272,19.6429984 C16.9722883,20.1565408 16.9722883,20.9268545 16.459272,21.4403969 C16.2027639,21.6971682 15.4332395,22.2107106 14.6637151,21.4403969 L13.7659366,20.5416977 L7.09672509,20.5416977 L6.19894661,21.4403969 C5.42942221,22.082325 4.6598978,21.6971682 4.40338966,21.4403969 C3.89037339,20.9268545 3.89037339,20.1565408 4.40338966,19.6429984 L5.30116814,18.7442991 L5.30116814,12.0682474 L4.40338966,11.1695481 C3.89037339,10.6560057 3.89037339,9.88569201 4.40338966,9.37214956 C4.91640593,8.85860712 5.68593034,8.85860712 6.19894661,9.37214956 L7.09672509,10.2708488 L13.7659366,10.2708488 L14.6637151,9.37214956 C15.1767314,8.85860712 15.9462558,8.85860712 16.459272,9.37214956 C16.9722883,9.88569201 16.9722883,10.6560057 16.459272,11.1695481 L15.5614936,12.0682474 L15.5614936,18.6159135 L16.459272,19.6429984 Z M16.2027639,6.41928052 L9.79006051,6.41928052 C8.76402797,6.41928052 7.86624949,5.52058125 7.86624949,4.49349637 C7.86624949,3.46641148 8.76402797,2.56771221 9.79006051,2.56771221 L16.2027639,2.56771221 C17.2287964,2.56771221 18.1265749,3.46641148 18.1265749,4.49349637 C18.1265749,5.52058125 17.2287964,6.41928052 16.2027639,6.41928052 Z"/>
      <path d="M12.2268878,12.838561 L8.6357739,12.838561 C8.2510117,12.838561 7.86624949,13.2237179 7.86624949,13.6088747 L7.86624949,17.2036718 C7.86624949,17.5888286 8.2510117,17.9739855 8.6357739,17.9739855 L12.2268878,17.9739855 C12.61165,17.9739855 12.9964122,17.5888286 12.9964122,17.2036718 L12.9964122,13.6088747 C12.9964122,13.2237179 12.61165,12.838561 12.2268878,12.838561 Z"/>
    </g>
    <g fill="#FFFFFF" transform="translate(43 45)">
      <path d="M72.5,144.318135 C32.8967082,144.318135 0.681864649,112.095228 0.681864649,72.5 C0.681864649,32.904772 32.8967082,0.681864649 72.5,0.681864649 C112.095228,0.681864649 144.318135,32.904772 144.318135,72.5 C144.318135,112.095228 112.095228,144.318135 72.5,144.318135 Z M72.5,5.03631159 C35.2997178,5.03631159 5.03631159,35.2997178 5.03631159,72.5 C5.03631159,109.700282 35.2997178,139.963688 72.5,139.963688 C109.700282,139.963688 139.963688,109.700282 139.963688,72.5 C139.963688,35.2997178 109.700282,5.03631159 72.5,5.03631159 Z"/>
      <path d="M78.0902229,54.0419832 L78.0902229,54.0419832 C71.9496463,54.0419832 65.7284318,51.3406134 62.2468902,47.1595379 C59.7813862,44.2061746 58.8217951,40.7891433 59.4668984,37.2834103 C61.3578573,27.0161889 48.5928767,14.3217665 43.5046248,10.2898712 C42.9058884,9.81612349 42.5994643,9.06014312 42.6942139,8.29609896 C42.7889634,7.53205479 43.2848865,6.88695154 43.9844204,6.5805275 C63.2226089,-1.74332038 85.3436025,-1.22320589 104.337861,8.19530157 C104.928534,8.49366183 105.353899,9.04401554 105.495015,9.69113474 C105.630084,10.3443018 105.470824,11.0135964 105.047475,11.5337109 C102.251356,14.9346146 100.46321,21.8493151 97.7457125,32.3060356 C97.1006093,34.7957309 96.4071233,37.4971008 95.6209037,40.418209 C93.3610264,48.9537313 86.7930689,54.0419832 78.0902229,54.0419832 Z M48.9698589,9.27383357 C54.4270292,14.3137027 65.8937395,26.4638193 63.7507872,38.0716459 C63.2387365,40.8435739 64.4684645,43.0248293 65.5933633,44.3714823 C68.2786056,47.5990145 73.1854222,49.6875363 78.0902229,49.6875363 C81.2653404,49.6875363 88.9198937,48.6795625 91.4317645,39.2912942 C92.2099203,36.3863136 92.91147,33.6930076 93.5485095,31.2194398 C96.0382049,21.6678798 97.6912819,15.2894214 100.156786,11.029724 C83.9425189,3.68965856 65.4280556,3.12317726 48.9698589,9.27383357 Z"/>
      <path d="M75.2013699 89.139632C75.2013699 89.139632 75.2013699 89.139632 75.1933061 89.139632 58.404494 89.139632 39.7085954 78.3825353 38.7651319 61.0111143 37.4648456 36.9447311 22.5024821 32.0782335 17.9444245 31.1650092 17.7932284 31.132754 17.4404375 31.0480842 17.2973053 30.9835739 16.6763934 30.709405 16.2187733 30.173163 16.0615293 29.5119321 15.8962216 28.8587651 16.0534655 28.1572153 16.4707667 27.6371008 30.2054181 10.5096095 50.622936.697992231 72.5.697992231 94.493989.697992231 114.992145 10.6204866 128.73486 27.9213494 129.339644 28.6853936 129.363836 29.7639256 128.789291 30.558209 127.309585 32.5822204 126.079857 34.023623 124.922703 35.3783398 121.02386 39.9464772 118.205565 43.2445676 109.345475 65.6961767 103.46294 80.587982 91.0144633 89.139632 75.2013699 89.139632zM22.0226866 27.7862809C28.9595625 30.1026048 41.8596115 37.605962 43.111515 60.7752484 43.8916868 75.1388755 60.3256921 84.785185 75.1852423 84.785185L75.1933061 84.785185C89.1315682 84.785185 100.100339 77.2415089 105.291405 64.0814026 114.4176 40.9604989 117.582637 37.2451073 121.592357 32.5358536 122.418896 31.5742466 123.27769 30.558209 124.253408 29.3063055 111.369487 13.8560826 92.5969822 5.03631159 72.5 5.03631159 53.0642486 5.03631159 34.8582253 13.2896013 22.0226866 27.7862809zM44.9540912 138.633163C44.6617788 138.633163 44.3714823 138.576716 44.0952975 138.451728 17.7226702 127.087831.681864649 101.194999.681864649 72.5.681864649 65.2546841 1.76039665 58.096054 3.88722143 51.2297363 4.23396442 50.1270129 5.38305459 49.4980372 6.50190554 49.7580945 6.78413821 49.8286526 35.1727131 57.8682519 34.4167328 89.9661705 34.1103087 102.739215 38.4022613 109.597469 42.1902269 115.653376 45.9862564 121.717346 49.5685954 127.442637 47.0647884 137.010325 46.9075445 137.625189 46.4821795 138.143288 45.9136823 138.419473 45.6072582 138.562605 45.2847066 138.633163 44.9540912 138.633163zM7.41512983 54.6790227C5.83261092 60.4668084 5.03631159 66.452157 5.03631159 72.5 5.03631159 98.5581394 19.9986751 122.158839 43.3715723 133.349364 44.2444776 127.142261 41.7729258 123.197052 38.4970108 117.953572 34.5901043 111.708166 29.7316704 103.936688 30.0622858 89.8552934 30.6287671 65.9804253 13.4629728 57.0659047 7.41512983 54.6790227z"/>
      <path d="M72.5,144.318135 C72.0826988,144.318135 71.6653977,144.293944 71.2480965,144.263705 L70.4759886,144.223386 C69.3510898,144.191131 68.4277857,143.310162 68.3572276,142.183247 C68.262478,140.74386 66.3735351,106.754983 93.4940789,96.5804948 C105.243022,92.1716173 114.228101,76.8544469 122.150775,63.333486 C126.472967,55.9712451 130.553245,49.0182417 134.923819,43.8271764 C135.411679,43.2526314 136.167659,42.9623349 136.907512,43.0792599 C137.655428,43.190137 138.28642,43.6860601 138.58478,44.3795461 C142.388873,53.2940667 144.318135,62.7508771 144.318135,72.5 C144.318135,112.095228 112.095228,144.318135 72.5,144.318135 Z M135.955984,49.5605316 C132.623623,54.0802862 129.339644,59.6805888 125.906485,65.5389327 C117.614893,79.6808056 108.220577,95.7075895 95.030231,100.652709 C74.0744551,108.510873 72.6189409,132.837313 72.6491801,139.963688 C109.778904,139.885066 139.963688,109.645852 139.963688,72.5 C139.963688,64.5934533 138.617035,56.900597 135.955984,49.5605316 Z"/>
      <path d="M85.5008465,143.058168 C85.0291147,143.058168 84.555367,142.900924 84.1783848,142.608612 C83.6905255,142.239693 83.3820855,141.665148 83.3276549,141.050284 C83.2732243,140.356798 82.1543733,124.071973 91.5486894,113.92974 C99.6608628,105.180527 113.008452,103.644375 130.781047,109.559166 C131.42615,109.778904 131.938201,110.282891 132.151891,110.927994 C132.37163,111.575113 132.27688,112.282711 131.891834,112.851208 C121.245614,128.513106 104.478978,139.506068 85.90202,143.017849 C85.7689675,143.050104 85.6359149,143.058168 85.5008465,143.058168 Z M111.653735,110.353449 C104.456802,110.353449 98.7698139,112.550832 94.7459824,116.891167 C88.6356451,123.489364 87.7062932,133.577166 87.6276712,138.215862 C103.102085,134.655698 117.062523,125.551679 126.591908,112.802826 C121.064179,111.17394 116.054549,110.353449 111.653735,110.353449 Z"/>
    </g>
  </g>
</svg>