<svg width="500" height="229" viewBox="0 0 500 229" fill="none" xmlns="http://www.w3.org/2000/svg">
<path fill-rule="evenodd" clip-rule="evenodd" d="M367.803 161.812C362.499 156.828 359.721 148.967 359.462 138.229H426.373C426.499 136.825 426.628 135.136 426.754 133.149C426.883 131.169 426.949 129.285 426.949 127.494C426.949 120.974 426.052 114.937 424.264 109.378C422.472 103.818 419.853 99.0268 416.406 95.0003C412.952 90.9738 408.671 87.8116 403.558 85.5103C398.446 83.2089 392.502 82.0566 385.73 82.0566C377.803 82.0566 370.932 83.4308 365.118 86.1791C359.303 88.9308 354.479 92.6361 350.644 97.2983C346.813 101.967 343.966 107.461 342.115 113.785C340.26 120.116 339.333 126.921 339.333 134.202C339.333 141.62 340.293 148.424 342.211 154.623C344.128 160.822 347.164 166.192 351.317 170.729C355.469 175.265 360.744 178.778 367.134 181.272C373.522 183.765 381.191 185.01 390.141 185.01C396.273 185.01 401.863 184.56 406.916 183.669C411.959 182.772 416.595 181.434 420.813 179.643C420.684 176.957 420.303 174.245 419.664 171.494C419.022 168.745 418.194 166.414 417.171 164.497C408.989 167.692 400.366 169.292 391.29 169.292C380.936 169.292 373.108 166.795 367.803 161.812ZM408.161 124.047C408.161 120.467 407.681 117.05 406.724 113.785C405.764 110.527 404.356 107.686 402.505 105.255C400.648 102.828 398.287 100.878 395.409 99.4109C392.535 97.9407 389.115 97.2023 385.154 97.2023C377.356 97.2023 371.383 99.5699 367.227 104.298C363.075 109.027 360.552 115.61 359.654 124.047H408.161Z" fill="#FF4A00"/>
<path fill-rule="evenodd" clip-rule="evenodd" d="M188.649 84.3566C189.924 84.105 191.235 83.9129 192.577 83.7838C193.921 83.6579 195.292 83.5917 196.699 83.5917C197.974 83.5917 199.318 83.6579 200.726 83.7838C202.129 83.9129 203.474 84.105 204.752 84.3566C204.878 84.6182 205.04 85.4129 205.229 86.7573C205.421 88.0983 205.613 89.5354 205.805 91.0685C205.997 92.6017 206.189 94.0752 206.381 95.4791C206.573 96.8864 206.666 97.7805 206.666 98.1646C207.944 96.1182 209.477 94.1381 211.269 92.2209C213.057 90.3036 215.202 88.5752 217.692 87.0454C220.182 85.5089 222.994 84.297 226.129 83.403C229.255 82.5089 232.739 82.0586 236.576 82.0586C242.325 82.0586 247.663 83.0189 252.586 84.9361C257.504 86.8533 261.719 89.8235 265.235 93.8467C268.749 97.8765 271.497 102.989 273.48 109.184C275.461 115.39 276.451 122.701 276.451 131.138C276.451 148.009 271.881 161.208 262.745 170.727C253.603 180.251 240.666 185.012 223.921 185.012C221.11 185.012 218.235 184.82 215.295 184.436C212.351 184.052 209.798 183.539 207.626 182.903V227.956C206.093 228.208 204.464 228.4 202.739 228.529C201.014 228.655 199.444 228.721 198.04 228.721C196.633 228.721 195.07 228.655 193.345 228.529C191.62 228.4 190.053 228.208 188.649 227.956V84.3566ZM215.103 168.522C212.547 168.141 210.05 167.502 207.626 166.605V126.731C207.626 121.87 208.328 117.691 209.739 114.171C211.143 110.658 212.994 107.747 215.295 105.446C217.596 103.145 220.212 101.42 223.156 100.274C226.093 99.1215 229.163 98.5454 232.358 98.5454C240.918 98.5454 247.086 101.552 250.858 107.555C254.626 113.565 256.514 121.681 256.514 131.906C256.514 138.297 255.712 143.824 254.116 148.486C252.517 153.155 250.345 157.019 247.596 160.085C244.851 163.155 241.56 165.429 237.725 166.893C233.891 168.363 229.676 169.098 225.073 169.098C220.98 169.098 217.659 168.903 215.103 168.522Z" fill="#FF4A00"/>
<path fill-rule="evenodd" clip-rule="evenodd" d="M149.346 117.91C149.346 110.367 147.429 105.128 143.594 102.188C139.76 99.251 134.2 97.7808 126.916 97.7808C122.439 97.7808 118.257 98.1351 114.359 98.8338C110.459 99.5391 106.654 100.463 102.952 101.612C100.522 97.3934 99.3096 92.3503 99.3096 86.4662C103.651 85.0622 108.442 83.9762 113.687 83.2079C118.925 82.4397 123.972 82.0589 128.833 82.0589C141.611 82.0589 151.326 84.9695 157.972 90.7808C164.618 96.5987 167.942 105.897 167.942 118.675V180.218C163.469 181.241 158.038 182.294 151.647 183.38C145.253 184.463 138.733 185.009 132.091 185.009C125.826 185.009 120.174 184.436 115.124 183.284C110.075 182.132 105.793 180.284 102.28 177.721C98.7632 175.172 96.048 171.907 94.1308 167.946C92.2136 163.986 91.2566 159.195 91.2566 153.566C91.2566 148.075 92.3725 143.248 94.6109 139.092C96.846 134.943 99.8824 131.489 103.717 128.741C107.551 125.996 111.962 123.946 116.945 122.609C121.932 121.264 127.171 120.592 132.667 120.592C136.757 120.592 140.111 120.691 142.73 120.88C145.349 121.075 147.555 121.297 149.346 121.552V117.91ZM142.061 135.741C145.002 135.999 147.429 136.251 149.346 136.506V167.758C146.916 168.397 144.137 168.874 141.005 169.191C137.876 169.516 134.839 169.675 131.899 169.675C129.601 169.675 127.171 169.549 124.614 169.291C122.058 169.032 119.727 168.33 117.618 167.181C115.508 166.029 113.75 164.37 112.346 162.195C110.935 160.026 110.237 157.019 110.237 153.185C110.237 147.181 112.31 142.708 116.469 139.764C120.618 136.827 126.657 135.354 134.584 135.354C136.627 135.354 139.121 135.486 142.061 135.741Z" fill="#FF4A00"/>
<path d="M0 180.028L51.7649 99.5046H6.13576C5.75166 97.2033 5.5596 94.6503 5.5596 91.8358C5.5596 89.1536 5.75166 86.6569 6.13576 84.3556H79.947L80.904 86.8523L28.7583 167.564H77.6457C78.0265 170.124 78.2219 172.74 78.2219 175.422C78.2219 177.985 78.0265 180.409 77.6457 182.713H0.960265L0 180.028Z" fill="#FF4A00"/>
<path d="M300.033 99.3126H287.569C287.314 98.2894 287.122 97.1073 286.996 95.7662C286.867 94.4252 286.804 93.1139 286.804 91.8358C286.804 90.5609 286.867 89.2463 286.996 87.9053C287.122 86.5642 287.314 85.3821 287.569 84.3556H318.632V182.713C317.222 182.965 315.659 183.154 313.933 183.283C312.208 183.409 310.639 183.475 309.235 183.475C307.957 183.475 306.453 183.409 304.731 183.283C303.003 183.154 301.437 182.965 300.033 182.713V99.3126Z" fill="#FF4A00"/>
<path d="M451.881 83.7841C450.603 83.9132 449.258 84.1053 447.854 84.3569V182.711C449.387 182.963 451.017 183.155 452.745 183.284C454.47 183.41 456.033 183.476 457.444 183.476C458.844 183.476 460.414 183.41 462.136 183.284C463.861 183.155 465.427 182.963 466.834 182.711V133.821C466.834 127.178 467.57 121.744 469.04 117.529C470.507 113.311 472.49 109.986 474.98 107.556C477.474 105.128 480.281 103.436 483.417 102.476C486.55 101.519 489.841 101.039 493.291 101.039H495.877C496.964 101.039 498.017 101.168 499.043 101.42C499.298 99.8901 499.523 98.2907 499.715 96.6285C499.904 94.9695 500 93.3702 500 91.8371C500 90.4298 499.937 89.0887 499.808 87.8106C499.682 86.5358 499.487 85.3172 499.235 84.1649C498.47 84.0424 497.536 83.9464 496.454 83.8801C495.368 83.8139 494.311 83.7841 493.291 83.7841C486.387 83.7841 480.735 85.3834 476.325 88.5755C471.917 91.7709 468.368 95.5457 465.685 99.8901C465.685 97.7146 465.49 95.0656 465.109 91.9298C464.725 88.804 464.341 86.2742 463.96 84.3569C462.808 84.1053 461.53 83.9132 460.126 83.7841C458.715 83.6583 457.311 83.592 455.907 83.592C454.5 83.592 453.156 83.6583 451.881 83.7841Z" fill="#FF4A00"/>
<path fill-rule="evenodd" clip-rule="evenodd" d="M336.562 26.25H318.174L331.177 13.2484C330.155 11.8134 329.015 10.4676 327.772 9.22425H327.771C326.53 7.98263 325.186 6.84513 323.752 5.824L310.75 18.8256V0.438375C309.048 0.15225 307.301 0.000875 305.518 0H305.482C303.7 0.000875 301.952 0.15225 300.25 0.438375V18.8256L287.248 5.824C285.814 6.84513 284.469 7.9835 283.227 9.226L283.222 9.23038C281.982 10.4711 280.844 11.8151 279.824 13.2484L292.826 26.25H274.438C274.438 26.25 274.001 29.7036 274 31.4886V31.5114C274.001 33.2964 274.152 35.0464 274.438 36.75H292.826L279.824 49.7516C281.867 52.6208 284.379 55.1329 287.248 57.1769L300.25 44.1753V62.5616C301.95 62.8478 303.696 62.9991 305.478 63H305.523C307.304 62.9991 309.05 62.8478 310.75 62.5625V44.1744L323.752 57.176C325.186 56.1549 326.531 55.0165 327.772 53.7749L327.776 53.7723C329.017 52.5306 330.156 51.1858 331.177 49.7516L318.174 36.75H336.562C336.847 35.0499 336.999 33.3034 337 31.5228V31.4773C336.999 29.6966 336.847 27.951 336.562 26.25ZM313.375 31.514C313.373 33.8546 312.946 36.0955 312.165 38.164C310.097 38.9445 307.855 39.3732 305.514 39.375H305.486C303.146 39.3732 300.904 38.9454 298.837 38.1658C298.056 36.0972 297.627 33.8555 297.625 31.514V31.4869C297.627 29.1454 298.055 26.9045 298.834 24.8369C300.904 24.0564 303.145 23.6267 305.486 23.625H305.514C307.855 23.6267 310.097 24.0564 312.165 24.8369C312.946 26.9045 313.373 29.1454 313.375 31.4869V31.514Z" fill="#FF4A00"/>
</svg>
