<svg width="100" height="100" viewBox="0 0 100 100" fill="none" xmlns="http://www.w3.org/2000/svg">
<path d="M58.4493 0H41.5479V38.8164H58.4493V0Z" fill="#A256D5"/>
<path d="M79.3807 8.66911L51.9334 36.1165L63.8846 48.0676L91.3319 20.6203L79.3807 8.66911Z" fill="#6061ED"/>
<path d="M100 41.5479H61.1837V58.4494H100V41.5479Z" fill="#499DF3"/>
<path d="M63.8824 51.9318L51.9313 63.883L79.3785 91.3303L91.3297 79.3791L63.8824 51.9318Z" fill="#3FB6D7"/>
<path d="M58.4493 61.1836H41.5479V100H58.4493V61.1836Z" fill="#13D0AB"/>
<path d="M36.1158 51.9325L8.66846 79.3798L20.6196 91.3309L48.0669 63.8836L36.1158 51.9325Z" fill="#FFC43E"/>
<path d="M38.8163 41.5479H0V58.4494H38.8163V41.5479Z" fill="#FD7622"/>
<path d="M20.6219 8.66959L8.67078 20.6208L36.1181 48.0681L48.0692 36.1169L20.6219 8.66959Z" fill="#FF4A00"/>
</svg>
